STARTFONT 2.1
COMMENT
COMMENT Converted from TrueType font "BOOKOS.ttf" by "ttf2bdf 2.6".
COMMENT
FONT -FreeType-Bookman Old Style-Medium-R-Normal--33-240-100-100-P-184-ISO10646-1
SIZE 24 100 100
FONTBOUNDINGBOX 51 43 -6 -10
STARTPROPERTIES 21
FOUNDRY "FreeType"
FAMILY_NAME "Bookman Old Style"
WEIGHT_NAME "Medium"
SLANT "R"
SETWIDTH_NAME "Normal"
ADD_STYLE_NAME ""
PIXEL_SIZE 33
POINT_SIZE 240
RESOLUTION_X 100
RESOLUTION_Y 100
SPACING "P"
AVERAGE_WIDTH 184
CHARSET_REGISTRY "ISO10646"
CHARSET_ENCODING "1"
FONT_ASCENT 31
FONT_DESCENT 7
COPYRIGHT "Digitized data copyright The Monotype Corporation 1991-1995. All rights reserved. Bookman Old Style" is a trademark of The Monotype Corporation which may be registered in certain jurisdictions."
_TTF_FONTFILE "BOOKOS.ttf"
_TTF_PSNAME "BookmanOldStyle"
_XFREE86_GLYPH_RANGES "32_126 160_383 402 506_511 710_711 713 728_733 894 900_906 908 910_929 931_974 1025_1036 1038_1103 1105_1116 1118_1119 1168_1169 7808_7813 7922_7923 8211_8213 8215_8222 8224_8226 8230 8240 8242_8243 8249_8250 8252 8254 8260 8319 8355_8356 8359 8364 8453 8467 8470 8482 8486 8494 8539_8542 8592_8597 8616 8706 8710 8719 8721_8722 8725 8729_8730 8734_8735 8745 8747 8776 8800_8801 8804_8805 8962 8976 8992_8993 9472 9474 9484 9488 9492 9496 9500 9508 9516 9524 9532 9552_9580 9600 9604 9608"
_XFREE86_GLYPH_RANGES "9612 9616_9619 9632_9633 9642_9644 9650 9658 9660 9668 9674_9675 9679 9688_9689 9702 9786_9788 9792 9794 9824 9827 9829_9830 9834_9835 61440_61449 61696_61704 64257_64258"
ENDPROPERTIES
CHARS 671
STARTCHAR 0020
ENCODING 32
SWIDTH 330 0
DWIDTH 11 0
BBX 1 1 0 0
BITMAP
00
ENDCHAR
STARTCHAR 0021
ENCODING 33
SWIDTH 300 0
DWIDTH 10 0
BBX 4 22 3 0
BITMAP
60
F0
F0
F0
F0
F0
E0
E0
E0
60
60
60
60
40
40
40
00
00
60
F0
F0
60
ENDCHAR
STARTCHAR 0022
ENCODING 34
SWIDTH 390 0
DWIDTH 13 0
BBX 9 9 2 13
BITMAP
E380
E380
E380
E380
E380
E380
4100
4100
4100
ENDCHAR
STARTCHAR 0023
ENCODING 35
SWIDTH 570 0
DWIDTH 19 0
BBX 15 22 2 0
BITMAP
0618
0618
0618
0618
0C30
0C30
0C30
7FFE
7FFE
0C30
0C30
1860
1860
FFFC
FFFC
1860
1860
1860
38E0
30C0
30C0
30C0
ENDCHAR
STARTCHAR 0024
ENCODING 36
SWIDTH 600 0
DWIDTH 20 0
BBX 17 30 1 -4
BITMAP
018000
018000
018000
018000
0FF200
39BE00
718E00
E18700
E18300
E18100
E18100
718000
7D8000
3FC000
0FF000
01FC00
01BF00
018F00
C18780
C18380
C18380
618380
718300
798700
6D9C00
63F000
018000
018000
018000
018000
ENDCHAR
STARTCHAR 0025
ENCODING 37
SWIDTH 960 0
DWIDTH 32 0
BBX 30 22 1 0
BITMAP
1F800300
39C00600
70E00C00
E0701C00
E0701800
E0703000
E0706000
E0706000
E070C000
70E18000
31C307E0
1F830E70
00061C38
000C381C
001C381C
0018381C
0030381C
0060381C
0060381C
00C01C38
01800E70
030007E0
ENDCHAR
STARTCHAR 0026
ENCODING 38
SWIDTH 780 0
DWIDTH 26 0
BBX 24 22 2 0
BITMAP
03E000
0E3800
0C1800
1C1C00
1C1C00
1C1C00
0C1800
063800
01E3FC
0E6060
183060
303860
701C40
E01CC0
E00EDC
E00E9E
E0079F
E0070F
700787
380F87
1C19CE
07E078
ENDCHAR
STARTCHAR 0027
ENCODING 39
SWIDTH 210 0
DWIDTH 7 0
BBX 3 9 2 13
BITMAP
E0
E0
E0
E0
E0
E0
40
40
40
ENDCHAR
STARTCHAR 0028
ENCODING 40
SWIDTH 300 0
DWIDTH 10 0
BBX 6 31 3 -8
BITMAP
0C
1C
18
30
30
70
70
60
E0
E0
E0
E0
E0
E0
E0
E0
E0
E0
E0
E0
E0
E0
60
60
70
70
30
30
18
0C
08
ENDCHAR
STARTCHAR 0029
ENCODING 41
SWIDTH 300 0
DWIDTH 10 0
BBX 6 31 1 -8
BITMAP
80
C0
60
30
30
38
38
18
18
1C
1C
1C
1C
1C
1C
1C
1C
1C
1C
1C
1C
1C
1C
18
38
38
30
30
60
E0
C0
ENDCHAR
STARTCHAR 002A
ENCODING 42
SWIDTH 450 0
DWIDTH 15 0
BBX 13 10 2 12
BITMAP
0700
0700
0700
0200
F278
0FE0
0F80
1DC0
38E0
38E0
ENDCHAR
STARTCHAR 002B
ENCODING 43
SWIDTH 600 0
DWIDTH 20 0
BBX 16 16 2 3
BITMAP
0180
0180
0180
0180
0180
0180
0180
FFFF
FFFF
0180
0180
0180
0180
0180
0180
0180
ENDCHAR
STARTCHAR 002C
ENCODING 44
SWIDTH 330 0
DWIDTH 11 0
BBX 5 10 3 -6
BITMAP
70
F8
F8
78
18
18
30
60
C0
80
ENDCHAR
STARTCHAR 002D
ENCODING 45
SWIDTH 390 0
DWIDTH 13 0
BBX 9 2 2 7
BITMAP
FF80
FF80
ENDCHAR
STARTCHAR 002E
ENCODING 46
SWIDTH 330 0
DWIDTH 11 0
BBX 4 4 3 0
BITMAP
60
F0
F0
60
ENDCHAR
STARTCHAR 002F
ENCODING 47
SWIDTH 600 0
DWIDTH 20 0
BBX 14 31 2 -8
BITMAP
001C
001C
003C
0038
0038
0070
0070
0070
00E0
00E0
01E0
01C0
01C0
0380
0380
0380
0700
0700
0E00
0E00
0E00
1C00
1C00
3C00
3800
3800
7000
7000
7000
E000
E000
ENDCHAR
STARTCHAR 0030
ENCODING 48
SWIDTH 600 0
DWIDTH 20 0
BBX 17 22 1 0
BITMAP
03E000
0E3800
180C00
380E00
700700
700700
F00700
E00380
E00380
E00380
E00380
E00380
E00380
E00380
E00380
600300
700700
700700
300600
180C00
0C3800
03E000
ENDCHAR
STARTCHAR 0031
ENCODING 49
SWIDTH 600 0
DWIDTH 20 0
BBX 11 22 6 0
BITMAP
0600
3E00
FE00
0E00
0E00
0E00
0E00
0E00
0E00
0E00
0E00
0E00
0E00
0E00
0E00
0E00
0E00
0E00
0E00
0E00
1E00
FFE0
ENDCHAR
STARTCHAR 0032
ENCODING 50
SWIDTH 600 0
DWIDTH 20 0
BBX 15 23 2 -1
BITMAP
07E0
1878
201C
401C
400E
800E
800E
800E
800E
001E
001C
003C
0078
00F0
01E0
03C0
0780
0E02
1C02
3006
7FFC
FFFC
0004
ENDCHAR
STARTCHAR 0033
ENCODING 51
SWIDTH 600 0
DWIDTH 20 0
BBX 16 22 2 0
BITMAP
07E0
1C38
381C
300E
600E
600E
000E
000E
001C
0078
07C0
0038
000E
000E
0007
E007
E007
E007
700E
701C
1C38
07E0
ENDCHAR
STARTCHAR 0034
ENCODING 52
SWIDTH 600 0
DWIDTH 20 0
BBX 18 22 1 0
BITMAP
001C00
003C00
007C00
00DC00
019C00
031C00
061C00
0C1C00
181C00
301C00
601C00
C01C00
801C00
FFFFC0
001C00
001C00
001C00
001C00
001C00
001C00
001C00
001C00
ENDCHAR
STARTCHAR 0035
ENCODING 53
SWIDTH 600 0
DWIDTH 20 0
BBX 16 23 2 0
BITMAP
0004
3FFC
3FFC
2000
2000
2000
2000
2000
3FE0
3078
001C
000E
000E
0007
0007
0007
E007
E007
E00E
700E
701C
3C38
0FE0
ENDCHAR
STARTCHAR 0036
ENCODING 54
SWIDTH 600 0
DWIDTH 20 0
BBX 17 22 1 0
BITMAP
00FC00
03C000
0E0000
1C0000
380000
300000
700000
600000
E3F000
E41C00
E80E00
F00700
E00380
E00380
E00380
E00380
600380
600380
300700
380E00
1C1C00
07F000
ENDCHAR
STARTCHAR 0037
ENCODING 55
SWIDTH 600 0
DWIDTH 20 0
BBX 17 23 1 0
BITMAP
200000
3FFF80
7FFF80
400300
400600
800E00
800C00
001800
003800
003000
007000
006000
00E000
00C000
01C000
01C000
038000
038000
038000
038000
070000
070000
070000
ENDCHAR
STARTCHAR 0038
ENCODING 56
SWIDTH 600 0
DWIDTH 20 0
BBX 17 22 1 0
BITMAP
07F000
1C1C00
380E00
700700
700700
700700
780F00
7C0E00
3F3C00
0FF000
03F800
0EFE00
383F00
700F00
F00780
E00380
E00380
E00380
700700
700600
1C1C00
07F000
ENDCHAR
STARTCHAR 0039
ENCODING 57
SWIDTH 600 0
DWIDTH 20 0
BBX 17 22 1 0
BITMAP
07F000
1C1C00
380E00
700600
E00700
E00300
E00380
E00380
E00380
E00380
700780
380B80
1C1380
07E380
000300
000700
000600
000E00
001C00
003800
01E000
1F0000
ENDCHAR
STARTCHAR 003A
ENCODING 58
SWIDTH 330 0
DWIDTH 11 0
BBX 4 16 3 0
BITMAP
60
F0
F0
60
00
00
00
00
00
00
00
00
60
F0
F0
60
ENDCHAR
STARTCHAR 003B
ENCODING 59
SWIDTH 330 0
DWIDTH 11 0
BBX 5 22 3 -6
BITMAP
60
F0
F0
60
00
00
00
00
00
00
00
00
70
F8
F8
78
18
18
30
60
C0
80
ENDCHAR
STARTCHAR 003C
ENCODING 60
SWIDTH 600 0
DWIDTH 20 0
BBX 15 15 2 3
BITMAP
0002
001E
00FE
03FC
1FE0
FF00
FC00
E000
FC00
FF00
1FE0
03FC
00FE
001E
0002
ENDCHAR
STARTCHAR 003D
ENCODING 61
SWIDTH 600 0
DWIDTH 20 0
BBX 16 7 2 8
BITMAP
FFFF
FFFF
0000
0000
0000
FFFF
FFFF
ENDCHAR
STARTCHAR 003E
ENCODING 62
SWIDTH 600 0
DWIDTH 20 0
BBX 15 15 3 3
BITMAP
8000
F000
FE00
7F80
0FF0
01FE
007E
000E
007E
01FE
0FF0
7F80
FE00
F000
8000
ENDCHAR
STARTCHAR 003F
ENCODING 63
SWIDTH 540 0
DWIDTH 18 0
BBX 15 22 2 0
BITMAP
1FC0
7870
F018
E01C
E00E
000E
000E
001E
001E
007C
0FFC
0FF0
0FC0
0C00
0C00
0C00
0000
0000
0C00
1E00
1E00
0C00
ENDCHAR
STARTCHAR 0040
ENCODING 64
SWIDTH 810 0
DWIDTH 27 0
BBX 28 30 -1 -8
BITMAP
000FE000
00701C00
01C00600
03000100
0E000080
0C000040
1803C440
300E3C40
301C1820
60381820
60701820
60E01820
C0E01020
C1C03020
C1C03040
C3C07040
C3807040
C380E080
C381E080
C382E100
61C4E200
60F87C10
20000020
30000020
18000040
08000080
06000100
03000600
01E03800
003FC000
ENDCHAR
STARTCHAR 0041
ENCODING 65
SWIDTH 660 0
DWIDTH 22 0
BBX 22 22 0 0
BITMAP
007800
007800
007800
00DC00
00DC00
00DC00
018E00
018E00
030F00
030700
030700
060380
060380
07FF80
0C01C0
0C01C0
1C01C0
1800E0
1800E0
3000E0
3800F0
FE03FC
ENDCHAR
STARTCHAR 0042
ENCODING 66
SWIDTH 720 0
DWIDTH 24 0
BBX 21 22 1 0
BITMAP
FFFF00
1C01C0
1C00E0
1C0070
1C0070
1C0070
1C0070
1C00F0
1C00E0
1C03C0
1FFF00
1C01E0
1C0070
1C0070
1C0038
1C0038
1C0038
1C0038
1C0070
1C0070
1C01C0
FFFF00
ENDCHAR
STARTCHAR 0043
ENCODING 67
SWIDTH 720 0
DWIDTH 24 0
BBX 22 22 2 0
BITMAP
00FE20
0383E0
0E01F0
1C0070
380070
700030
700038
600018
E00000
E00000
E00000
E00000
E00000
E00000
700000
700008
70000C
380018
1C0030
0E00E0
078380
00FE00
ENDCHAR
STARTCHAR 0044
ENCODING 68
SWIDTH 780 0
DWIDTH 26 0
BBX 23 22 1 0
BITMAP
FFFE00
1C03C0
1C00E0
1C0070
1C0038
1C001C
1C001C
1C000C
1C000E
1C000E
1C000E
1C000E
1C000E
1C000E
1C000E
1C001C
1C001C
1C0038
1C0030
1C0070
1C01C0
FFFF00
ENDCHAR
STARTCHAR 0045
ENCODING 69
SWIDTH 690 0
DWIDTH 23 0
BBX 21 22 1 0
BITMAP
FFFFE0
1C01E0
1C0060
1C0070
1C0030
1C0038
1C0C18
1C0C00
1C0C00
1C1C00
1FFC00
1C1C00
1C0C00
1C0C00
1C0C10
1C0018
1C0018
1C0030
1C0070
1C00F0
1C01E0
FFFFE0
ENDCHAR
STARTCHAR 0046
ENCODING 70
SWIDTH 630 0
DWIDTH 21 0
BBX 20 22 1 0
BITMAP
FFFFC0
1C03C0
1C00E0
1C00E0
1C0060
1C0070
1C0030
1C0C00
1C0C00
1C0C00
1C1C00
1FFC00
1C1C00
1C0C00
1C0C00
1C0C00
1C0000
1C0000
1C0000
1C0000
1C0000
FF8000
ENDCHAR
STARTCHAR 0047
ENCODING 71
SWIDTH 780 0
DWIDTH 26 0
BBX 24 22 2 0
BITMAP
00FE20
0383F0
0E01F0
1C00F0
380070
700038
700038
600018
E00000
E00000
E00000
E001FF
E00078
E00038
F00038
700038
700038
380038
1C0078
0E0078
0781B8
01FE18
ENDCHAR
STARTCHAR 0048
ENCODING 72
SWIDTH 780 0
DWIDTH 26 0
BBX 24 22 1 0
BITMAP
FF81FF
1C0038
1C0038
1C0038
1C0038
1C0038
1C0038
1C0038
1C0038
1C0038
1FFFF8
1C0038
1C0038
1C0038
1C0038
1C0038
1C0038
1C0038
1C0038
1C0038
1C0038
FF81FF
ENDCHAR
STARTCHAR 0049
ENCODING 73
SWIDTH 330 0
DWIDTH 11 0
BBX 9 22 1 0
BITMAP
FF80
1C00
1C00
1C00
1C00
1C00
1C00
1C00
1C00
1C00
1C00
1C00
1C00
1C00
1C00
1C00
1C00
1C00
1C00
1C00
1C00
FF80
ENDCHAR
STARTCHAR 004A
ENCODING 74
SWIDTH 600 0
DWIDTH 20 0
BBX 19 22 0 0
BITMAP
003FE0
000700
000700
000700
000700
000700
000700
000700
000700
000700
000700
000700
000700
600700
E00700
E00700
E00700
E00700
600E00
300C00
183800
07E000
ENDCHAR
STARTCHAR 004B
ENCODING 75
SWIDTH 720 0
DWIDTH 24 0
BBX 23 22 1 0
BITMAP
FF83FC
1C00F0
1C00C0
1C0080
1C0100
1C0200
1C0400
1C0800
1C1000
1C2000
1C7000
1CB800
1D1C00
1E0E00
1C0E00
1C0700
1C0380
1C01C0
1C01E0
1C00E0
1C00F0
FF83FE
ENDCHAR
STARTCHAR 004C
ENCODING 76
SWIDTH 600 0
DWIDTH 20 0
BBX 19 22 1 0
BITMAP
FF8000
1C0000
1C0000
1C0000
1C0000
1C0000
1C0000
1C0000
1C0000
1C0000
1C0000
1C0000
1C0000
1C0000
1C0000
1C0060
1C0040
1C00C0
1C01C0
1C0380
1C0F80
FFFF80
ENDCHAR
STARTCHAR 004D
ENCODING 77
SWIDTH 900 0
DWIDTH 30 0
BBX 27 22 1 0
BITMAP
FE000FE0
1F001F00
1F001F00
1F001F00
1B803700
1B803700
1B807700
19C06700
19C06700
18E0C700
18E0C700
18E0C700
18718700
18718700
18718700
183B0700
183B0700
183F0700
181E0700
181E0700
180C0700
FF0C3FE0
ENDCHAR
STARTCHAR 004E
ENCODING 78
SWIDTH 720 0
DWIDTH 24 0
BBX 22 22 1 0
BITMAP
FE03FC
1F00F0
1F0060
1B8060
1B8060
19C060
18E060
18E060
187060
187860
183860
181C60
181C60
180E60
180F60
180760
1803E0
1803E0
1801E0
1801E0
1800E0
FF0060
ENDCHAR
STARTCHAR 004F
ENCODING 79
SWIDTH 780 0
DWIDTH 26 0
BBX 22 22 2 0
BITMAP
00FE00
070380
0E00C0
180060
380070
700038
700038
E0001C
E0001C
E0001C
E0001C
E0001C
E0001C
E0001C
E0003C
700038
700038
380070
1800E0
0C01C0
070380
01FE00
ENDCHAR
STARTCHAR 0050
ENCODING 80
SWIDTH 600 0
DWIDTH 20 0
BBX 19 22 1 0
BITMAP
FFFE00
1C0780
1C01C0
1C01C0
1C00E0
1C00E0
1C00E0
1C00E0
1C01C0
1C01C0
1C0780
1FFE00
1C0000
1C0000
1C0000
1C0000
1C0000
1C0000
1C0000
1C0000
1C0000
FF8000
ENDCHAR
STARTCHAR 0051
ENCODING 81
SWIDTH 780 0
DWIDTH 26 0
BBX 22 28 2 -6
BITMAP
00FE00
070380
0E00C0
180060
380070
700038
700038
E0001C
E0001C
E0001C
E0001C
E0001C
E0001C
E0001C
E0003C
700038
700038
380070
1800F0
0C01E0
070380
01FE00
003800
003800
003800
001C00
001E30
0007C0
ENDCHAR
STARTCHAR 0052
ENCODING 82
SWIDTH 720 0
DWIDTH 24 0
BBX 22 22 1 0
BITMAP
FFFF80
1C00E0
1C0070
1C0038
1C0038
1C0038
1C0038
1C0030
1C0070
1C01E0
1FFF00
1C3800
1C3800
1C1C00
1C0E00
1C0700
1C0380
1C01C0
1C00C0
1C00E0
1C0070
FF803C
ENDCHAR
STARTCHAR 0053
ENCODING 83
SWIDTH 660 0
DWIDTH 22 0
BBX 18 22 2 0
BITMAP
07F300
383F00
701F00
600F00
E00700
E00380
F00380
F80180
7E0000
3FE000
0FFC00
01FF00
003F80
000780
C003C0
E001C0
E001C0
7001C0
780180
7C0300
6E0E00
63F800
ENDCHAR
STARTCHAR 0054
ENCODING 84
SWIDTH 600 0
DWIDTH 20 0
BBX 21 23 -1 0
BITMAP
200020
3FFFE0
7C71F0
707070
607030
607030
C07038
C07018
007000
007000
007000
007000
007000
007000
007000
007000
007000
007000
007000
007000
007000
007000
03FE00
ENDCHAR
STARTCHAR 0055
ENCODING 85
SWIDTH 780 0
DWIDTH 26 0
BBX 24 22 1 0
BITMAP
FF80FF
1C0018
1C0018
1C0018
1C0018
1C0018
1C0018
1C0018
1C0018
1C0018
1C0018
1C0018
1C0018
1C0018
1C0018
1C0018
1C0018
0E0030
0E0030
070060
03C180
007E00
ENDCHAR
STARTCHAR 0056
ENCODING 86
SWIDTH 690 0
DWIDTH 23 0
BBX 24 22 0 0
BITMAP
FF007F
3C001C
1C0018
1C0018
0E0030
0E0030
0E0030
070060
070060
0380C0
0380C0
0380C0
01C180
01C180
00E300
00E300
00E300
007600
007600
003C00
003C00
003C00
ENDCHAR
STARTCHAR 0057
ENCODING 87
SWIDTH 960 0
DWIDTH 32 0
BBX 31 22 0 0
BITMAP
FF9FF0FE
3C078038
3C078038
1C038030
1C038030
1E03C030
0E03C060
0E03C060
0E03C060
0706E0C0
0706E0C0
0706E0C0
038C7180
038C7180
038C7180
01D83B00
01D83B00
01D83B00
00F01E00
00F01E00
00F01E00
00600C00
ENDCHAR
STARTCHAR 0058
ENCODING 88
SWIDTH 720 0
DWIDTH 24 0
BBX 23 22 0 0
BITMAP
7F80FE
1E0038
0E0070
070060
0380C0
038180
01C300
00E600
007E00
007C00
003800
003C00
006E00
00C700
018700
038380
0301C0
0600E0
0C00F0
180070
380078
FE01FE
ENDCHAR
STARTCHAR 0059
ENCODING 89
SWIDTH 630 0
DWIDTH 21 0
BBX 21 22 0 0
BITMAP
FF03F8
3C00E0
1C00C0
1C00C0
0E0180
0E0380
070300
038600
038600
01CC00
01D800
00F800
007000
007000
007000
007000
007000
007000
007000
007000
007000
03FE00
ENDCHAR
STARTCHAR 005A
ENCODING 90
SWIDTH 630 0
DWIDTH 21 0
BBX 20 22 1 0
BITMAP
1FFFE0
3E01C0
3801C0
700380
600700
C00E00
401E00
001C00
003800
007000
00E000
00E000
01C000
038000
070020
0F0030
0E0020
1C0060
3800E0
7001C0
7007C0
FFFF80
ENDCHAR
STARTCHAR 005B
ENCODING 91
SWIDTH 300 0
DWIDTH 10 0
BBX 6 31 3 -8
BITMAP
FC
E0
E0
E0
E0
E0
E0
E0
E0
E0
E0
E0
E0
E0
E0
E0
E0
E0
E0
E0
E0
E0
E0
E0
E0
E0
E0
E0
E0
E0
FC
ENDCHAR
STARTCHAR 005C
ENCODING 92
SWIDTH 600 0
DWIDTH 20 0
BBX 13 31 4 -8
BITMAP
E000
E000
E000
7000
7000
7000
3800
3800
3800
1C00
1C00
1C00
0E00
0E00
0700
0700
0700
0380
0380
0380
01C0
01C0
01C0
00E0
00E0
00E0
0070
0070
0070
0038
0038
ENDCHAR
STARTCHAR 005D
ENCODING 93
SWIDTH 300 0
DWIDTH 10 0
BBX 6 31 2 -8
BITMAP
FC
1C
1C
1C
1C
1C
1C
1C
1C
1C
1C
1C
1C
1C
1C
1C
1C
1C
1C
1C
1C
1C
1C
1C
1C
1C
1C
1C
1C
1C
FC
ENDCHAR
STARTCHAR 005E
ENCODING 94
SWIDTH 600 0
DWIDTH 20 0
BBX 15 13 1 9
BITMAP
0380
07C0
07C0
0EE0
0EE0
1C70
1C70
3838
3838
701C
701C
E00E
E00E
ENDCHAR
STARTCHAR 005F
ENCODING 95
SWIDTH 510 0
DWIDTH 17 0
BBX 17 1 0 -4
BITMAP
FFFF80
ENDCHAR
STARTCHAR 0060
ENCODING 96
SWIDTH 330 0
DWIDTH 11 0
BBX 7 4 2 18
BITMAP
E0
F8
7C
06
ENDCHAR
STARTCHAR 0061
ENCODING 97
SWIDTH 570 0
DWIDTH 19 0
BBX 19 16 1 0
BITMAP
07F000
1C3C00
381C00
700E00
700E00
700E00
000E00
00FE00
1F8E00
780E00
F00E00
E00E00
E00E00
E03E00
70EF00
3F87E0
ENDCHAR
STARTCHAR 0062
ENCODING 98
SWIDTH 600 0
DWIDTH 20 0
BBX 18 23 1 0
BITMAP
1C0000
FC0000
1C0000
1C0000
1C0000
1C0000
1C0000
1CFC00
1D0F00
1E0300
1C0380
1C0180
1C01C0
1C01C0
1C01C0
1C01C0
1C01C0
1C01C0
1C0380
1C0380
1E0700
1B0E00
18F800
ENDCHAR
STARTCHAR 0063
ENCODING 99
SWIDTH 510 0
DWIDTH 17 0
BBX 15 16 1 0
BITMAP
07F0
1C3C
381E
700E
700E
E000
E000
E000
E000
E000
E000
7002
7006
380C
1C30
07E0
ENDCHAR
STARTCHAR 0064
ENCODING 100
SWIDTH 600 0
DWIDTH 20 0
BBX 18 23 1 0
BITMAP
000E00
007E00
000E00
000E00
000E00
000E00
000E00
07CE00
1C2E00
381E00
700E00
700E00
E00E00
E00E00
E00E00
E00E00
E00E00
E00E00
600E00
700E00
301E00
1C2F00
0FCFC0
ENDCHAR
STARTCHAR 0065
ENCODING 101
SWIDTH 510 0
DWIDTH 17 0
BBX 15 16 1 0
BITMAP
07E0
1C38
381C
700C
600E
FFFE
E000
E000
E000
E000
E000
7002
7006
380C
1C38
07E0
ENDCHAR
STARTCHAR 0066
ENCODING 102
SWIDTH 330 0
DWIDTH 11 0
BBX 13 23 1 0
BITMAP
03E0
0678
0C38
1C38
1C00
1C00
1C00
FF80
1C00
1C00
1C00
1C00
1C00
1C00
1C00
1C00
1C00
1C00
1C00
1C00
1C00
1C00
FF80
ENDCHAR
STARTCHAR 0067
ENCODING 103
SWIDTH 540 0
DWIDTH 18 0
BBX 16 23 2 -7
BITMAP
0FE7
3878
7038
601C
E01C
E01C
E01C
E018
7038
3870
3FC0
6000
E000
FF00
3FF8
1FFE
303F
700F
E007
E007
E00E
781C
1FF0
ENDCHAR
STARTCHAR 0068
ENCODING 104
SWIDTH 660 0
DWIDTH 22 0
BBX 21 23 1 0
BITMAP
1C0000
FC0000
1C0000
1C0000
1C0000
1C0000
1C0000
1CFE00
1D0380
1E01C0
1C01C0
1C01C0
1C01C0
1C01C0
1C01C0
1C01C0
1C01C0
1C01C0
1C01C0
1C01C0
1C01C0
1C03E0
FF8FF8
ENDCHAR
STARTCHAR 0069
ENCODING 105
SWIDTH 300 0
DWIDTH 10 0
BBX 9 23 1 0
BITMAP
1800
3C00
3C00
1800
0000
0000
0000
1C00
FC00
1C00
1C00
1C00
1C00
1C00
1C00
1C00
1C00
1C00
1C00
1C00
1C00
3C00
FF80
ENDCHAR
STARTCHAR 006A
ENCODING 106
SWIDTH 300 0
DWIDTH 10 0
BBX 10 30 -3 -7
BITMAP
0180
03C0
03C0
0180
0000
0000
0000
01C0
0FC0
01C0
01C0
01C0
01C0
01C0
01C0
01C0
01C0
01C0
01C0
01C0
01C0
01C0
01C0
01C0
01C0
01C0
01C0
E180
F300
7E00
ENDCHAR
STARTCHAR 006B
ENCODING 107
SWIDTH 600 0
DWIDTH 20 0
BBX 19 23 1 0
BITMAP
1C0000
FC0000
1C0000
1C0000
1C0000
1C0000
1C0000
1C1FE0
1C0700
1C0E00
1C1C00
1C3800
1C7000
1CC000
1DE000
1F7000
1E3800
1C1C00
1C1C00
1C0E00
1C0700
3E0780
FF9FE0
ENDCHAR
STARTCHAR 006C
ENCODING 108
SWIDTH 300 0
DWIDTH 10 0
BBX 9 23 1 0
BITMAP
1C00
FC00
1C00
1C00
1C00
1C00
1C00
1C00
1C00
1C00
1C00
1C00
1C00
1C00
1C00
1C00
1C00
1C00
1C00
1C00
1C00
3E00
FF80
ENDCHAR
STARTCHAR 006D
ENCODING 109
SWIDTH 930 0
DWIDTH 31 0
BBX 29 16 1 0
BITMAP
1CFC3F00
FD0E4380
1E0781C0
1C0701C0
1C0701C0
1C0701C0
1C0701C0
1C0701C0
1C0701C0
1C0701C0
1C0701C0
1C0701C0
1C0701C0
1C0701C0
3C0F83E0
FFBFEFF8
ENDCHAR
STARTCHAR 006E
ENCODING 110
SWIDTH 660 0
DWIDTH 22 0
BBX 21 16 1 0
BITMAP
1CFE00
FD0380
1E01C0
1C01C0
1C01C0
1C01C0
1C01C0
1C01C0
1C01C0
1C01C0
1C01C0
1C01C0
1C01C0
1C01C0
3E03E0
FF8FF8
ENDCHAR
STARTCHAR 006F
ENCODING 111
SWIDTH 540 0
DWIDTH 18 0
BBX 16 16 1 0
BITMAP
07E0
1C38
381C
700E
700E
E007
E007
E007
E007
E007
E007
600E
700E
381C
1C38
07E0
ENDCHAR
STARTCHAR 0070
ENCODING 112
SWIDTH 600 0
DWIDTH 20 0
BBX 18 23 1 -7
BITMAP
1CFC00
FD0700
1E0300
1C0380
1C01C0
1C01C0
1C01C0
1C01C0
1C01C0
1C01C0
1C01C0
1C0380
1C0380
1E0700
1D0E00
1CFC00
1C0000
1C0000
1C0000
1C0000
1C0000
1C0000
FF8000
ENDCHAR
STARTCHAR 0071
ENCODING 113
SWIDTH 570 0
DWIDTH 19 0
BBX 18 23 1 -7
BITMAP
07C600
1C3600
381E00
700E00
700E00
E00E00
E00E00
E00E00
E00E00
E00E00
E00E00
700E00
700E00
381E00
1C2E00
0FCE00
000E00
000E00
000E00
000E00
000E00
000F00
007FC0
ENDCHAR
STARTCHAR 0072
ENCODING 114
SWIDTH 450 0
DWIDTH 15 0
BBX 14 16 1 0
BITMAP
1CF8
FD3C
1E1C
1C0C
1C00
1C00
1C00
1C00
1C00
1C00
1C00
1C00
1C00
1C00
3E00
FF80
ENDCHAR
STARTCHAR 0073
ENCODING 115
SWIDTH 510 0
DWIDTH 17 0
BBX 14 16 2 0
BITMAP
1FB0
70F0
E030
E018
F008
FC00
7F80
1FE0
03F8
007C
803C
C01C
601C
7018
7830
27E0
ENDCHAR
STARTCHAR 0074
ENCODING 116
SWIDTH 390 0
DWIDTH 13 0
BBX 12 21 1 0
BITMAP
0400
0400
0C00
1C00
3C00
FFE0
1C00
1C00
1C00
1C00
1C00
1C00
1C00
1C00
1C00
1C00
1C00
1C00
1C10
0E30
07C0
ENDCHAR
STARTCHAR 0075
ENCODING 117
SWIDTH 660 0
DWIDTH 22 0
BBX 21 16 1 0
BITMAP
FC0FC0
3C03C0
1C01C0
1C01C0
1C01C0
1C01C0
1C01C0
1C01C0
1C01C0
1C01C0
1C01C0
1C01C0
1C01C0
1C03C0
0E05E0
03F9F8
ENDCHAR
STARTCHAR 0076
ENCODING 118
SWIDTH 540 0
DWIDTH 18 0
BBX 18 16 0 0
BITMAP
FF1FC0
3C0700
3C0700
1C0600
1C0600
0E0C00
0E0C00
0E0C00
071800
071800
07B800
03B000
03B000
01E000
01E000
01E000
ENDCHAR
STARTCHAR 0077
ENCODING 119
SWIDTH 780 0
DWIDTH 26 0
BBX 25 16 0 0
BITMAP
FE7F3F80
783C0600
381C0600
381C0400
1C0E0400
1C1E0800
1C1E0800
0E270800
0E271000
0E271000
0743A000
0743A000
0743A000
0381C000
0381C000
0381C000
ENDCHAR
STARTCHAR 0078
ENCODING 120
SWIDTH 540 0
DWIDTH 18 0
BBX 18 16 0 0
BITMAP
7F1F80
3C0700
1C0E00
0E0C00
071800
03B000
03E000
01C000
01E000
037000
063800
0C1C00
0C1C00
180E00
380F00
FC3FC0
ENDCHAR
STARTCHAR 0079
ENCODING 121
SWIDTH 540 0
DWIDTH 18 0
BBX 17 23 0 -7
BITMAP
FF0F80
3C0200
3C0200
1C0400
1C0400
0E0400
0E0800
070800
071000
071000
039000
03A000
01E000
01C000
00C000
00C000
008000
008000
010000
010000
C20000
E20000
7C0000
ENDCHAR
STARTCHAR 007A
ENCODING 122
SWIDTH 480 0
DWIDTH 16 0
BBX 15 16 1 0
BITMAP
3FFE
781C
603C
C038
8070
00E0
01C0
0380
0780
0700
0E02
1C06
3804
700C
F03C
FFF8
ENDCHAR
STARTCHAR 007B
ENCODING 123
SWIDTH 270 0
DWIDTH 9 0
BBX 10 30 1 -8
BITMAP
00C0
0300
0600
0C00
1C00
1C00
1C00
1E00
1E00
0E00
0E00
0C00
1800
3000
C000
7000
1800
0C00
0E00
0E00
0E00
1E00
1E00
1C00
1C00
1C00
0C00
0600
0300
00C0
ENDCHAR
STARTCHAR 007C
ENCODING 124
SWIDTH 600 0
DWIDTH 20 0
BBX 3 31 8 -8
BITMAP
E0
E0
E0
E0
E0
E0
E0
E0
E0
E0
E0
E0
E0
E0
E0
E0
E0
E0
E0
E0
E0
E0
E0
E0
E0
E0
E0
E0
E0
E0
E0
ENDCHAR
STARTCHAR 007D
ENCODING 125
SWIDTH 270 0
DWIDTH 9 0
BBX 10 30 0 -8
BITMAP
C000
3000
1800
0C00
0E00
0E00
0E00
1E00
1E00
1C00
1C00
0C00
0600
0300
00C0
0380
0600
0C00
1C00
1C00
1C00
1E00
1E00
0E00
0E00
0E00
0C00
1800
3000
C000
ENDCHAR
STARTCHAR 007E
ENCODING 126
SWIDTH 600 0
DWIDTH 20 0
BBX 15 3 3 9
BITMAP
3E06
638C
C0F8
ENDCHAR
STARTCHAR 00A0
ENCODING 160
SWIDTH 330 0
DWIDTH 11 0
BBX 1 1 0 0
BITMAP
00
ENDCHAR
STARTCHAR 00A1
ENCODING 161
SWIDTH 300 0
DWIDTH 10 0
BBX 4 23 3 -7
BITMAP
60
F0
F0
60
00
00
20
20
20
20
60
60
60
70
70
70
70
F0
F0
F0
F0
F0
60
ENDCHAR
STARTCHAR 00A2
ENCODING 162
SWIDTH 600 0
DWIDTH 20 0
BBX 15 23 3 0
BITMAP
0180
0180
0180
0180
07E0
1DBC
319E
718E
618E
E180
E180
E180
E180
E180
7182
798E
3D9C
1FF8
07E0
0180
0180
0180
0180
ENDCHAR
STARTCHAR 00A3
ENCODING 163
SWIDTH 600 0
DWIDTH 20 0
BBX 20 22 0 0
BITMAP
007E00
01C180
0380C0
030040
070060
070060
070000
070000
078000
7FFE00
01C000
01C000
00E000
00E000
006010
3E6010
61E030
C0E020
C07860
C0FFE0
611FC0
3E0F80
ENDCHAR
STARTCHAR 00A4
ENCODING 164
SWIDTH 600 0
DWIDTH 20 0
BBX 16 17 2 3
BITMAP
6003
73E7
3E3E
1C1C
380E
380E
7007
7007
7007
7007
7007
300E
380E
1C1C
3E3E
73E7
C003
ENDCHAR
STARTCHAR 00A5
ENCODING 165
SWIDTH 600 0
DWIDTH 20 0
BBX 20 22 0 0
BITMAP
FF07F0
3801C0
180180
0E0300
0E0300
070600
070600
070C00
039C00
039800
01F000
01F000
7FFFC0
00E000
00E000
7FFFC0
00E000
00E000
00E000
00E000
00E000
07FC00
ENDCHAR
STARTCHAR 00A6
ENCODING 166
SWIDTH 600 0
DWIDTH 20 0
BBX 3 31 8 -8
BITMAP
E0
E0
E0
E0
E0
E0
E0
E0
E0
E0
E0
E0
E0
E0
80
00
20
E0
E0
E0
E0
E0
E0
E0
E0
E0
E0
E0
E0
E0
E0
ENDCHAR
STARTCHAR 00A7
ENCODING 167
SWIDTH 510 0
DWIDTH 17 0
BBX 15 28 1 -6
BITMAP
0FF0
383C
601E
E00E
E000
F800
FF00
7FE0
3FF8
10FC
203E
601E
E00E
E00E
F00E
F80C
7F98
7FF0
1FF8
07FC
007E
401E
E00E
E00E
E00C
701C
3838
0FE0
ENDCHAR
STARTCHAR 00A8
ENCODING 168
SWIDTH 420 0
DWIDTH 14 0
BBX 10 4 2 18
BITMAP
6180
F3C0
F3C0
6180
ENDCHAR
STARTCHAR 00A9
ENCODING 169
SWIDTH 720 0
DWIDTH 24 0
BBX 23 22 1 0
BITMAP
00FE00
030180
0C0060
180030
307E58
21C1C8
4300C4
470044
860002
8E0002
8E0002
8E0002
8E0002
8E0002
470004
4300C4
21C188
207E18
100030
0C0060
030180
00FE00
ENDCHAR
STARTCHAR 00AA
ENCODING 170
SWIDTH 420 0
DWIDTH 14 0
BBX 13 10 2 13
BITMAP
1F80
31E0
70E0
60E0
0FE0
78E0
E0E0
E0E0
E3E0
3E38
ENDCHAR
STARTCHAR 00AB
ENCODING 171
SWIDTH 360 0
DWIDTH 12 0
BBX 8 12 2 2
BITMAP
11
33
22
66
66
CC
CC
66
66
22
33
11
ENDCHAR
STARTCHAR 00AC
ENCODING 172
SWIDTH 600 0
DWIDTH 20 0
BBX 16 12 2 0
BITMAP
FFFF
FFFF
0003
0003
0003
0003
0003
0003
0003
0003
0003
0003
ENDCHAR
STARTCHAR 00AD
ENCODING 173
SWIDTH 390 0
DWIDTH 13 0
BBX 9 2 2 7
BITMAP
FF80
FF80
ENDCHAR
STARTCHAR 00AE
ENCODING 174
SWIDTH 720 0
DWIDTH 24 0
BBX 23 22 1 0
BITMAP
00FE00
030180
0C0060
180030
37FC18
21CE08
41C704
41C704
81C702
81C702
81CE02
81F802
81D802
81D802
41CC04
41C604
21C308
27F398
100030
0C0060
030180
00FE00
ENDCHAR
STARTCHAR 00AF
ENCODING 175
SWIDTH 510 0
DWIDTH 17 0
BBX 17 1 0 24
BITMAP
FFFF80
ENDCHAR
STARTCHAR 00B0
ENCODING 176
SWIDTH 390 0
DWIDTH 13 0
BBX 8 7 2 15
BITMAP
3C
66
C3
C3
C3
66
3C
ENDCHAR
STARTCHAR 00B1
ENCODING 177
SWIDTH 540 0
DWIDTH 18 0
BBX 16 19 1 2
BITMAP
0180
0180
0180
0180
0180
0180
0180
FFFF
FFFF
0180
0180
0180
0180
0180
0180
0180
0000
FFFF
FFFF
ENDCHAR
STARTCHAR 00B2
ENCODING 178
SWIDTH 360 0
DWIDTH 12 0
BBX 10 13 0 10
BITMAP
1F00
6380
81C0
81C0
81C0
03C0
0380
0700
1E00
3800
6040
FFC0
0080
ENDCHAR
STARTCHAR 00B3
ENCODING 179
SWIDTH 360 0
DWIDTH 12 0
BBX 10 12 1 11
BITMAP
1E00
2780
4380
0380
0300
0C00
0380
01C0
C1C0
C1C0
6380
3F00
ENDCHAR
STARTCHAR 00B4
ENCODING 180
SWIDTH 330 0
DWIDTH 11 0
BBX 7 4 2 18
BITMAP
0E
3E
7C
C0
ENDCHAR
STARTCHAR 00B5
ENCODING 181
SWIDTH 570 0
DWIDTH 19 0
BBX 14 21 2 -5
BITMAP
7038
7038
7038
7038
7038
7038
7038
7038
7038
7038
7038
7038
7038
7078
78F8
5F1C
C000
C000
E000
E000
E000
ENDCHAR
STARTCHAR 00B6
ENCODING 182
SWIDTH 600 0
DWIDTH 20 0
BBX 16 29 2 -7
BITMAP
0FFF
3FCC
7FCC
7FCC
FFCC
FFCC
FFCC
FFCC
FFCC
7FCC
3FCC
0FCC
00CC
00CC
00CC
00CC
00CC
00CC
00CC
00CC
00CC
00CC
00CC
00CC
00CC
00CC
00CC
00CC
00CC
ENDCHAR
STARTCHAR 00B7
ENCODING 183
SWIDTH 270 0
DWIDTH 9 0
BBX 4 4 2 10
BITMAP
60
F0
F0
60
ENDCHAR
STARTCHAR 00B8
ENCODING 184
SWIDTH 330 0
DWIDTH 11 0
BBX 6 6 2 -6
BITMAP
20
78
0C
0C
0C
F8
ENDCHAR
STARTCHAR 00B9
ENCODING 185
SWIDTH 360 0
DWIDTH 12 0
BBX 7 12 3 11
BITMAP
18
F8
38
38
38
38
38
38
38
38
38
FE
ENDCHAR
STARTCHAR 00BA
ENCODING 186
SWIDTH 420 0
DWIDTH 14 0
BBX 11 10 1 13
BITMAP
1F00
71C0
60C0
E0E0
E0E0
E0E0
E0E0
60C0
71C0
1F00
ENDCHAR
STARTCHAR 00BB
ENCODING 187
SWIDTH 360 0
DWIDTH 12 0
BBX 8 12 2 2
BITMAP
88
CC
44
66
66
33
33
66
66
44
CC
88
ENDCHAR
STARTCHAR 00BC
ENCODING 188
SWIDTH 930 0
DWIDTH 31 0
BBX 26 23 4 0
BITMAP
18000000
F8003000
38006000
38006000
3800C000
38018000
38038000
38030000
38060000
380C0000
380C0000
FE180700
00300F00
00601700
00602700
00C06700
01808700
03810700
0301FFC0
06000700
0C000700
0C000700
18000700
ENDCHAR
STARTCHAR 00BD
ENCODING 189
SWIDTH 930 0
DWIDTH 31 0
BBX 24 24 4 -1
BITMAP
180000
F80030
380060
380060
3800C0
380180
380380
380300
380600
380C00
380C00
FE187C
00318E
006207
006207
00C207
01800F
03800E
03001C
060078
0C00E0
0C0181
1803FF
000002
ENDCHAR
STARTCHAR 00BE
ENCODING 190
SWIDTH 930 0
DWIDTH 31 0
BBX 28 23 2 0
BITMAP
1E000000
27800600
43800C00
03800C00
03001800
0C003000
03807000
01C06000
C1C0C000
C1C18000
63818000
3F0301C0
000603C0
000C05C0
000C09C0
001819C0
003021C0
007041C0
00607FF0
00C001C0
018001C0
018001C0
030001C0
ENDCHAR
STARTCHAR 00BF
ENCODING 191
SWIDTH 540 0
DWIDTH 18 0
BBX 15 23 1 -7
BITMAP
0060
00F0
00F0
0060
0000
0000
0060
0060
0060
07E0
1FE0
3FE0
7C00
F800
F000
E000
E000
E000
600E
700E
381E
1C3C
07F0
ENDCHAR
STARTCHAR 00C0
ENCODING 192
SWIDTH 660 0
DWIDTH 22 0
BBX 22 28 0 0
BITMAP
00E000
00F800
007C00
000600
000000
000000
007800
007800
007800
00DC00
00DC00
00DC00
018E00
018E00
030F00
030700
030700
060380
060380
07FF80
0C01C0
0C01C0
1C01C0
1800E0
1800E0
3000E0
3800F0
FE03FC
ENDCHAR
STARTCHAR 00C1
ENCODING 193
SWIDTH 660 0
DWIDTH 22 0
BBX 22 28 0 0
BITMAP
000E00
003E00
007C00
00C000
000000
000000
007800
007800
007800
00DC00
00DC00
00DC00
018E00
018E00
030F00
030700
030700
060380
060380
07FF80
0C01C0
0C01C0
1C01C0
1800E0
1800E0
3000E0
3800F0
FE03FC
ENDCHAR
STARTCHAR 00C2
ENCODING 194
SWIDTH 660 0
DWIDTH 22 0
BBX 22 28 0 0
BITMAP
001000
006C00
00C600
010100
000000
000000
007800
007800
007800
00DC00
00DC00
00DC00
018E00
018E00
030F00
030700
030700
060380
060380
07FF80
0C01C0
0C01C0
1C01C0
1800E0
1800E0
3000E0
3800F0
FE03FC
ENDCHAR
STARTCHAR 00C3
ENCODING 195
SWIDTH 660 0
DWIDTH 22 0
BBX 22 26 0 0
BITMAP
01E100
021E00
000000
000000
007800
007800
007800
00DC00
00DC00
00DC00
018E00
018E00
030F00
030700
030700
060380
060380
07FF80
0C01C0
0C01C0
1C01C0
1800E0
1800E0
3000E0
3800F0
FE03FC
ENDCHAR
STARTCHAR 00C4
ENCODING 196
SWIDTH 660 0
DWIDTH 22 0
BBX 22 28 0 0
BITMAP
018600
03CF00
03CF00
018600
000000
000000
007800
007800
007800
00DC00
00DC00
00DC00
018E00
018E00
030F00
030700
030700
060380
060380
07FF80
0C01C0
0C01C0
1C01C0
1800E0
1800E0
3000E0
3800F0
FE03FC
ENDCHAR
STARTCHAR 00C5
ENCODING 197
SWIDTH 660 0
DWIDTH 22 0
BBX 22 30 0 0
BITMAP
007800
00CC00
008400
008400
00CC00
007800
000000
000000
007800
007800
007800
00DC00
00DC00
00DC00
018E00
018E00
030F00
030700
030700
060380
060380
07FF80
0C01C0
0C01C0
1C01C0
1800E0
1800E0
3000E0
3800F0
FE03FC
ENDCHAR
STARTCHAR 00C6
ENCODING 198
SWIDTH 1260 0
DWIDTH 42 0
BBX 39 22 1 0
BITMAP
001FFFFFF0
00060E00F0
00060E0038
000C0E0018
00180E0018
00180E001C
00300E060C
00300E0600
00600E0600
00E00E0E00
00FFFFFE00
01800E0E00
01800E0600
03000E0600
07000E0606
06000E000E
0C000E000C
0C000E001C
18000E001C
38000E0038
70000E00F8
FE007FFFF8
ENDCHAR
STARTCHAR 00C7
ENCODING 199
SWIDTH 720 0
DWIDTH 24 0
BBX 22 28 2 -6
BITMAP
00FE20
0383E0
0E01F0
1C0070
380070
700030
700038
600018
E00000
E00000
E00000
E00000
E00000
E00000
700000
700008
70000C
380018
1C0030
0E00E0
078380
00FE00
002000
007800
000C00
000C00
000C00
00F800
ENDCHAR
STARTCHAR 00C8
ENCODING 200
SWIDTH 690 0
DWIDTH 23 0
BBX 21 28 1 0
BITMAP
038000
03E000
01F000
001800
000000
000000
FFFFE0
1C01E0
1C0060
1C0070
1C0030
1C0038
1C0C18
1C0C00
1C0C00
1C1C00
1FFC00
1C1C00
1C0C00
1C0C00
1C0C10
1C0018
1C0018
1C0030
1C0070
1C00F0
1C01E0
FFFFE0
ENDCHAR
STARTCHAR 00C9
ENCODING 201
SWIDTH 690 0
DWIDTH 23 0
BBX 21 28 1 0
BITMAP
001C00
007C00
00F800
018000
000000
000000
FFFFE0
1C01E0
1C0060
1C0070
1C0030
1C0038
1C0C18
1C0C00
1C0C00
1C1C00
1FFC00
1C1C00
1C0C00
1C0C00
1C0C10
1C0018
1C0018
1C0030
1C0070
1C00F0
1C01E0
FFFFE0
ENDCHAR
STARTCHAR 00CA
ENCODING 202
SWIDTH 690 0
DWIDTH 23 0
BBX 21 28 1 0
BITMAP
002000
00D800
018C00
020200
000000
000000
FFFFE0
1C01E0
1C0060
1C0070
1C0030
1C0038
1C0C18
1C0C00
1C0C00
1C1C00
1FFC00
1C1C00
1C0C00
1C0C00
1C0C10
1C0018
1C0018
1C0030
1C0070
1C00F0
1C01E0
FFFFE0
ENDCHAR
STARTCHAR 00CB
ENCODING 203
SWIDTH 690 0
DWIDTH 23 0
BBX 21 28 1 0
BITMAP
030C00
079E00
079E00
030C00
000000
000000
FFFFE0
1C01E0
1C0060
1C0070
1C0030
1C0038
1C0C18
1C0C00
1C0C00
1C1C00
1FFC00
1C1C00
1C0C00
1C0C00
1C0C10
1C0018
1C0018
1C0030
1C0070
1C00F0
1C01E0
FFFFE0
ENDCHAR
STARTCHAR 00CC
ENCODING 204
SWIDTH 330 0
DWIDTH 11 0
BBX 9 28 1 0
BITMAP
7000
7C00
3E00
0300
0000
0000
FF80
1C00
1C00
1C00
1C00
1C00
1C00
1C00
1C00
1C00
1C00
1C00
1C00
1C00
1C00
1C00
1C00
1C00
1C00
1C00
1C00
FF80
ENDCHAR
STARTCHAR 00CD
ENCODING 205
SWIDTH 330 0
DWIDTH 11 0
BBX 9 28 1 0
BITMAP
0700
1F00
3E00
6000
0000
0000
FF80
1C00
1C00
1C00
1C00
1C00
1C00
1C00
1C00
1C00
1C00
1C00
1C00
1C00
1C00
1C00
1C00
1C00
1C00
1C00
1C00
FF80
ENDCHAR
STARTCHAR 00CE
ENCODING 206
SWIDTH 330 0
DWIDTH 11 0
BBX 9 28 1 0
BITMAP
0800
3600
6300
8080
0000
0000
FF80
1C00
1C00
1C00
1C00
1C00
1C00
1C00
1C00
1C00
1C00
1C00
1C00
1C00
1C00
1C00
1C00
1C00
1C00
1C00
1C00
FF80
ENDCHAR
STARTCHAR 00CF
ENCODING 207
SWIDTH 330 0
DWIDTH 11 0
BBX 10 28 0 0
BITMAP
6180
F3C0
F3C0
6180
0000
0000
7FC0
0E00
0E00
0E00
0E00
0E00
0E00
0E00
0E00
0E00
0E00
0E00
0E00
0E00
0E00
0E00
0E00
0E00
0E00
0E00
0E00
7FC0
ENDCHAR
STARTCHAR 00D0
ENCODING 208
SWIDTH 780 0
DWIDTH 26 0
BBX 23 22 1 0
BITMAP
FFFF00
1C03C0
1C00E0
1C0070
1C0038
1C001C
1C001C
1C000C
1C000E
1C000E
1C000E
FFF80E
1C000E
1C000E
1C000E
1C001C
1C001C
1C0038
1C0030
1C0060
1C01C0
FFFF00
ENDCHAR
STARTCHAR 00D1
ENCODING 209
SWIDTH 720 0
DWIDTH 24 0
BBX 22 26 1 0
BITMAP
01E100
021E00
000000
000000
FE03FC
1F00F0
1F0060
1B8060
1B8060
19C060
18E060
18E060
187060
187860
183860
181C60
181C60
180E60
180F60
180760
1803E0
1803E0
1801E0
1801E0
1800E0
FF0060
ENDCHAR
STARTCHAR 00D2
ENCODING 210
SWIDTH 780 0
DWIDTH 26 0
BBX 22 28 2 0
BITMAP
00E000
00F800
007C00
000600
000000
000000
00FE00
070380
0E00C0
180060
380070
700038
700038
E0001C
E0001C
E0001C
E0001C
E0001C
E0001C
E0001C
E0003C
700038
700038
380070
1800E0
0C01C0
070380
01FE00
ENDCHAR
STARTCHAR 00D3
ENCODING 211
SWIDTH 780 0
DWIDTH 26 0
BBX 22 28 2 0
BITMAP
000E00
003E00
007C00
00C000
000000
000000
00FE00
070380
0E00C0
180060
380070
700038
700038
E0001C
E0001C
E0001C
E0001C
E0001C
E0001C
E0001C
E0003C
700038
700038
380070
1800E0
0C01C0
070380
01FE00
ENDCHAR
STARTCHAR 00D4
ENCODING 212
SWIDTH 780 0
DWIDTH 26 0
BBX 22 28 2 0
BITMAP
001000
006C00
00C600
010100
000000
000000
00FE00
070380
0E00C0
180060
380070
700038
700038
E0001C
E0001C
E0001C
E0001C
E0001C
E0001C
E0001C
E0003C
700038
700038
380070
1800E0
0C01C0
070380
01FE00
ENDCHAR
STARTCHAR 00D5
ENCODING 213
SWIDTH 780 0
DWIDTH 26 0
BBX 22 26 2 0
BITMAP
01E100
021E00
000000
000000
00FE00
070380
0E00C0
180060
380070
700038
700038
E0001C
E0001C
E0001C
E0001C
E0001C
E0001C
E0001C
E0003C
700038
700038
380070
1800E0
0C01C0
070380
01FE00
ENDCHAR
STARTCHAR 00D6
ENCODING 214
SWIDTH 780 0
DWIDTH 26 0
BBX 22 28 2 0
BITMAP
018600
03CF00
03CF00
018600
000000
000000
00FE00
070380
0E00C0
180060
380070
700038
700038
E0001C
E0001C
E0001C
E0001C
E0001C
E0001C
E0001C
E0003C
700038
700038
380070
1800E0
0C01C0
070380
01FE00
ENDCHAR
STARTCHAR 00D7
ENCODING 215
SWIDTH 600 0
DWIDTH 20 0
BBX 14 13 3 4
BITMAP
4008
E01C
3038
1860
0CC0
0780
0300
0FC0
1CE0
3870
7038
E01C
4008
ENDCHAR
STARTCHAR 00D8
ENCODING 216
SWIDTH 780 0
DWIDTH 26 0
BBX 22 22 2 0
BITMAP
00FF0C
0381C8
0E00F0
1C0070
380078
3000B8
700138
60021C
E0041C
E0081C
E0101C
E0201C
E0601C
E0401C
E08038
710038
720038
3C0070
3C00E0
1E01C0
270380
41FC00
ENDCHAR
STARTCHAR 00D9
ENCODING 217
SWIDTH 780 0
DWIDTH 26 0
BBX 24 28 1 0
BITMAP
00E000
00F800
007C00
000600
000000
000000
FF80FF
1C0018
1C0018
1C0018
1C0018
1C0018
1C0018
1C0018
1C0018
1C0018
1C0018
1C0018
1C0018
1C0018
1C0018
1C0018
1C0018
0E0030
0E0030
070060
03C180
007E00
ENDCHAR
STARTCHAR 00DA
ENCODING 218
SWIDTH 780 0
DWIDTH 26 0
BBX 24 28 1 0
BITMAP
000700
001F00
003E00
006000
000000
000000
FF80FF
1C0018
1C0018
1C0018
1C0018
1C0018
1C0018
1C0018
1C0018
1C0018
1C0018
1C0018
1C0018
1C0018
1C0018
1C0018
1C0018
0E0030
0E0030
070060
03C180
007E00
ENDCHAR
STARTCHAR 00DB
ENCODING 219
SWIDTH 780 0
DWIDTH 26 0
BBX 24 28 1 0
BITMAP
000800
003600
006300
008080
000000
000000
FF80FF
1C0018
1C0018
1C0018
1C0018
1C0018
1C0018
1C0018
1C0018
1C0018
1C0018
1C0018
1C0018
1C0018
1C0018
1C0018
1C0018
0E0030
0E0030
070060
03C180
007E00
ENDCHAR
STARTCHAR 00DC
ENCODING 220
SWIDTH 780 0
DWIDTH 26 0
BBX 24 28 1 0
BITMAP
006180
00F3C0
00F3C0
006180
000000
000000
FF80FF
1C0018
1C0018
1C0018
1C0018
1C0018
1C0018
1C0018
1C0018
1C0018
1C0018
1C0018
1C0018
1C0018
1C0018
1C0018
1C0018
0E0030
0E0030
070060
03C180
007E00
ENDCHAR
STARTCHAR 00DD
ENCODING 221
SWIDTH 630 0
DWIDTH 21 0
BBX 21 28 0 0
BITMAP
001C00
007C00
00F800
018000
000000
000000
FF03F8
3C00E0
1C00C0
1C00C0
0E0180
0E0380
070300
038600
038600
01CC00
01D800
00F800
007000
007000
007000
007000
007000
007000
007000
007000
007000
03FE00
ENDCHAR
STARTCHAR 00DE
ENCODING 222
SWIDTH 600 0
DWIDTH 20 0
BBX 19 22 1 0
BITMAP
FF8000
1C0000
1C0000
1C0000
1C0000
1FFE00
1C0780
1C01C0
1C01C0
1C00E0
1C00E0
1C00E0
1C00E0
1C01C0
1C01C0
1C0780
1FFE00
1C0000
1C0000
1C0000
1C0000
FF8000
ENDCHAR
STARTCHAR 00DF
ENCODING 223
SWIDTH 660 0
DWIDTH 22 0
BBX 20 23 1 0
BITMAP
01F800
070E00
0E0F00
1C0700
1C0700
1C1E00
1C7000
FCE000
1CE000
1CF000
1CF800
1C7F00
1C1F80
1C07E0
1C01E0
1C00F0
1C0070
1C0070
1D8070
1DC060
1DE0E0
3CE1C0
FC3F00
ENDCHAR
STARTCHAR 00E0
ENCODING 224
SWIDTH 570 0
DWIDTH 19 0
BBX 19 23 1 0
BITMAP
070000
07C000
03E000
003000
000000
000000
000000
07F000
1C3C00
381C00
700E00
700E00
700E00
000E00
00FE00
1F8E00
780E00
F00E00
E00E00
E00E00
E03E00
70EF00
3F87E0
ENDCHAR
STARTCHAR 00E1
ENCODING 225
SWIDTH 570 0
DWIDTH 19 0
BBX 19 23 1 0
BITMAP
007000
01F000
03E000
060000
000000
000000
000000
07F000
1C3C00
381C00
700E00
700E00
700E00
000E00
00FE00
1F8E00
780E00
F00E00
E00E00
E00E00
E03E00
70EF00
3F87E0
ENDCHAR
STARTCHAR 00E2
ENCODING 226
SWIDTH 570 0
DWIDTH 19 0
BBX 19 23 1 0
BITMAP
008000
036000
063000
080800
000000
000000
000000
07F000
1C3C00
381C00
700E00
700E00
700E00
000E00
00FE00
1F8E00
780E00
F00E00
E00E00
E00E00
E03E00
70EF00
3F87E0
ENDCHAR
STARTCHAR 00E3
ENCODING 227
SWIDTH 570 0
DWIDTH 19 0
BBX 19 21 1 0
BITMAP
0F0800
10F000
000000
000000
000000
07F000
1C3C00
381C00
700E00
700E00
700E00
000E00
00FE00
1F8E00
780E00
F00E00
E00E00
E00E00
E03E00
70EF00
3F87E0
ENDCHAR
STARTCHAR 00E4
ENCODING 228
SWIDTH 570 0
DWIDTH 19 0
BBX 19 23 1 0
BITMAP
0C3000
1E7800
1E7800
0C3000
000000
000000
000000
07F000
1C3C00
381C00
700E00
700E00
700E00
000E00
00FE00
1F8E00
780E00
F00E00
E00E00
E00E00
E03E00
70EF00
3F87E0
ENDCHAR
STARTCHAR 00E5
ENCODING 229
SWIDTH 570 0
DWIDTH 19 0
BBX 19 25 1 0
BITMAP
03C000
066000
042000
042000
066000
03C000
000000
000000
000000
07F000
1C3C00
381C00
700E00
700E00
700E00
000E00
00FE00
1F8E00
780E00
F00E00
E00E00
E00E00
E03E00
70EF00
3F87E0
ENDCHAR
STARTCHAR 00E6
ENCODING 230
SWIDTH 840 0
DWIDTH 28 0
BBX 26 16 1 0
BITMAP
07F07C00
1C3DC700
381F0380
700F0180
700E01C0
700FFFC0
000E0000
00FE0000
1F8E0000
780E0000
F00E0000
E00F0040
E00F00C0
E03F8180
70E3C300
3F00FC00
ENDCHAR
STARTCHAR 00E7
ENCODING 231
SWIDTH 510 0
DWIDTH 17 0
BBX 15 22 1 -6
BITMAP
07F0
1C3C
381E
700E
700E
E000
E000
E000
E000
E000
E000
7002
7006
380C
1C30
07E0
0100
03C0
0060
0060
0060
07C0
ENDCHAR
STARTCHAR 00E8
ENCODING 232
SWIDTH 510 0
DWIDTH 17 0
BBX 15 23 1 0
BITMAP
0700
07C0
03E0
0030
0000
0000
0000
07E0
1C38
381C
700C
600E
FFFE
E000
E000
E000
E000
E000
7002
7006
380C
1C38
07E0
ENDCHAR
STARTCHAR 00E9
ENCODING 233
SWIDTH 510 0
DWIDTH 17 0
BBX 15 23 1 0
BITMAP
0070
01F0
03E0
0600
0000
0000
0000
07E0
1C38
381C
700C
600E
FFFE
E000
E000
E000
E000
E000
7002
7006
380C
1C38
07E0
ENDCHAR
STARTCHAR 00EA
ENCODING 234
SWIDTH 510 0
DWIDTH 17 0
BBX 15 23 1 0
BITMAP
0080
0360
0630
0808
0000
0000
0000
07E0
1C38
381C
700C
600E
FFFE
E000
E000
E000
E000
E000
7002
7006
380C
1C38
07E0
ENDCHAR
STARTCHAR 00EB
ENCODING 235
SWIDTH 510 0
DWIDTH 17 0
BBX 15 23 1 0
BITMAP
0C30
1E78
1E78
0C30
0000
0000
0000
07E0
1C38
381C
700C
600E
FFFE
E000
E000
E000
E000
E000
7002
7006
380C
1C38
07E0
ENDCHAR
STARTCHAR 00EC
ENCODING 236
SWIDTH 300 0
DWIDTH 10 0
BBX 9 23 1 0
BITMAP
7000
7C00
3E00
0300
0000
0000
0000
1C00
FC00
1C00
1C00
1C00
1C00
1C00
1C00
1C00
1C00
1C00
1C00
1C00
1C00
3E00
FF80
ENDCHAR
STARTCHAR 00ED
ENCODING 237
SWIDTH 300 0
DWIDTH 10 0
BBX 9 23 1 0
BITMAP
0700
1F00
3E00
6000
0000
0000
0000
1C00
FC00
1C00
1C00
1C00
1C00
1C00
1C00
1C00
1C00
1C00
1C00
1C00
1C00
3E00
FF80
ENDCHAR
STARTCHAR 00EE
ENCODING 238
SWIDTH 300 0
DWIDTH 10 0
BBX 9 23 1 0
BITMAP
0800
3600
6300
8080
0000
0000
0000
1C00
FC00
1C00
1C00
1C00
1C00
1C00
1C00
1C00
1C00
1C00
1C00
1C00
1C00
3E00
FF80
ENDCHAR
STARTCHAR 00EF
ENCODING 239
SWIDTH 300 0
DWIDTH 10 0
BBX 10 23 1 0
BITMAP
6180
F3C0
F3C0
6180
0000
0000
0000
1C00
FC00
1C00
1C00
1C00
1C00
1C00
1C00
1C00
1C00
1C00
1C00
1C00
1C00
3E00
FF80
ENDCHAR
STARTCHAR 00F0
ENCODING 240
SWIDTH 540 0
DWIDTH 18 0
BBX 16 23 1 0
BITMAP
0186
00F8
07F0
0830
0018
001C
000C
07EE
1C16
380E
7007
7007
E007
E007
E007
E007
E007
E006
600E
700C
381C
1C38
07E0
ENDCHAR
STARTCHAR 00F1
ENCODING 241
SWIDTH 660 0
DWIDTH 22 0
BBX 21 21 1 0
BITMAP
01E100
021E00
000000
000000
000000
1CFE00
FD0380
1E01C0
1C01C0
1C01C0
1C01C0
1C01C0
1C01C0
1C01C0
1C01C0
1C01C0
1C01C0
1C01C0
1C01C0
3E03E0
FF8FF8
ENDCHAR
STARTCHAR 00F2
ENCODING 242
SWIDTH 540 0
DWIDTH 18 0
BBX 16 23 1 0
BITMAP
0700
07C0
03E0
0030
0000
0000
0000
07E0
1C38
381C
700E
700E
E007
E007
E007
E007
E007
E007
600E
700E
381C
1C38
07E0
ENDCHAR
STARTCHAR 00F3
ENCODING 243
SWIDTH 540 0
DWIDTH 18 0
BBX 16 23 1 0
BITMAP
0070
01F0
03E0
0600
0000
0000
0000
07E0
1C38
381C
700E
700E
E007
E007
E007
E007
E007
E007
600E
700E
381C
1C38
07E0
ENDCHAR
STARTCHAR 00F4
ENCODING 244
SWIDTH 540 0
DWIDTH 18 0
BBX 16 23 1 0
BITMAP
0080
0360
0630
0808
0000
0000
0000
07E0
1C38
381C
700E
700E
E007
E007
E007
E007
E007
E007
600E
700E
381C
1C38
07E0
ENDCHAR
STARTCHAR 00F5
ENCODING 245
SWIDTH 540 0
DWIDTH 18 0
BBX 16 21 1 0
BITMAP
0F08
10F0
0000
0000
0000
07E0
1C38
381C
700E
700E
E007
E007
E007
E007
E007
E007
600E
700E
381C
1C38
07E0
ENDCHAR
STARTCHAR 00F6
ENCODING 246
SWIDTH 540 0
DWIDTH 18 0
BBX 16 23 1 0
BITMAP
0C30
1E78
1E78
0C30
0000
0000
0000
07E0
1C38
381C
700E
700E
E007
E007
E007
E007
E007
E007
600E
700E
381C
1C38
07E0
ENDCHAR
STARTCHAR 00F7
ENCODING 247
SWIDTH 540 0
DWIDTH 18 0
BBX 15 14 1 4
BITMAP
0380
0380
0380
0000
0000
0000
FFFE
FFFE
0000
0000
0000
0380
0380
0380
ENDCHAR
STARTCHAR 00F8
ENCODING 248
SWIDTH 540 0
DWIDTH 18 0
BBX 16 16 1 0
BITMAP
07E3
1C3A
380C
700E
701E
E027
E047
E087
E107
E307
E207
740E
780E
381C
3C38
47E0
ENDCHAR
STARTCHAR 00F9
ENCODING 249
SWIDTH 660 0
DWIDTH 22 0
BBX 21 23 1 0
BITMAP
01C000
01F000
00F800
000C00
000000
000000
000000
FC0FC0
3C03C0
1C01C0
1C01C0
1C01C0
1C01C0
1C01C0
1C01C0
1C01C0
1C01C0
1C01C0
1C01C0
1C01C0
1C03C0
0E05E0
03F9F8
ENDCHAR
STARTCHAR 00FA
ENCODING 250
SWIDTH 660 0
DWIDTH 22 0
BBX 21 23 1 0
BITMAP
001C00
007C00
00F800
018000
000000
000000
000000
FC0FC0
3C03C0
1C01C0
1C01C0
1C01C0
1C01C0
1C01C0
1C01C0
1C01C0
1C01C0
1C01C0
1C01C0
1C01C0
1C03C0
0E05E0
03F9F8
ENDCHAR
STARTCHAR 00FB
ENCODING 251
SWIDTH 660 0
DWIDTH 22 0
BBX 21 23 1 0
BITMAP
002000
00D800
018C00
020200
000000
000000
000000
FC0FC0
3C03C0
1C01C0
1C01C0
1C01C0
1C01C0
1C01C0
1C01C0
1C01C0
1C01C0
1C01C0
1C01C0
1C01C0
1C03C0
0E05E0
03F9F8
ENDCHAR
STARTCHAR 00FC
ENCODING 252
SWIDTH 660 0
DWIDTH 22 0
BBX 21 23 1 0
BITMAP
018600
03CF00
03CF00
018600
000000
000000
000000
FC0FC0
3C03C0
1C01C0
1C01C0
1C01C0
1C01C0
1C01C0
1C01C0
1C01C0
1C01C0
1C01C0
1C01C0
1C01C0
1C03C0
0E05E0
03F9F8
ENDCHAR
STARTCHAR 00FD
ENCODING 253
SWIDTH 540 0
DWIDTH 18 0
BBX 17 30 0 -7
BITMAP
003800
00F800
01F000
030000
000000
000000
000000
FF0F80
3C0200
3C0200
1C0400
1C0400
0E0400
0E0800
070800
071000
071000
039000
03A000
01E000
01C000
00C000
00C000
008000
008000
010000
010000
C20000
E20000
7C0000
ENDCHAR
STARTCHAR 00FE
ENCODING 254
SWIDTH 600 0
DWIDTH 20 0
BBX 18 30 1 -7
BITMAP
1C0000
FC0000
1C0000
1C0000
1C0000
1C0000
1C0000
1CFC00
1D0700
1E0300
1C0380
1C01C0
1C01C0
1C01C0
1C01C0
1C01C0
1C01C0
1C01C0
1C0380
1C0380
1E0700
1D0E00
1CFC00
1C0000
1C0000
1C0000
1C0000
1C0000
1C0000
FF8000
ENDCHAR
STARTCHAR 00FF
ENCODING 255
SWIDTH 540 0
DWIDTH 18 0
BBX 17 30 0 -7
BITMAP
030C00
079E00
079E00
030C00
000000
000000
000000
FF0F80
3C0200
3C0200
1C0400
1C0400
0E0400
0E0800
070800
071000
071000
039000
03A000
01E000
01C000
00C000
00C000
008000
008000
010000
010000
C20000
E20000
7C0000
ENDCHAR
STARTCHAR 0100
ENCODING 256
SWIDTH 660 0
DWIDTH 22 0
BBX 22 25 0 0
BITMAP
03FF00
000000
000000
007800
007800
007800
00DC00
00DC00
00DC00
018E00
018E00
030F00
030700
030700
060380
060380
07FF80
0C01C0
0C01C0
1C01C0
1800E0
1800E0
3000E0
3800F0
FE03FC
ENDCHAR
STARTCHAR 0101
ENCODING 257
SWIDTH 570 0
DWIDTH 19 0
BBX 19 20 1 0
BITMAP
1FF800
000000
000000
000000
07F000
1C3C00
381C00
700E00
700E00
700E00
000E00
00FE00
1F8E00
780E00
F00E00
E00E00
E00E00
E03E00
70EF00
3F87E0
ENDCHAR
STARTCHAR 0102
ENCODING 258
SWIDTH 660 0
DWIDTH 22 0
BBX 22 27 0 0
BITMAP
020080
018300
007C00
000000
000000
007800
007800
007800
00DC00
00DC00
00DC00
018E00
018E00
030F00
030700
030700
060380
060380
07FF80
0C01C0
0C01C0
1C01C0
1800E0
1800E0
3000E0
3800F0
FE03FC
ENDCHAR
STARTCHAR 0103
ENCODING 259
SWIDTH 570 0
DWIDTH 19 0
BBX 19 22 1 0
BITMAP
100400
0C1800
03E000
000000
000000
000000
07F000
1C3C00
381C00
700E00
700E00
700E00
000E00
00FE00
1F8E00
780E00
F00E00
E00E00
E00E00
E03E00
70EF00
3F87E0
ENDCHAR
STARTCHAR 0104
ENCODING 260
SWIDTH 660 0
DWIDTH 22 0
BBX 22 26 0 -4
BITMAP
007800
007800
007800
00DC00
00DC00
00DC00
018E00
018E00
030F00
030700
030700
060380
060380
07FF80
0C01C0
0C01C0
1C01C0
1800E0
1800E0
3000E0
3800F0
FE03FC
000060
0000C0
0000C4
000078
ENDCHAR
STARTCHAR 0105
ENCODING 261
SWIDTH 570 0
DWIDTH 19 0
BBX 19 20 1 -4
BITMAP
07F000
1C3C00
381C00
700E00
700E00
700E00
000E00
00FE00
1F8E00
780E00
F00E00
E00E00
E00E00
E03E00
70EF00
3F87E0
000300
000600
000620
0003C0
ENDCHAR
STARTCHAR 0106
ENCODING 262
SWIDTH 720 0
DWIDTH 24 0
BBX 22 28 2 0
BITMAP
000700
001F00
003E00
006000
000000
000000
00FE20
0383E0
0E01F0
1C0070
380070
700030
700038
600018
E00000
E00000
E00000
E00000
E00000
E00000
700000
700008
70000C
380018
1C0030
0E00E0
078380
00FE00
ENDCHAR
STARTCHAR 0107
ENCODING 263
SWIDTH 510 0
DWIDTH 17 0
BBX 15 23 1 0
BITMAP
0070
01F0
03E0
0600
0000
0000
0000
07F0
1C3C
381E
700E
700E
E000
E000
E000
E000
E000
E000
7002
7006
380C
1C30
07E0
ENDCHAR
STARTCHAR 0108
ENCODING 264
SWIDTH 720 0
DWIDTH 24 0
BBX 22 28 2 0
BITMAP
001000
006C00
00C600
010100
000000
000000
00FE20
0383E0
0E01F0
1C0070
380070
700030
700038
600018
E00000
E00000
E00000
E00000
E00000
E00000
700000
700008
70000C
380018
1C0030
0E00E0
078380
00FE00
ENDCHAR
STARTCHAR 0109
ENCODING 265
SWIDTH 510 0
DWIDTH 17 0
BBX 15 23 1 0
BITMAP
0100
06C0
0C60
1010
0000
0000
0000
07F0
1C3C
381E
700E
700E
E000
E000
E000
E000
E000
E000
7002
7006
380C
1C30
07E0
ENDCHAR
STARTCHAR 010A
ENCODING 266
SWIDTH 720 0
DWIDTH 24 0
BBX 22 28 2 0
BITMAP
003000
007800
007800
003000
000000
000000
00FE20
0383E0
0E01F0
1C0070
380070
700030
700038
600018
E00000
E00000
E00000
E00000
E00000
E00000
700000
700008
70000C
380018
1C0030
0E00E0
078380
00FE00
ENDCHAR
STARTCHAR 010B
ENCODING 267
SWIDTH 510 0
DWIDTH 17 0
BBX 15 23 1 0
BITMAP
0300
0780
0780
0300
0000
0000
0000
07F0
1C3C
381E
700E
700E
E000
E000
E000
E000
E000
E000
7002
7006
380C
1C30
07E0
ENDCHAR
STARTCHAR 010C
ENCODING 268
SWIDTH 720 0
DWIDTH 24 0
BBX 22 28 2 0
BITMAP
010100
00C600
006C00
001000
000000
000000
00FE20
0383E0
0E01F0
1C0070
380070
700030
700038
600018
E00000
E00000
E00000
E00000
E00000
E00000
700000
700008
70000C
380018
1C0030
0E00E0
078380
00FE00
ENDCHAR
STARTCHAR 010D
ENCODING 269
SWIDTH 510 0
DWIDTH 17 0
BBX 15 23 1 0
BITMAP
0808
0630
0360
0080
0000
0000
0000
07F0
1C3C
381E
700E
700E
E000
E000
E000
E000
E000
E000
7002
7006
380C
1C30
07E0
ENDCHAR
STARTCHAR 010E
ENCODING 270
SWIDTH 780 0
DWIDTH 26 0
BBX 23 28 1 0
BITMAP
020200
018C00
00D800
002000
000000
000000
FFFE00
1C03C0
1C00E0
1C0070
1C0038
1C001C
1C001C
1C000C
1C000E
1C000E
1C000E
1C000E
1C000E
1C000E
1C000E
1C001C
1C001C
1C0038
1C0030
1C0070
1C01C0
FFFF00
ENDCHAR
STARTCHAR 010F
ENCODING 271
SWIDTH 660 0
DWIDTH 22 0
BBX 21 23 1 0
BITMAP
000E70
007E78
000E78
000E08
000E08
000E18
000E30
07CE60
1C2E00
381E00
700E00
700E00
E00E00
E00E00
E00E00
E00E00
E00E00
E00E00
600E00
700E00
301E00
1C2F00
0FCFC0
ENDCHAR
STARTCHAR 0110
ENCODING 272
SWIDTH 780 0
DWIDTH 26 0
BBX 23 22 1 0
BITMAP
FFFF00
1C03C0
1C00E0
1C0070
1C0038
1C001C
1C001C
1C000C
1C000E
1C000E
1C000E
FFF80E
1C000E
1C000E
1C000E
1C001C
1C001C
1C0038
1C0030
1C0060
1C01C0
FFFF00
ENDCHAR
STARTCHAR 0111
ENCODING 273
SWIDTH 600 0
DWIDTH 20 0
BBX 18 23 1 0
BITMAP
000600
003E00
000E00
000E00
03FFC0
000E00
000E00
07CE00
1C2E00
381E00
700E00
700E00
E00E00
E00E00
E00E00
E00E00
E00E00
E00E00
600E00
700E00
301E00
1C2F00
0FCFC0
ENDCHAR
STARTCHAR 0112
ENCODING 274
SWIDTH 690 0
DWIDTH 23 0
BBX 21 25 1 0
BITMAP
03FF00
000000
000000
FFFFE0
1C01E0
1C0060
1C0070
1C0030
1C0038
1C0C18
1C0C00
1C0C00
1C1C00
1FFC00
1C1C00
1C0C00
1C0C00
1C0C10
1C0018
1C0018
1C0030
1C0070
1C00F0
1C01E0
FFFFE0
ENDCHAR
STARTCHAR 0113
ENCODING 275
SWIDTH 510 0
DWIDTH 17 0
BBX 15 20 1 0
BITMAP
3FF0
0000
0000
0000
07E0
1C38
381C
700C
600E
FFFE
E000
E000
E000
E000
E000
7002
7006
380C
1C38
07E0
ENDCHAR
STARTCHAR 0114
ENCODING 276
SWIDTH 690 0
DWIDTH 23 0
BBX 21 27 1 0
BITMAP
040100
030600
00F800
000000
000000
FFFFE0
1C01E0
1C0060
1C0070
1C0030
1C0038
1C0C18
1C0C00
1C0C00
1C1C00
1FFC00
1C1C00
1C0C00
1C0C00
1C0C10
1C0018
1C0018
1C0030
1C0070
1C00F0
1C01E0
FFFFE0
ENDCHAR
STARTCHAR 0115
ENCODING 277
SWIDTH 510 0
DWIDTH 17 0
BBX 15 22 1 0
BITMAP
2008
1830
07C0
0000
0000
0000
07E0
1C38
381C
700C
600E
FFFE
E000
E000
E000
E000
E000
7002
7006
380C
1C38
07E0
ENDCHAR
STARTCHAR 0116
ENCODING 278
SWIDTH 690 0
DWIDTH 23 0
BBX 21 28 1 0
BITMAP
003000
007800
007800
003000
000000
000000
FFFFE0
1C01E0
1C0060
1C0070
1C0030
1C0038
1C0C18
1C0C00
1C0C00
1C1C00
1FFC00
1C1C00
1C0C00
1C0C00
1C0C10
1C0018
1C0018
1C0030
1C0070
1C00F0
1C01E0
FFFFE0
ENDCHAR
STARTCHAR 0117
ENCODING 279
SWIDTH 510 0
DWIDTH 17 0
BBX 15 23 1 0
BITMAP
0300
0780
0780
0300
0000
0000
0000
07E0
1C38
381C
700C
600E
FFFE
E000
E000
E000
E000
E000
7002
7006
380C
1C38
07E0
ENDCHAR
STARTCHAR 0118
ENCODING 280
SWIDTH 690 0
DWIDTH 23 0
BBX 21 26 1 -4
BITMAP
FFFFE0
1C01E0
1C0060
1C0070
1C0030
1C0038
1C0C18
1C0C00
1C0C00
1C1C00
1FFC00
1C1C00
1C0C00
1C0C00
1C0C10
1C0018
1C0018
1C0030
1C0070
1C00F0
1C01E0
FFFFE0
000300
000600
000620
0003C0
ENDCHAR
STARTCHAR 0119
ENCODING 281
SWIDTH 510 0
DWIDTH 17 0
BBX 15 20 1 -4
BITMAP
07E0
1C38
381C
700C
600E
FFFE
E000
E000
E000
E000
E000
7002
7006
380C
1C38
07E0
0180
0300
0310
01E0
ENDCHAR
STARTCHAR 011A
ENCODING 282
SWIDTH 690 0
DWIDTH 23 0
BBX 21 28 1 0
BITMAP
020200
018C00
00D800
002000
000000
000000
FFFFE0
1C01E0
1C0060
1C0070
1C0030
1C0038
1C0C18
1C0C00
1C0C00
1C1C00
1FFC00
1C1C00
1C0C00
1C0C00
1C0C10
1C0018
1C0018
1C0030
1C0070
1C00F0
1C01E0
FFFFE0
ENDCHAR
STARTCHAR 011B
ENCODING 283
SWIDTH 510 0
DWIDTH 17 0
BBX 15 23 1 0
BITMAP
0808
0630
0360
0080
0000
0000
0000
07E0
1C38
381C
700C
600E
FFFE
E000
E000
E000
E000
E000
7002
7006
380C
1C38
07E0
ENDCHAR
STARTCHAR 011C
ENCODING 284
SWIDTH 780 0
DWIDTH 26 0
BBX 24 28 2 0
BITMAP
002000
00D800
018C00
020200
000000
000000
00FE20
0383F0
0E01F0
1C00F0
380070
700038
700038
600018
E00000
E00000
E00000
E001FF
E00078
E00038
F00038
700038
700038
380038
1C0078
0E0078
0781B8
01FE18
ENDCHAR
STARTCHAR 011D
ENCODING 285
SWIDTH 540 0
DWIDTH 18 0
BBX 16 30 2 -7
BITMAP
0100
06C0
0C60
1010
0000
0000
0000
0FE7
3878
7038
601C
E01C
E01C
E01C
E018
7038
3870
3FC0
6000
E000
FF00
3FF8
1FFE
303F
700F
E007
E007
E00E
781C
1FF0
ENDCHAR
STARTCHAR 011E
ENCODING 286
SWIDTH 780 0
DWIDTH 26 0
BBX 24 27 2 0
BITMAP
010040
00C180
003E00
000000
000000
00FE20
0383F0
0E01F0
1C00F0
380070
700038
700038
600018
E00000
E00000
E00000
E001FF
E00078
E00038
F00038
700038
700038
380038
1C0078
0E0078
0781B8
01FE18
ENDCHAR
STARTCHAR 011F
ENCODING 287
SWIDTH 540 0
DWIDTH 18 0
BBX 16 29 2 -7
BITMAP
2008
1830
07C0
0000
0000
0000
0FE7
3878
7038
601C
E01C
E01C
E01C
E018
7038
3870
3FC0
6000
E000
FF00
3FF8
1FFE
303F
700F
E007
E007
E00E
781C
1FF0
ENDCHAR
STARTCHAR 0120
ENCODING 288
SWIDTH 780 0
DWIDTH 26 0
BBX 24 28 2 0
BITMAP
006000
00F000
00F000
006000
000000
000000
00FE20
0383F0
0E01F0
1C00F0
380070
700038
700038
600018
E00000
E00000
E00000
E001FF
E00078
E00038
F00038
700038
700038
380038
1C0078
0E0078
0781B8
01FE18
ENDCHAR
STARTCHAR 0121
ENCODING 289
SWIDTH 540 0
DWIDTH 18 0
BBX 16 30 2 -7
BITMAP
0180
03C0
03C0
0180
0000
0000
0000
0FE7
3878
7038
601C
E01C
E01C
E01C
E018
7038
3870
3FC0
6000
E000
FF00
3FF8
1FFE
303F
700F
E007
E007
E00E
781C
1FF0
ENDCHAR
STARTCHAR 0122
ENCODING 290
SWIDTH 780 0
DWIDTH 26 0
BBX 24 28 2 -6
BITMAP
00FE20
0383F0
0E01F0
1C00F0
380070
700038
700038
600018
E00000
E00000
E00000
E001FF
E00078
E00038
F00038
700038
700038
380038
1C0078
0E0078
0781B8
01FE18
004000
00F000
001800
001800
001800
01F000
ENDCHAR
STARTCHAR 0123
ENCODING 291
SWIDTH 540 0
DWIDTH 18 0
BBX 16 32 2 -7
BITMAP
0100
0200
0400
0780
0780
0380
0000
0000
0000
0FE7
3878
7038
601C
E01C
E01C
E01C
E018
7038
3870
3FC0
6000
E000
FF00
3FF8
1FFE
303F
700F
E007
E007
E00E
781C
1FF0
ENDCHAR
STARTCHAR 0124
ENCODING 292
SWIDTH 780 0
DWIDTH 26 0
BBX 24 28 1 0
BITMAP
000800
003600
006300
008080
000000
000000
FF81FF
1C0038
1C0038
1C0038
1C0038
1C0038
1C0038
1C0038
1C0038
1C0038
1FFFF8
1C0038
1C0038
1C0038
1C0038
1C0038
1C0038
1C0038
1C0038
1C0038
1C0038
FF81FF
ENDCHAR
STARTCHAR 0125
ENCODING 293
SWIDTH 660 0
DWIDTH 22 0
BBX 21 28 1 0
BITMAP
002000
00D800
018C00
020200
000000
1C0000
FC0000
1C0000
1C0000
1C0000
1C0000
1C0000
1CFE00
1D0380
1E01C0
1C01C0
1C01C0
1C01C0
1C01C0
1C01C0
1C01C0
1C01C0
1C01C0
1C01C0
1C01C0
1C01C0
1C03E0
FF8FF8
ENDCHAR
STARTCHAR 0126
ENCODING 294
SWIDTH 780 0
DWIDTH 26 0
BBX 24 22 1 0
BITMAP
FF81FF
1E003C
1C0038
1C0038
1C0038
FFFFFF
1C0038
1C0038
1C0038
1C0038
1FFFF8
1C0038
1C0038
1C0038
1C0038
1C0038
1C0038
1C0038
1C0038
1C0038
1C0038
FF81FF
ENDCHAR
STARTCHAR 0127
ENCODING 295
SWIDTH 660 0
DWIDTH 22 0
BBX 21 23 1 0
BITMAP
1C0000
FC0000
1C0000
1C0000
FFF000
1C0000
1C0000
1C7E00
1DC380
1F01C0
1C01C0
1C01C0
1C01C0
1C01C0
1C01C0
1C01C0
1C01C0
1C01C0
1C01C0
1C01C0
1C01C0
3E03E0
FF8FF8
ENDCHAR
STARTCHAR 0128
ENCODING 296
SWIDTH 330 0
DWIDTH 11 0
BBX 10 26 1 0
BITMAP
7840
8780
0000
0000
FF80
1C00
1C00
1C00
1C00
1C00
1C00
1C00
1C00
1C00
1C00
1C00
1C00
1C00
1C00
1C00
1C00
1C00
1C00
1C00
1C00
FF80
ENDCHAR
STARTCHAR 0129
ENCODING 297
SWIDTH 300 0
DWIDTH 10 0
BBX 10 21 0 0
BITMAP
7840
8780
0000
0000
0000
0E00
7E00
0E00
0E00
0E00
0E00
0E00
0E00
0E00
0E00
0E00
0E00
0E00
0E00
1F00
7FC0
ENDCHAR
STARTCHAR 012A
ENCODING 298
SWIDTH 330 0
DWIDTH 11 0
BBX 10 25 1 0
BITMAP
FFC0
0000
0000
FF80
1C00
1C00
1C00
1C00
1C00
1C00
1C00
1C00
1C00
1C00
1C00
1C00
1C00
1C00
1C00
1C00
1C00
1C00
1C00
1C00
FF80
ENDCHAR
STARTCHAR 012B
ENCODING 299
SWIDTH 300 0
DWIDTH 10 0
BBX 10 20 0 0
BITMAP
FFC0
0000
0000
0000
0E00
7E00
0E00
0E00
0E00
0E00
0E00
0E00
0E00
0E00
0E00
0E00
0E00
0E00
1F00
7FC0
ENDCHAR
STARTCHAR 012C
ENCODING 300
SWIDTH 330 0
DWIDTH 11 0
BBX 11 27 0 0
BITMAP
8020
60C0
1F00
0000
0000
7FC0
0E00
0E00
0E00
0E00
0E00
0E00
0E00
0E00
0E00
0E00
0E00
0E00
0E00
0E00
0E00
0E00
0E00
0E00
0E00
0E00
7FC0
ENDCHAR
STARTCHAR 012D
ENCODING 301
SWIDTH 300 0
DWIDTH 10 0
BBX 11 22 0 0
BITMAP
8020
60C0
1F00
0000
0000
0000
0E00
7E00
0E00
0E00
0E00
0E00
0E00
0E00
0E00
0E00
0E00
0E00
0E00
0E00
1F00
7FC0
ENDCHAR
STARTCHAR 012E
ENCODING 302
SWIDTH 330 0
DWIDTH 11 0
BBX 9 26 1 -4
BITMAP
FF80
1C00
1C00
1C00
1C00
1C00
1C00
1C00
1C00
1C00
1C00
1C00
1C00
1C00
1C00
1C00
1C00
1C00
1C00
1C00
1C00
FF80
1800
3000
3100
1E00
ENDCHAR
STARTCHAR 012F
ENCODING 303
SWIDTH 300 0
DWIDTH 10 0
BBX 9 27 1 -4
BITMAP
1800
3C00
3C00
1800
0000
0000
0000
1C00
FC00
1C00
1C00
1C00
1C00
1C00
1C00
1C00
1C00
1C00
1C00
1C00
1C00
3C00
FF80
1800
3000
3100
1E00
ENDCHAR
STARTCHAR 0130
ENCODING 304
SWIDTH 330 0
DWIDTH 11 0
BBX 9 28 1 0
BITMAP
0C00
1E00
1E00
0C00
0000
0000
FF80
1C00
1C00
1C00
1C00
1C00
1C00
1C00
1C00
1C00
1C00
1C00
1C00
1C00
1C00
1C00
1C00
1C00
1C00
1C00
1C00
FF80
ENDCHAR
STARTCHAR 0131
ENCODING 305
SWIDTH 300 0
DWIDTH 10 0
BBX 9 16 1 0
BITMAP
1C00
FC00
1C00
1C00
1C00
1C00
1C00
1C00
1C00
1C00
1C00
1C00
1C00
1C00
3E00
FF80
ENDCHAR
STARTCHAR 0132
ENCODING 306
SWIDTH 930 0
DWIDTH 31 0
BBX 29 22 1 0
BITMAP
FF800FF8
1C0001C0
1C0001C0
1C0001C0
1C0001C0
1C0001C0
1C0001C0
1C0001C0
1C0001C0
1C0001C0
1C0001C0
1C0001C0
1C0001C0
1C1801C0
1C3801C0
1C3801C0
1C3801C0
1C3801C0
1C180380
1C1C0300
1C060E00
FF81F800
ENDCHAR
STARTCHAR 0133
ENCODING 307
SWIDTH 600 0
DWIDTH 20 0
BBX 16 30 1 -7
BITMAP
1806
3C0F
3C0F
1806
0000
0000
0000
1C07
FC3F
1C07
1C07
1C07
1C07
1C07
1C07
1C07
1C07
1C07
1C07
1C07
1C07
3E07
FF87
0007
0007
0007
0007
0386
03CC
01F8
ENDCHAR
STARTCHAR 0134
ENCODING 308
SWIDTH 600 0
DWIDTH 20 0
BBX 19 28 0 0
BITMAP
000200
000D80
0018C0
002020
000000
000000
003FE0
000700
000700
000700
000700
000700
000700
000700
000700
000700
000700
000700
000700
600700
E00700
E00700
E00700
E00700
600E00
300C00
183800
07E000
ENDCHAR
STARTCHAR 0135
ENCODING 309
SWIDTH 300 0
DWIDTH 10 0
BBX 11 30 -3 -7
BITMAP
0200
0F80
18C0
2020
0000
0000
0000
01C0
0FC0
01C0
01C0
01C0
01C0
01C0
01C0
01C0
01C0
01C0
01C0
01C0
01C0
01C0
01C0
01C0
01C0
01C0
01C0
E180
F300
7E00
ENDCHAR
STARTCHAR 0136
ENCODING 310
SWIDTH 720 0
DWIDTH 24 0
BBX 23 28 1 -6
BITMAP
FF83FC
1C00F0
1C00C0
1C0080
1C0100
1C0200
1C0400
1C0800
1C1000
1C2000
1C7000
1CB800
1D1C00
1E0E00
1C0E00
1C0700
1C0380
1C01C0
1C01E0
1C00E0
1C00F0
FF83FE
000000
00F800
000C00
008C00
00CC00
007800
ENDCHAR
STARTCHAR 0137
ENCODING 311
SWIDTH 600 0
DWIDTH 20 0
BBX 19 29 1 -6
BITMAP
1C0000
FC0000
1C0000
1C0000
1C0000
1C0000
1C0000
1C1FE0
1C0700
1C0E00
1C1C00
1C3800
1C7000
1CC000
1DE000
1F7000
1E3800
1C1C00
1C1C00
1C0E00
1C0700
3E0780
FF9FE0
000000
01F000
001800
011800
019800
00F000
ENDCHAR
STARTCHAR 0138
ENCODING 312
SWIDTH 630 0
DWIDTH 21 0
BBX 20 16 1 0
BITMAP
1C1FE0
FC0780
1C0600
1C0C00
1C3800
1C7000
1CC000
1DE000
1F7000
1E3800
1C1C00
1C0E00
1C0700
1C0780
3C03C0
FF9FF0
ENDCHAR
STARTCHAR 0139
ENCODING 313
SWIDTH 600 0
DWIDTH 20 0
BBX 19 28 1 0
BITMAP
00E000
03E000
07C000
0C0000
000000
000000
FF8000
1C0000
1C0000
1C0000
1C0000
1C0000
1C0000
1C0000
1C0000
1C0000
1C0000
1C0000
1C0000
1C0000
1C0000
1C0060
1C0040
1C00C0
1C01C0
1C0380
1C0F80
FFFF80
ENDCHAR
STARTCHAR 013A
ENCODING 314
SWIDTH 300 0
DWIDTH 10 0
BBX 9 28 1 0
BITMAP
0700
1F00
3E00
6000
0000
1C00
FC00
1C00
1C00
1C00
1C00
1C00
1C00
1C00
1C00
1C00
1C00
1C00
1C00
1C00
1C00
1C00
1C00
1C00
1C00
1C00
3E00
FF80
ENDCHAR
STARTCHAR 013B
ENCODING 315
SWIDTH 600 0
DWIDTH 20 0
BBX 19 28 1 -6
BITMAP
FF8000
1C0000
1C0000
1C0000
1C0000
1C0000
1C0000
1C0000
1C0000
1C0000
1C0000
1C0000
1C0000
1C0000
1C0000
1C0060
1C0040
1C00C0
1C01C0
1C0380
1C0F80
FFFF80
000000
03E000
003000
023000
033000
01E000
ENDCHAR
STARTCHAR 013C
ENCODING 316
SWIDTH 300 0
DWIDTH 10 0
BBX 9 29 1 -6
BITMAP
1C00
FC00
1C00
1C00
1C00
1C00
1C00
1C00
1C00
1C00
1C00
1C00
1C00
1C00
1C00
1C00
1C00
1C00
1C00
1C00
1C00
3E00
FF80
0000
7C00
0600
4600
6600
3C00
ENDCHAR
STARTCHAR 013D
ENCODING 317
SWIDTH 600 0
DWIDTH 20 0
BBX 19 22 1 0
BITMAP
FF8E00
1C0F00
1C0F00
1C0100
1C0100
1C0300
1C0600
1C0C00
1C0000
1C0000
1C0000
1C0000
1C0000
1C0000
1C0000
1C0060
1C0040
1C00C0
1C01C0
1C0380
1C0F80
FFFF80
ENDCHAR
STARTCHAR 013E
ENCODING 318
SWIDTH 360 0
DWIDTH 12 0
BBX 12 23 1 0
BITMAP
1CE0
FCF0
1CF0
1C10
1C10
1C30
1C60
1CC0
1C00
1C00
1C00
1C00
1C00
1C00
1C00
1C00
1C00
1C00
1C00
1C00
1C00
3E00
FF80
ENDCHAR
STARTCHAR 013F
ENCODING 319
SWIDTH 600 0
DWIDTH 20 0
BBX 19 22 1 0
BITMAP
FF8000
1C0000
1C0000
1C0000
1C0000
1C0000
1C0000
1C0000
1C6000
1CF000
1CF000
1C6000
1C0000
1C0000
1C0000
1C0060
1C0040
1C00C0
1C01C0
1C0380
1C0F80
FFFF80
ENDCHAR
STARTCHAR 0140
ENCODING 320
SWIDTH 330 0
DWIDTH 11 0
BBX 11 23 1 0
BITMAP
1C00
FC00
1C00
1C00
1C00
1C00
1C00
1C00
1C00
1CC0
1DE0
1DE0
1CC0
1C00
1C00
1C00
1C00
1C00
1C00
1C00
1C00
3E00
FF80
ENDCHAR
STARTCHAR 0141
ENCODING 321
SWIDTH 600 0
DWIDTH 20 0
BBX 19 22 1 0
BITMAP
FF8000
1C0000
1C0000
1C0000
1C0000
1C0000
1C3000
1C4000
1C8000
1D0000
1E0000
1C0000
1C0000
3C0000
5C0000
9C0020
1C0060
1C0040
1C00C0
1C0180
1C0780
FFFF80
ENDCHAR
STARTCHAR 0142
ENCODING 322
SWIDTH 330 0
DWIDTH 11 0
BBX 9 23 1 0
BITMAP
1C00
FC00
1C00
1C00
1C00
1C00
1C00
1C80
1D00
1E00
1C00
1C00
7C00
9C00
1C00
1C00
1C00
1C00
1C00
1C00
1C00
3E00
FF80
ENDCHAR
STARTCHAR 0143
ENCODING 323
SWIDTH 720 0
DWIDTH 24 0
BBX 22 28 1 0
BITMAP
000E00
003E00
007C00
00C000
000000
000000
FE03FC
1F00F0
1F0060
1B8060
1B8060
19C060
18E060
18E060
187060
187860
183860
181C60
181C60
180E60
180F60
180760
1803E0
1803E0
1801E0
1801E0
1800E0
FF0060
ENDCHAR
STARTCHAR 0144
ENCODING 324
SWIDTH 660 0
DWIDTH 22 0
BBX 21 23 1 0
BITMAP
003800
00F800
01F000
030000
000000
000000
000000
1CFE00
FD0380
1E01C0
1C01C0
1C01C0
1C01C0
1C01C0
1C01C0
1C01C0
1C01C0
1C01C0
1C01C0
1C01C0
1C01C0
3E03E0
FF8FF8
ENDCHAR
STARTCHAR 0145
ENCODING 325
SWIDTH 720 0
DWIDTH 24 0
BBX 22 28 1 -6
BITMAP
FE03FC
1F00F0
1F0060
1B8060
1B8060
19C060
18E060
18E060
187060
187860
183860
181C60
181C60
180E60
180F60
180760
1803E0
1803E0
1801E0
1801E0
1800E0
FF0060
000000
00F800
000C00
008C00
00CC00
007800
ENDCHAR
STARTCHAR 0146
ENCODING 326
SWIDTH 660 0
DWIDTH 22 0
BBX 21 22 1 -6
BITMAP
1CFE00
FD0380
1E01C0
1C01C0
1C01C0
1C01C0
1C01C0
1C01C0
1C01C0
1C01C0
1C01C0
1C01C0
1C01C0
1C01C0
3E03E0
FF8FF8
000000
01F000
001800
011800
019800
00F000
ENDCHAR
STARTCHAR 0147
ENCODING 327
SWIDTH 720 0
DWIDTH 24 0
BBX 22 28 1 0
BITMAP
010100
00C600
006C00
001000
000000
000000
FE03FC
1F00F0
1F0060
1B8060
1B8060
19C060
18E060
18E060
187060
187860
183860
181C60
181C60
180E60
180F60
180760
1803E0
1803E0
1801E0
1801E0
1800E0
FF0060
ENDCHAR
STARTCHAR 0148
ENCODING 328
SWIDTH 660 0
DWIDTH 22 0
BBX 21 23 1 0
BITMAP
040400
031800
01B000
004000
000000
000000
000000
1CFE00
FD0380
1E01C0
1C01C0
1C01C0
1C01C0
1C01C0
1C01C0
1C01C0
1C01C0
1C01C0
1C01C0
1C01C0
1C01C0
3E03E0
FF8FF8
ENDCHAR
STARTCHAR 0149
ENCODING 329
SWIDTH 750 0
DWIDTH 25 0
BBX 25 22 0 0
BITMAP
70000000
F8000000
F8000000
78000000
18000000
10000000
31CFE000
6FD03800
81E01C00
01C01C00
01C01C00
01C01C00
01C01C00
01C01C00
01C01C00
01C01C00
01C01C00
01C01C00
01C01C00
01C01C00
03E03E00
0FF8FF80
ENDCHAR
STARTCHAR 014A
ENCODING 330
SWIDTH 780 0
DWIDTH 26 0
BBX 23 22 1 0
BITMAP
FC3F80
1CE0E0
1F8070
1F0038
1E0038
1C001C
1C001C
1C000E
1C000E
1C000E
1C000E
1C000E
1C000E
1C000E
1C180E
1C380C
1C380C
1C381C
1C3818
1C1838
1C0C70
FF87C0
ENDCHAR
STARTCHAR 014B
ENCODING 331
SWIDTH 630 0
DWIDTH 21 0
BBX 18 23 1 -7
BITMAP
1C3E00
FDC380
1F01C0
1C01C0
1C01C0
1C01C0
1C01C0
1C01C0
1C01C0
1C01C0
1C01C0
1C01C0
1C01C0
1C01C0
1C01C0
FF81C0
0001C0
0001C0
0001C0
00C1C0
00E180
00F300
003E00
ENDCHAR
STARTCHAR 014C
ENCODING 332
SWIDTH 780 0
DWIDTH 26 0
BBX 22 25 2 0
BITMAP
03FF00
000000
000000
00FE00
070380
0E00C0
180060
380070
700038
700038
E0001C
E0001C
E0001C
E0001C
E0001C
E0001C
E0001C
E0003C
700038
700038
380070
1800E0
0C01C0
070380
01FE00
ENDCHAR
STARTCHAR 014D
ENCODING 333
SWIDTH 540 0
DWIDTH 18 0
BBX 16 20 1 0
BITMAP
1FF8
0000
0000
0000
07E0
1C38
381C
700E
700E
E007
E007
E007
E007
E007
E007
600E
700E
381C
1C38
07E0
ENDCHAR
STARTCHAR 014E
ENCODING 334
SWIDTH 780 0
DWIDTH 26 0
BBX 22 27 2 0
BITMAP
040100
030600
00F800
000000
000000
00FE00
070380
0E00C0
180060
380070
700038
700038
E0001C
E0001C
E0001C
E0001C
E0001C
E0001C
E0001C
E0003C
700038
700038
380070
1800E0
0C01C0
070380
01FE00
ENDCHAR
STARTCHAR 014F
ENCODING 335
SWIDTH 540 0
DWIDTH 18 0
BBX 16 22 1 0
BITMAP
2008
1830
07C0
0000
0000
0000
07E0
1C38
381C
700E
700E
E007
E007
E007
E007
E007
E007
600E
700E
381C
1C38
07E0
ENDCHAR
STARTCHAR 0150
ENCODING 336
SWIDTH 780 0
DWIDTH 26 0
BBX 22 29 2 0
BITMAP
003180
007380
006300
00C600
008400
000000
000000
00FE00
070380
0E00C0
180060
380070
700038
700038
E0001C
E0001C
E0001C
E0001C
E0001C
E0001C
E0001C
E0003C
700038
700038
380070
1800E0
0C01C0
070380
01FE00
ENDCHAR
STARTCHAR 0151
ENCODING 337
SWIDTH 540 0
DWIDTH 18 0
BBX 16 23 1 0
BITMAP
018C
039C
0318
0630
0420
0000
0000
07E0
1C38
381C
700E
700E
E007
E007
E007
E007
E007
E007
600E
700E
381C
1C38
07E0
ENDCHAR
STARTCHAR 0152
ENCODING 338
SWIDTH 1230 0
DWIDTH 41 0
BBX 38 22 2 0
BITMAP
00FF1FFFE0
07009C01E0
0E005C0070
1C003C0070
38001C0030
70001C0038
70001C0C18
E0001C0C00
E0001C0C00
E0001C1C00
E0001FFC00
E0001C1C00
E0001C0C00
E0001C0C00
E0001C0C0C
70001C001C
70001C0018
38001C0038
18003C0038
0C005C00F0
07009C01F0
01FF1FFFF0
ENDCHAR
STARTCHAR 0153
ENCODING 339
SWIDTH 900 0
DWIDTH 30 0
BBX 26 16 1 0
BITMAP
07E07C00
1C71C700
381B0380
701F0180
700E01C0
E00FFFC0
E00E0000
E00E0000
E00E0000
E00E0000
E00E0000
601F0040
701F00C0
303B8180
1871C300
0FC0FC00
ENDCHAR
STARTCHAR 0154
ENCODING 340
SWIDTH 720 0
DWIDTH 24 0
BBX 22 28 1 0
BITMAP
001C00
007C00
00F800
018000
000000
000000
FFFF80
1C00E0
1C0070
1C0038
1C0038
1C0038
1C0038
1C0030
1C0070
1C01E0
1FFF00
1C3800
1C3800
1C1C00
1C0E00
1C0700
1C0380
1C01C0
1C00C0
1C00E0
1C0070
FF803C
ENDCHAR
STARTCHAR 0155
ENCODING 341
SWIDTH 450 0
DWIDTH 15 0
BBX 14 23 1 0
BITMAP
01C0
07C0
0F80
1800
0000
0000
0000
1CF8
FD3C
1E1C
1C0C
1C00
1C00
1C00
1C00
1C00
1C00
1C00
1C00
1C00
1C00
3E00
FF80
ENDCHAR
STARTCHAR 0156
ENCODING 342
SWIDTH 720 0
DWIDTH 24 0
BBX 22 28 1 -6
BITMAP
FFFF80
1C00E0
1C0070
1C0038
1C0038
1C0038
1C0038
1C0030
1C0070
1C01E0
1FFF00
1C3800
1C3800
1C1C00
1C0E00
1C0700
1C0380
1C01C0
1C00C0
1C00E0
1C0070
FF803C
000000
00F800
000C00
008C00
00CC00
007800
ENDCHAR
STARTCHAR 0157
ENCODING 343
SWIDTH 450 0
DWIDTH 15 0
BBX 14 22 1 -6
BITMAP
1CF8
FD3C
1E1C
1C0C
1C00
1C00
1C00
1C00
1C00
1C00
1C00
1C00
1C00
1C00
3E00
FF80
0000
0F80
00C0
08C0
0CC0
0780
ENDCHAR
STARTCHAR 0158
ENCODING 344
SWIDTH 720 0
DWIDTH 24 0
BBX 22 28 1 0
BITMAP
020200
018C00
00D800
002000
000000
000000
FFFF80
1C00E0
1C0070
1C0038
1C0038
1C0038
1C0038
1C0030
1C0070
1C01E0
1FFF00
1C3800
1C3800
1C1C00
1C0E00
1C0700
1C0380
1C01C0
1C00C0
1C00E0
1C0070
FF803C
ENDCHAR
STARTCHAR 0159
ENCODING 345
SWIDTH 450 0
DWIDTH 15 0
BBX 14 23 1 0
BITMAP
2020
18C0
0D80
0200
0000
0000
0000
1CF8
FD3C
1E1C
1C0C
1C00
1C00
1C00
1C00
1C00
1C00
1C00
1C00
1C00
1C00
3E00
FF80
ENDCHAR
STARTCHAR 015A
ENCODING 346
SWIDTH 660 0
DWIDTH 22 0
BBX 18 28 2 0
BITMAP
003800
00F800
01F000
030000
000000
000000
07F300
383F00
701F00
600F00
E00700
E00380
F00380
F80180
7E0000
3FE000
0FFC00
01FF00
003F80
000780
C003C0
E001C0
E001C0
7001C0
780180
7C0300
6E0E00
63F800
ENDCHAR
STARTCHAR 015B
ENCODING 347
SWIDTH 510 0
DWIDTH 17 0
BBX 14 23 2 0
BITMAP
00E0
03E0
07C0
0C00
0000
0000
0000
1FB0
70F0
E030
E018
F008
FC00
7F80
1FE0
03F8
007C
803C
C01C
601C
7018
7830
27E0
ENDCHAR
STARTCHAR 015C
ENCODING 348
SWIDTH 660 0
DWIDTH 22 0
BBX 18 28 2 0
BITMAP
008000
036000
063000
080800
000000
000000
07F300
383F00
701F00
600F00
E00700
E00380
F00380
F80180
7E0000
3FE000
0FFC00
01FF00
003F80
000780
C003C0
E001C0
E001C0
7001C0
780180
7C0300
6E0E00
63F800
ENDCHAR
STARTCHAR 015D
ENCODING 349
SWIDTH 510 0
DWIDTH 17 0
BBX 14 23 2 0
BITMAP
0200
0D80
18C0
2020
0000
0000
0000
1FB0
70F0
E030
E018
F008
FC00
7F80
1FE0
03F8
007C
803C
C01C
601C
7018
7830
27E0
ENDCHAR
STARTCHAR 015E
ENCODING 350
SWIDTH 660 0
DWIDTH 22 0
BBX 18 28 2 -6
BITMAP
07F300
383F00
701F00
600F00
E00700
E00380
F00380
F80180
7E0000
3FE000
0FFC00
01FF00
003F80
000780
C003C0
E001C0
E001C0
7001C0
780180
7C0300
6E0E00
63F800
004000
00F000
001800
001800
001800
01F000
ENDCHAR
STARTCHAR 015F
ENCODING 351
SWIDTH 510 0
DWIDTH 17 0
BBX 14 22 2 -6
BITMAP
1FB0
70F0
E030
E018
F008
FC00
7F80
1FE0
03F8
007C
803C
C01C
601C
7018
7830
27E0
0100
03C0
0060
0060
0060
07C0
ENDCHAR
STARTCHAR 0160
ENCODING 352
SWIDTH 660 0
DWIDTH 22 0
BBX 18 28 2 0
BITMAP
080800
063000
036000
008000
000000
000000
07F300
383F00
701F00
600F00
E00700
E00380
F00380
F80180
7E0000
3FE000
0FFC00
01FF00
003F80
000780
C003C0
E001C0
E001C0
7001C0
780180
7C0300
6E0E00
63F800
ENDCHAR
STARTCHAR 0161
ENCODING 353
SWIDTH 510 0
DWIDTH 17 0
BBX 14 23 2 0
BITMAP
1010
0C60
06C0
0100
0000
0000
0000
1FB0
70F0
E030
E018
F008
FC00
7F80
1FE0
03F8
007C
803C
C01C
601C
7018
7830
27E0
ENDCHAR
STARTCHAR 0162
ENCODING 354
SWIDTH 600 0
DWIDTH 20 0
BBX 21 31 -1 -8
BITMAP
200020
3FFFE0
7870F0
707070
607030
E07038
C07018
007000
007000
007000
007000
007000
007000
007000
007000
007000
007000
007000
007000
007000
007000
007000
03FE00
000000
000000
006000
007000
007000
003000
002000
004000
ENDCHAR
STARTCHAR 0163
ENCODING 355
SWIDTH 390 0
DWIDTH 13 0
BBX 12 28 1 -7
BITMAP
0400
0400
0C00
1C00
3C00
FFE0
1C00
1C00
1C00
1C00
1C00
1C00
1C00
1C00
1C00
1C00
1C00
1C00
1C00
0E10
07E0
0000
0600
0700
0700
0100
0200
0400
ENDCHAR
STARTCHAR 0164
ENCODING 356
SWIDTH 600 0
DWIDTH 20 0
BBX 21 28 -1 0
BITMAP
020200
018C00
00D800
002000
000000
200020
3FFFE0
7C71F0
707070
607030
607030
C07038
C07018
007000
007000
007000
007000
007000
007000
007000
007000
007000
007000
007000
007000
007000
007000
03FE00
ENDCHAR
STARTCHAR 0165
ENCODING 357
SWIDTH 360 0
DWIDTH 12 0
BBX 12 23 1 0
BITMAP
00E0
00F0
04F0
0410
0C20
1C40
3C00
FFE0
1C00
1C00
1C00
1C00
1C00
1C00
1C00
1C00
1C00
1C00
1C00
1C00
1C10
0E30
07C0
ENDCHAR
STARTCHAR 0166
ENCODING 358
SWIDTH 600 0
DWIDTH 20 0
BBX 21 23 -1 0
BITMAP
200020
3FFFE0
7870F0
707070
607030
E07038
C07018
007000
007000
007000
007000
3FFFE0
007000
007000
007000
007000
007000
007000
007000
007000
007000
007000
03FE00
ENDCHAR
STARTCHAR 0167
ENCODING 359
SWIDTH 390 0
DWIDTH 13 0
BBX 12 21 1 0
BITMAP
0400
0400
0C00
1C00
3C00
FFE0
1C00
1C00
1C00
1C00
1C00
FFE0
1C00
1C00
1C00
1C00
1C00
1C00
1C10
0E30
07C0
ENDCHAR
STARTCHAR 0168
ENCODING 360
SWIDTH 780 0
DWIDTH 26 0
BBX 24 26 1 0
BITMAP
00F080
010F00
000000
000000
FF80FF
1C0018
1C0018
1C0018
1C0018
1C0018
1C0018
1C0018
1C0018
1C0018
1C0018
1C0018
1C0018
1C0018
1C0018
1C0018
1C0018
0E0030
0E0030
070060
03C180
007E00
ENDCHAR
STARTCHAR 0169
ENCODING 361
SWIDTH 660 0
DWIDTH 22 0
BBX 21 21 1 0
BITMAP
01E100
021E00
000000
000000
000000
FC0FC0
3C03C0
1C01C0
1C01C0
1C01C0
1C01C0
1C01C0
1C01C0
1C01C0
1C01C0
1C01C0
1C01C0
1C01C0
1C03C0
0E05E0
03F9F8
ENDCHAR
STARTCHAR 016A
ENCODING 362
SWIDTH 780 0
DWIDTH 26 0
BBX 24 25 1 0
BITMAP
01FF80
000000
000000
FF80FF
1C0018
1C0018
1C0018
1C0018
1C0018
1C0018
1C0018
1C0018
1C0018
1C0018
1C0018
1C0018
1C0018
1C0018
1C0018
1C0018
0E0030
0E0030
070060
03C180
007E00
ENDCHAR
STARTCHAR 016B
ENCODING 363
SWIDTH 660 0
DWIDTH 22 0
BBX 21 20 1 0
BITMAP
03FF00
000000
000000
000000
FC0FC0
3C03C0
1C01C0
1C01C0
1C01C0
1C01C0
1C01C0
1C01C0
1C01C0
1C01C0
1C01C0
1C01C0
1C01C0
1C03C0
0E05E0
03F9F8
ENDCHAR
STARTCHAR 016C
ENCODING 364
SWIDTH 780 0
DWIDTH 26 0
BBX 24 27 1 0
BITMAP
020080
018300
007C00
000000
000000
FF80FF
1C0018
1C0018
1C0018
1C0018
1C0018
1C0018
1C0018
1C0018
1C0018
1C0018
1C0018
1C0018
1C0018
1C0018
1C0018
1C0018
0E0030
0E0030
070060
03C180
007E00
ENDCHAR
STARTCHAR 016D
ENCODING 365
SWIDTH 660 0
DWIDTH 22 0
BBX 21 22 1 0
BITMAP
040100
030600
00F800
000000
000000
000000
FC0FC0
3C03C0
1C01C0
1C01C0
1C01C0
1C01C0
1C01C0
1C01C0
1C01C0
1C01C0
1C01C0
1C01C0
1C01C0
1C03C0
0E05E0
03F9F8
ENDCHAR
STARTCHAR 016E
ENCODING 366
SWIDTH 780 0
DWIDTH 26 0
BBX 24 30 1 0
BITMAP
003C00
006600
004200
004200
006600
003C00
000000
000000
FF80FF
1C0018
1C0018
1C0018
1C0018
1C0018
1C0018
1C0018
1C0018
1C0018
1C0018
1C0018
1C0018
1C0018
1C0018
1C0018
1C0018
0E0030
0E0030
070060
03C180
007E00
ENDCHAR
STARTCHAR 016F
ENCODING 367
SWIDTH 660 0
DWIDTH 22 0
BBX 21 25 1 0
BITMAP
007800
00CC00
008400
008400
00CC00
007800
000000
000000
000000
FC0FC0
3C03C0
1C01C0
1C01C0
1C01C0
1C01C0
1C01C0
1C01C0
1C01C0
1C01C0
1C01C0
1C01C0
1C01C0
1C03C0
0E05E0
03F9F8
ENDCHAR
STARTCHAR 0170
ENCODING 368
SWIDTH 780 0
DWIDTH 26 0
BBX 24 29 1 0
BITMAP
0018C0
0039C0
003180
006300
004200
000000
000000
FF80FF
1C0018
1C0018
1C0018
1C0018
1C0018
1C0018
1C0018
1C0018
1C0018
1C0018
1C0018
1C0018
1C0018
1C0018
1C0018
1C0018
0E0030
0E0030
070060
03C180
007E00
ENDCHAR
STARTCHAR 0171
ENCODING 369
SWIDTH 660 0
DWIDTH 22 0
BBX 21 23 1 0
BITMAP
006300
00E700
00C600
018C00
010800
000000
000000
FC0FC0
3C03C0
1C01C0
1C01C0
1C01C0
1C01C0
1C01C0
1C01C0
1C01C0
1C01C0
1C01C0
1C01C0
1C01C0
1C03C0
0E05E0
03F9F8
ENDCHAR
STARTCHAR 0172
ENCODING 370
SWIDTH 780 0
DWIDTH 26 0
BBX 24 26 1 -4
BITMAP
FF80FF
1C0018
1C0018
1C0018
1C0018
1C0018
1C0018
1C0018
1C0018
1C0018
1C0018
1C0018
1C0018
1C0018
1C0018
1C0018
1C0018
0E0030
0E0030
070060
03C180
007E00
001800
003000
003100
001E00
ENDCHAR
STARTCHAR 0173
ENCODING 371
SWIDTH 660 0
DWIDTH 22 0
BBX 21 20 1 -4
BITMAP
FC0FC0
3C03C0
1C01C0
1C01C0
1C01C0
1C01C0
1C01C0
1C01C0
1C01C0
1C01C0
1C01C0
1C01C0
1C01C0
1C03C0
0E05E0
07F9F8
0000C0
000180
000188
0000F0
ENDCHAR
STARTCHAR 0174
ENCODING 372
SWIDTH 960 0
DWIDTH 32 0
BBX 31 28 0 0
BITMAP
00010000
0006C000
000C6000
00101000
00000000
00000000
FF9FF0FE
3C078038
3C078038
1C038030
1C038030
1E03C030
0E03C060
0E03C060
0E03C060
0706E0C0
0706E0C0
0706E0C0
038C7180
038C7180
038C7180
01D83B00
01D83B00
01D83B00
00F01E00
00F01E00
00F01E00
00600C00
ENDCHAR
STARTCHAR 0175
ENCODING 373
SWIDTH 780 0
DWIDTH 26 0
BBX 25 23 0 0
BITMAP
00080000
00360000
00630000
00808000
00000000
00000000
00000000
FE7F3F80
783C0600
381C0600
381C0400
1C0E0400
1C1E0800
1C1E0800
0E270800
0E271000
0E271000
0743A000
0743A000
0743A000
0381C000
0381C000
0381C000
ENDCHAR
STARTCHAR 0176
ENCODING 374
SWIDTH 630 0
DWIDTH 21 0
BBX 21 28 0 0
BITMAP
002000
00D800
018C00
020200
000000
000000
FF03F8
3C00E0
1C00C0
1C00C0
0E0180
0E0380
070300
038600
038600
01CC00
01D800
00F800
007000
007000
007000
007000
007000
007000
007000
007000
007000
03FE00
ENDCHAR
STARTCHAR 0177
ENCODING 375
SWIDTH 540 0
DWIDTH 18 0
BBX 17 30 0 -7
BITMAP
008000
036000
063000
080800
000000
000000
000000
FF0F80
3C0200
3C0200
1C0400
1C0400
0E0400
0E0800
070800
071000
071000
039000
03A000
01E000
01C000
00C000
00C000
008000
008000
010000
010000
C20000
E20000
7C0000
ENDCHAR
STARTCHAR 0178
ENCODING 376
SWIDTH 630 0
DWIDTH 21 0
BBX 21 28 0 0
BITMAP
018600
03CF00
03CF00
018600
000000
000000
FF03F8
3C00E0
1C00C0
1C00C0
0E0180
0E0380
070300
038600
038600
01CC00
01D800
00F800
007000
007000
007000
007000
007000
007000
007000
007000
007000
03FE00
ENDCHAR
STARTCHAR 0179
ENCODING 377
SWIDTH 630 0
DWIDTH 21 0
BBX 20 28 1 0
BITMAP
000E00
003E00
007C00
00C000
000000
000000
1FFFE0
3E01C0
3801C0
700380
600700
C00E00
401E00
001C00
003800
007000
00E000
00E000
01C000
038000
070020
0F0030
0E0020
1C0060
3800E0
7001C0
7007C0
FFFF80
ENDCHAR
STARTCHAR 017A
ENCODING 378
SWIDTH 480 0
DWIDTH 16 0
BBX 15 23 1 0
BITMAP
0070
01F0
03E0
0600
0000
0000
0000
3FFE
781C
603C
C038
8070
00E0
01C0
0380
0780
0700
0E02
1C06
3804
700C
F03C
FFF8
ENDCHAR
STARTCHAR 017B
ENCODING 379
SWIDTH 630 0
DWIDTH 21 0
BBX 20 28 1 0
BITMAP
006000
00F000
00F000
006000
000000
000000
1FFFE0
3E01C0
3801C0
700380
600700
C00E00
401E00
001C00
003800
007000
00E000
00E000
01C000
038000
070020
0F0030
0E0020
1C0060
3800E0
7001C0
7007C0
FFFF80
ENDCHAR
STARTCHAR 017C
ENCODING 380
SWIDTH 480 0
DWIDTH 16 0
BBX 15 23 1 0
BITMAP
0180
03C0
03C0
0180
0000
0000
0000
3FFE
781C
603C
C038
8070
00E0
01C0
0380
0780
0700
0E02
1C06
3804
700C
F03C
FFF8
ENDCHAR
STARTCHAR 017D
ENCODING 381
SWIDTH 630 0
DWIDTH 21 0
BBX 20 28 1 0
BITMAP
020200
018C00
00D800
002000
000000
000000
1FFFE0
3E01C0
3801C0
700380
600700
C00E00
401E00
001C00
003800
007000
00E000
00E000
01C000
038000
070020
0F0030
0E0020
1C0060
3800E0
7001C0
7007C0
FFFF80
ENDCHAR
STARTCHAR 017E
ENCODING 382
SWIDTH 480 0
DWIDTH 16 0
BBX 15 23 1 0
BITMAP
1010
0C60
06C0
0100
0000
0000
0000
3FFE
781C
603C
C038
8070
00E0
01C0
0380
0780
0700
0E02
1C06
3804
700C
F03C
FFF8
ENDCHAR
STARTCHAR 017F
ENCODING 383
SWIDTH 300 0
DWIDTH 10 0
BBX 13 23 0 0
BITMAP
03F0
0638
0C00
1C00
1C00
1C00
1C00
1C00
1C00
1C00
1C00
1C00
1C00
1C00
1C00
1C00
1C00
1C00
1C00
1C00
1C00
1C00
FF80
ENDCHAR
STARTCHAR 0192
ENCODING 402
SWIDTH 600 0
DWIDTH 20 0
BBX 22 27 -2 -4
BITMAP
0000F8
00033C
00071C
000E0C
000E00
000E00
000E00
00FF80
001C00
003C00
003800
003800
003800
003800
007000
007000
007000
007000
00E000
00E000
00E000
00E000
01C000
01C000
038000
E30000
7C0000
ENDCHAR
STARTCHAR 01FA
ENCODING 506
SWIDTH 660 0
DWIDTH 22 0
BBX 22 32 0 0
BITMAP
001C00
007C00
00F800
018000
000000
007800
00CC00
008400
008400
00CC00
007800
007800
007800
00DC00
00DC00
00DC00
018E00
018E00
030F00
030700
030700
060380
060380
07FF80
0C01C0
0C01C0
1C01C0
1800E0
1800E0
3000E0
3800F0
FE03FC
ENDCHAR
STARTCHAR 01FB
ENCODING 507
SWIDTH 570 0
DWIDTH 19 0
BBX 19 30 1 0
BITMAP
003800
00F800
01F000
030000
000000
03C000
066000
042000
042000
066000
03C000
000000
000000
000000
07F000
1C3C00
381C00
700E00
700E00
700E00
000E00
00FE00
1F8E00
780E00
F00E00
E00E00
E00E00
E03E00
70EF00
3F87E0
ENDCHAR
STARTCHAR 01FC
ENCODING 508
SWIDTH 1260 0
DWIDTH 42 0
BBX 39 28 1 0
BITMAP
0000038000
00000F8000
00001F0000
0000300000
0000000000
0000000000
001FFFFFF0
00060E00F0
00060E0038
000C0E0018
00180E0018
00180E001C
00300E060C
00300E0600
00600E0600
00E00E0E00
00FFFFFE00
01800E0E00
01800E0600
03000E0600
07000E0606
06000E000E
0C000E000C
0C000E001C
18000E001C
38000E0038
70000E00F8
FE007FFFF8
ENDCHAR
STARTCHAR 01FD
ENCODING 509
SWIDTH 840 0
DWIDTH 28 0
BBX 26 23 1 0
BITMAP
00038000
000F8000
001F0000
00300000
00000000
00000000
00000000
07F07C00
1C3DC700
381F0380
700F0180
700E01C0
700FFFC0
000E0000
00FE0000
1F8E0000
780E0000
F00E0000
E00F0040
E00F00C0
E03F8180
70E3C300
3F00FC00
ENDCHAR
STARTCHAR 01FE
ENCODING 510
SWIDTH 780 0
DWIDTH 26 0
BBX 22 28 2 0
BITMAP
000700
001F00
003E00
006000
000000
000000
00FF0C
0381C8
0E00F0
1C0070
380078
3000B8
700138
60021C
E0041C
E0081C
E0101C
E0201C
E0601C
E0401C
E08038
710038
720038
3C0070
3C00E0
1E01C0
270380
41FC00
ENDCHAR
STARTCHAR 01FF
ENCODING 511
SWIDTH 540 0
DWIDTH 18 0
BBX 16 23 1 0
BITMAP
00E0
03E0
07C0
0C00
0000
0000
0000
07E3
1C3A
380C
700E
701E
E027
E047
E087
E107
E307
E207
740E
780E
381C
3C38
47E0
ENDCHAR
STARTCHAR 02C6
ENCODING 710
SWIDTH 420 0
DWIDTH 14 0
BBX 9 4 2 18
BITMAP
0800
3600
6300
8080
ENDCHAR
STARTCHAR 02C7
ENCODING 711
SWIDTH 420 0
DWIDTH 14 0
BBX 9 4 2 18
BITMAP
8080
6300
3600
0800
ENDCHAR
STARTCHAR 02C9
ENCODING 713
SWIDTH 450 0
DWIDTH 15 0
BBX 10 1 2 19
BITMAP
FFC0
ENDCHAR
STARTCHAR 02D8
ENCODING 728
SWIDTH 450 0
DWIDTH 15 0
BBX 11 3 2 19
BITMAP
8020
60C0
1F00
ENDCHAR
STARTCHAR 02D9
ENCODING 729
SWIDTH 270 0
DWIDTH 9 0
BBX 4 4 2 18
BITMAP
60
F0
F0
60
ENDCHAR
STARTCHAR 02DA
ENCODING 730
SWIDTH 330 0
DWIDTH 11 0
BBX 6 6 2 18
BITMAP
78
CC
84
84
CC
78
ENDCHAR
STARTCHAR 02DB
ENCODING 731
SWIDTH 330 0
DWIDTH 11 0
BBX 6 4 2 -4
BITMAP
60
C0
C4
78
ENDCHAR
STARTCHAR 02DC
ENCODING 732
SWIDTH 450 0
DWIDTH 15 0
BBX 10 2 2 19
BITMAP
7840
8780
ENDCHAR
STARTCHAR 02DD
ENCODING 733
SWIDTH 390 0
DWIDTH 13 0
BBX 9 5 3 17
BITMAP
3180
7380
6300
4600
8400
ENDCHAR
STARTCHAR 037E
ENCODING 894
SWIDTH 330 0
DWIDTH 11 0
BBX 5 22 3 -6
BITMAP
60
F0
F0
60
00
00
00
00
00
00
00
00
70
F8
F8
78
18
18
30
60
C0
80
ENDCHAR
STARTCHAR 0384
ENCODING 900
SWIDTH 420 0
DWIDTH 14 0
BBX 3 6 5 18
BITMAP
E0
E0
E0
E0
40
40
ENDCHAR
STARTCHAR 0385
ENCODING 901
SWIDTH 420 0
DWIDTH 14 0
BBX 13 6 0 18
BITMAP
0700
6730
F778
F778
6230
0200
ENDCHAR
STARTCHAR 0386
ENCODING 902
SWIDTH 660 0
DWIDTH 22 0
BBX 22 22 0 0
BITMAP
707800
707800
707800
70DC00
20DC00
20DC00
018E00
018E00
030F00
030700
030700
060380
060380
07FF80
0C01C0
0C01C0
1C01C0
1800E0
1800E0
3000E0
3800F0
FE03FC
ENDCHAR
STARTCHAR 0387
ENCODING 903
SWIDTH 330 0
DWIDTH 11 0
BBX 4 4 3 12
BITMAP
60
F0
F0
60
ENDCHAR
STARTCHAR 0388
ENCODING 904
SWIDTH 780 0
DWIDTH 26 0
BBX 25 22 -1 0
BITMAP
EFFFFE00
E1C01E00
E1C00600
E1C00700
41C00300
41C00380
01C0C180
01C0C000
01C0C000
01C1C000
01FFC000
01C1C000
01C0C000
01C0C000
01C0C100
01C00180
01C00180
01C00300
01C00700
01C00F00
01C01E00
0FFFFE00
ENDCHAR
STARTCHAR 0389
ENCODING 905
SWIDTH 840 0
DWIDTH 28 0
BBX 28 22 -1 0
BITMAP
EFF81FF0
E1C00380
E1C00380
E1C00380
41C00380
41C00380
01C00380
01C00380
01C00380
01C00380
01FFFF80
01C00380
01C00380
01C00380
01C00380
01C00380
01C00380
01C00380
01C00380
01C00380
01C00380
0FF81FF0
ENDCHAR
STARTCHAR 038A
ENCODING 906
SWIDTH 390 0
DWIDTH 13 0
BBX 13 22 -1 0
BITMAP
EFF8
E1C0
E1C0
E1C0
41C0
41C0
01C0
01C0
01C0
01C0
01C0
01C0
01C0
01C0
01C0
01C0
01C0
01C0
01C0
01C0
01C0
0FF8
ENDCHAR
STARTCHAR 038C
ENCODING 908
SWIDTH 780 0
DWIDTH 26 0
BBX 25 22 -1 0
BITMAP
E01FC000
E0E07000
E1C01800
E3000C00
47000E00
4E000700
0E000700
1C000380
1C000380
1C000380
1C000380
1C000380
1C000380
1C000380
1C000780
0E000700
0E000700
07000E00
03001C00
01803800
00E07000
003FC000
ENDCHAR
STARTCHAR 038E
ENCODING 910
SWIDTH 750 0
DWIDTH 25 0
BBX 25 22 -1 0
BITMAP
EFF03F80
E3C00E00
E1C00C00
E1C00C00
40E01800
40E03800
00703000
00386000
00386000
001CC000
001D8000
000F8000
00070000
00070000
00070000
00070000
00070000
00070000
00070000
00070000
00070000
003FE000
ENDCHAR
STARTCHAR 038F
ENCODING 911
SWIDTH 780 0
DWIDTH 26 0
BBX 26 22 -1 0
BITMAP
E01FC000
E0707800
E1C01C00
E3800E00
43000700
47000700
07000380
0E000380
0E000380
0E000380
0E000380
0E000380
0E000380
07000700
07000700
1B800EC0
1B801FC0
0DE03D80
0C707180
0E1DC380
078D8F00
07FDFF00
ENDCHAR
STARTCHAR 0390
ENCODING 912
SWIDTH 330 0
DWIDTH 11 0
BBX 13 25 -1 0
BITMAP
0700
6730
F778
F778
6230
0200
0000
0000
0000
0700
3F00
0700
0700
0700
0700
0700
0700
0700
0700
0700
0700
0700
0700
0720
03E0
ENDCHAR
STARTCHAR 0391
ENCODING 913
SWIDTH 660 0
DWIDTH 22 0
BBX 22 22 0 0
BITMAP
007800
007800
007800
00DC00
00DC00
00DC00
018E00
018E00
030F00
030700
030700
060380
060380
07FF80
0C01C0
0C01C0
1C01C0
1800E0
1800E0
3000E0
3800F0
FE03FC
ENDCHAR
STARTCHAR 0392
ENCODING 914
SWIDTH 720 0
DWIDTH 24 0
BBX 21 22 1 0
BITMAP
FFFF00
1C01C0
1C00E0
1C0070
1C0070
1C0070
1C0070
1C00F0
1C00E0
1C03C0
1FFF00
1C01E0
1C0070
1C0070
1C0038
1C0038
1C0038
1C0038
1C0070
1C0070
1C01C0
FFFF00
ENDCHAR
STARTCHAR 0393
ENCODING 915
SWIDTH 570 0
DWIDTH 19 0
BBX 17 22 2 0
BITMAP
FFFE00
1C0E00
1C0700
1C0300
1C0300
1C0180
1C0180
1C0000
1C0000
1C0000
1C0000
1C0000
1C0000
1C0000
1C0000
1C0000
1C0000
1C0000
1C0000
1C0000
1C0000
FF8000
ENDCHAR
STARTCHAR 0394
ENCODING 916
SWIDTH 600 0
DWIDTH 20 0
BBX 20 22 0 0
BITMAP
00F000
00F000
00F000
01B800
01B800
031C00
031C00
030E00
060E00
060E00
0C0700
0C0700
180380
180380
180380
3001C0
3001C0
6000E0
6000E0
E000F0
C00070
FFFFF0
ENDCHAR
STARTCHAR 0395
ENCODING 917
SWIDTH 690 0
DWIDTH 23 0
BBX 21 22 1 0
BITMAP
FFFFE0
1C01E0
1C0060
1C0070
1C0030
1C0038
1C0C18
1C0C00
1C0C00
1C1C00
1FFC00
1C1C00
1C0C00
1C0C00
1C0C10
1C0018
1C0018
1C0030
1C0070
1C00F0
1C01E0
FFFFE0
ENDCHAR
STARTCHAR 0396
ENCODING 918
SWIDTH 630 0
DWIDTH 21 0
BBX 20 22 1 0
BITMAP
1FFFE0
3E01C0
3801C0
700380
600700
C00E00
401E00
001C00
003800
007000
00E000
00E000
01C000
038000
070020
0F0030
0E0020
1C0060
3800E0
7001C0
7007C0
FFFF80
ENDCHAR
STARTCHAR 0397
ENCODING 919
SWIDTH 780 0
DWIDTH 26 0
BBX 24 22 1 0
BITMAP
FF81FF
1C0038
1C0038
1C0038
1C0038
1C0038
1C0038
1C0038
1C0038
1C0038
1FFFF8
1C0038
1C0038
1C0038
1C0038
1C0038
1C0038
1C0038
1C0038
1C0038
1C0038
FF81FF
ENDCHAR
STARTCHAR 0398
ENCODING 920
SWIDTH 780 0
DWIDTH 26 0
BBX 22 22 2 0
BITMAP
00FE00
070380
0E00C0
180060
380070
700038
720138
62011C
E3031C
E3FF1C
E3FF1C
E3031C
E2011C
E2011C
E0001C
700038
700038
380070
1800E0
0C00C0
070380
01FE00
ENDCHAR
STARTCHAR 0399
ENCODING 921
SWIDTH 330 0
DWIDTH 11 0
BBX 9 22 1 0
BITMAP
FF80
1C00
1C00
1C00
1C00
1C00
1C00
1C00
1C00
1C00
1C00
1C00
1C00
1C00
1C00
1C00
1C00
1C00
1C00
1C00
1C00
FF80
ENDCHAR
STARTCHAR 039A
ENCODING 922
SWIDTH 720 0
DWIDTH 24 0
BBX 23 22 1 0
BITMAP
FF83FC
1C00F0
1C00C0
1C0080
1C0100
1C0200
1C0400
1C0800
1C1000
1C2000
1C7000
1CB800
1D1C00
1E0E00
1C0E00
1C0700
1C0380
1C01C0
1C01E0
1C00E0
1C00F0
FF83FE
ENDCHAR
STARTCHAR 039B
ENCODING 923
SWIDTH 660 0
DWIDTH 22 0
BBX 22 22 0 0
BITMAP
007800
007800
007800
00DC00
00DC00
00DC00
018E00
018E00
018F00
030700
030700
070380
060380
060380
0C01C0
0C01C0
0C01C0
1800E0
1800E0
1800F0
3800F0
FE03FC
ENDCHAR
STARTCHAR 039C
ENCODING 924
SWIDTH 900 0
DWIDTH 30 0
BBX 27 22 1 0
BITMAP
FE000FE0
1F001F00
1F001F00
1F001F00
1B803700
1B803700
1B807700
19C06700
19C06700
18E0C700
18E0C700
18E0C700
18718700
18718700
18718700
183B0700
183B0700
183F0700
181E0700
181E0700
180C0700
FF0C3FE0
ENDCHAR
STARTCHAR 039D
ENCODING 925
SWIDTH 720 0
DWIDTH 24 0
BBX 22 22 1 0
BITMAP
FE03FC
1F00F0
1F0060
1B8060
1B8060
19C060
18E060
18E060
187060
187860
183860
181C60
181C60
180E60
180F60
180760
1803E0
1803E0
1801E0
1801E0
1800E0
FF0060
ENDCHAR
STARTCHAR 039E
ENCODING 926
SWIDTH 720 0
DWIDTH 24 0
BBX 22 22 1 0
BITMAP
3FFFF0
3C00F0
380070
300030
700038
600018
620118
020100
030300
03FF00
030300
020100
020100
000000
000000
C0000C
E0001C
600018
700038
780078
7C00F8
3FFFF0
ENDCHAR
STARTCHAR 039F
ENCODING 927
SWIDTH 780 0
DWIDTH 26 0
BBX 22 22 2 0
BITMAP
00FE00
070380
0E00C0
180060
380070
700038
700038
E0001C
E0001C
E0001C
E0001C
E0001C
E0001C
E0001C
E0003C
700038
700038
380070
1800E0
0C01C0
070380
01FE00
ENDCHAR
STARTCHAR 03A0
ENCODING 928
SWIDTH 780 0
DWIDTH 26 0
BBX 24 22 1 0
BITMAP
FFFFFF
1C0038
1C0038
1C0038
1C0038
1C0038
1C0038
1C0038
1C0038
1C0038
1C0038
1C0038
1C0038
1C0038
1C0038
1C0038
1C0038
1C0038
1C0038
1C0038
1C0038
FF81FF
ENDCHAR
STARTCHAR 03A1
ENCODING 929
SWIDTH 600 0
DWIDTH 20 0
BBX 19 22 1 0
BITMAP
FFFE00
1C0780
1C01C0
1C01C0
1C00E0
1C00E0
1C00E0
1C00E0
1C01C0
1C01C0
1C0780
1FFE00
1C0000
1C0000
1C0000
1C0000
1C0000
1C0000
1C0000
1C0000
1C0000
FF8000
ENDCHAR
STARTCHAR 03A3
ENCODING 931
SWIDTH 630 0
DWIDTH 21 0
BBX 20 22 1 0
BITMAP
FFFF00
700F00
700780
380380
1C0180
1C01C0
0E0080
070000
078000
038000
01C000
018000
030000
030000
060000
0C0030
180070
1800E0
3000E0
6003E0
FFFFC0
FFFFC0
ENDCHAR
STARTCHAR 03A4
ENCODING 932
SWIDTH 600 0
DWIDTH 20 0
BBX 21 23 -1 0
BITMAP
200020
3FFFE0
7C71F0
707070
607030
607030
C07038
C07018
007000
007000
007000
007000
007000
007000
007000
007000
007000
007000
007000
007000
007000
007000
03FE00
ENDCHAR
STARTCHAR 03A5
ENCODING 933
SWIDTH 630 0
DWIDTH 21 0
BBX 21 22 0 0
BITMAP
FF03F8
3C00E0
1C00C0
1C00C0
0E0180
0E0380
070300
038600
038600
01CC00
01D800
00F800
007000
007000
007000
007000
007000
007000
007000
007000
007000
03FE00
ENDCHAR
STARTCHAR 03A6
ENCODING 934
SWIDTH 810 0
DWIDTH 27 0
BBX 25 22 1 0
BITMAP
00FF8000
001C0000
001C0000
001C0000
03FFE000
1E1C3C00
381C0E00
701C0700
E01C0380
E01C0380
E01C0380
E01C0380
E01C0380
E01C0380
701C0700
381C0E00
1E1C3C00
03FFE000
001C0000
001C0000
001C0000
00FF8000
ENDCHAR
STARTCHAR 03A7
ENCODING 935
SWIDTH 720 0
DWIDTH 24 0
BBX 23 22 0 0
BITMAP
7F80FE
1E0038
0E0070
070060
0380C0
038180
01C300
00E600
007E00
007C00
003800
003C00
006E00
00C700
018700
038380
0301C0
0600E0
0C00F0
180070
380078
FE01FE
ENDCHAR
STARTCHAR 03A8
ENCODING 936
SWIDTH 870 0
DWIDTH 29 0
BBX 29 22 0 0
BITMAP
FC1FC1F8
1C0701C0
1C0701C0
1C0701C0
1C0701C0
1C0701C0
1C0701C0
1C0701C0
1C0701C0
1C0701C0
0C0703C0
0E070380
07070700
01FFFC00
00070000
00070000
00070000
00070000
00070000
00070000
00070000
003FE000
ENDCHAR
STARTCHAR 03A9
ENCODING 937
SWIDTH 750 0
DWIDTH 25 0
BBX 23 22 1 0
BITMAP
00FE00
0383C0
0E00E0
1C0070
180038
380038
38001C
70001C
70001C
70001C
70001C
70001C
70001C
380038
380038
DC0076
DC00FE
6F01EC
63838C
70EE1C
3C6C78
3FEFF8
ENDCHAR
STARTCHAR 03AA
ENCODING 938
SWIDTH 330 0
DWIDTH 11 0
BBX 10 28 0 0
BITMAP
6180
F3C0
F3C0
6180
0000
0000
7FC0
0E00
0E00
0E00
0E00
0E00
0E00
0E00
0E00
0E00
0E00
0E00
0E00
0E00
0E00
0E00
0E00
0E00
0E00
0E00
0E00
7FC0
ENDCHAR
STARTCHAR 03AB
ENCODING 939
SWIDTH 630 0
DWIDTH 21 0
BBX 21 28 0 0
BITMAP
030C00
079E00
079E00
030C00
000000
000000
FF03F8
3C00E0
1C00C0
1C00C0
0E0180
0E0380
070300
038600
038600
01CC00
01D800
00F800
007000
007000
007000
007000
007000
007000
007000
007000
007000
03FE00
ENDCHAR
STARTCHAR 03AC
ENCODING 940
SWIDTH 600 0
DWIDTH 20 0
BBX 18 25 1 0
BITMAP
038000
038000
038000
038000
010000
010000
000000
000000
000000
078600
1C6E00
381E00
700E00
700E00
E00E00
E00E00
E00E00
E00E00
E00E00
E00E00
600E00
700E00
381E00
1C6E00
0F8FC0
ENDCHAR
STARTCHAR 03AD
ENCODING 941
SWIDTH 480 0
DWIDTH 16 0
BBX 15 25 1 0
BITMAP
0380
0380
0380
0380
0100
0100
0000
0000
0000
0FC0
3870
7038
7038
7000
7000
1C00
0F80
3800
7000
E000
E002
E004
700C
7830
1FC0
ENDCHAR
STARTCHAR 03AE
ENCODING 942
SWIDTH 630 0
DWIDTH 21 0
BBX 17 32 1 -7
BITMAP
007000
007000
007000
007000
002000
002000
000000
000000
000000
1C7E00
FD8700
1F0380
1C0380
1C0380
1C0380
1C0380
1C0380
1C0380
1C0380
1C0380
1C0380
1C0380
1C0380
1C0380
FF8380
000380
000380
000380
000380
000380
000380
000380
ENDCHAR
STARTCHAR 03AF
ENCODING 943
SWIDTH 330 0
DWIDTH 11 0
BBX 9 25 1 0
BITMAP
1C00
1C00
1C00
1C00
0800
0800
0000
0000
0000
1C00
FC00
1C00
1C00
1C00
1C00
1C00
1C00
1C00
1C00
1C00
1C00
1C00
1C00
1C80
0F80
ENDCHAR
STARTCHAR 03B0
ENCODING 944
SWIDTH 600 0
DWIDTH 20 0
BBX 17 25 1 0
BITMAP
007000
067300
0F7780
0F7780
062300
002000
000000
000000
000000
FC1F80
1C0380
1C0380
1C0380
1C0380
1C0380
1C0380
1C0380
1C0380
1C0380
1C0380
1C0380
0C0300
0E0700
070E00
01F800
ENDCHAR
STARTCHAR 03B1
ENCODING 945
SWIDTH 600 0
DWIDTH 20 0
BBX 18 16 1 0
BITMAP
078600
1C6E00
381E00
700E00
700E00
E00E00
E00E00
E00E00
E00E00
E00E00
E00E00
600E00
700E00
381E00
1C6E00
0F8FC0
ENDCHAR
STARTCHAR 03B2
ENCODING 946
SWIDTH 600 0
DWIDTH 20 0
BBX 15 30 3 -7
BITMAP
0FC0
38E0
7070
6038
E038
E038
E038
E030
E070
E0E0
E7C0
E078
E01C
E01C
E00E
E00E
E00E
E00E
E00E
F00C
F01C
EC38
E7E0
E000
E000
E000
E000
E000
E000
E000
ENDCHAR
STARTCHAR 03B3
ENCODING 947
SWIDTH 510 0
DWIDTH 17 0
BBX 16 23 0 -7
BITMAP
F80E
380F
380F
1C07
1C06
0E06
0E0E
0E0C
071C
0718
0398
03B0
03B0
01E0
01E0
01C0
00C0
00E0
01E0
01E0
01E0
01E0
01C0
ENDCHAR
STARTCHAR 03B4
ENCODING 948
SWIDTH 540 0
DWIDTH 18 0
BBX 16 23 1 0
BITMAP
07F0
1C38
301C
301C
3000
3000
1C00
03C0
0C38
381C
300E
700E
E007
E007
E007
E007
E007
E007
600E
700E
381C
1C38
07E0
ENDCHAR
STARTCHAR 03B5
ENCODING 949
SWIDTH 480 0
DWIDTH 16 0
BBX 15 16 1 0
BITMAP
0FC0
3870
7038
7038
7000
7000
1C00
0F80
3800
7000
E000
E002
E004
700C
7830
1FC0
ENDCHAR
STARTCHAR 03B6
ENCODING 950
SWIDTH 390 0
DWIDTH 13 0
BBX 13 30 1 -7
BITMAP
E008
F010
F860
3FC0
0180
0300
0600
0C00
1C00
1800
3000
7000
7000
6000
E000
E000
E000
E000
F000
7C00
3F00
0FC0
03F0
00F8
0038
0038
7038
7030
78E0
1F80
ENDCHAR
STARTCHAR 03B7
ENCODING 951
SWIDTH 630 0
DWIDTH 21 0
BBX 17 23 1 -7
BITMAP
1C7E00
FD8700
1F0380
1C0380
1C0380
1C0380
1C0380
1C0380
1C0380
1C0380
1C0380
1C0380
1C0380
1C0380
1C0380
FF8380
000380
000380
000380
000380
000380
000380
000380
ENDCHAR
STARTCHAR 03B8
ENCODING 952
SWIDTH 570 0
DWIDTH 19 0
BBX 17 23 1 0
BITMAP
03E000
0E3800
180C00
380E00
700600
700700
700700
E00380
E00380
E00380
E00380
FFFF80
E00380
E00380
E00380
E00380
600300
700700
700700
300E00
180C00
0E3800
03E000
ENDCHAR
STARTCHAR 03B9
ENCODING 953
SWIDTH 330 0
DWIDTH 11 0
BBX 9 16 1 0
BITMAP
1C00
FC00
1C00
1C00
1C00
1C00
1C00
1C00
1C00
1C00
1C00
1C00
1C00
1C00
1C80
0F80
ENDCHAR
STARTCHAR 03BA
ENCODING 954
SWIDTH 600 0
DWIDTH 20 0
BBX 19 16 1 0
BITMAP
1C3FC0
FC0F00
1C0C00
1C1800
1C3000
1C6000
1CC000
1DE000
1FE000
1E7000
1C3800
1C1C00
1C0E00
1C0700
3C0780
FF83E0
ENDCHAR
STARTCHAR 03BB
ENCODING 955
SWIDTH 540 0
DWIDTH 18 0
BBX 17 23 0 0
BITMAP
070000
3F0000
038000
038000
038000
01C000
01C000
01C000
00E000
01E000
01E000
037000
037000
067000
063800
0C3800
0C3800
1C1C00
181C00
181C00
300E00
700F00
FC3F80
ENDCHAR
STARTCHAR 03BC
ENCODING 956
SWIDTH 660 0
DWIDTH 22 0
BBX 20 23 1 -7
BITMAP
FC1F80
1C0380
1C0380
1C0380
1C0380
1C0380
1C0380
1C0380
1C0380
1C0380
1C0380
1C0380
1C0780
1C0B80
1E1380
1FE3F0
1C0000
1C0000
1C0000
1C0000
1C0000
1C0000
1C0000
ENDCHAR
STARTCHAR 03BD
ENCODING 957
SWIDTH 510 0
DWIDTH 17 0
BBX 16 16 0 0
BITMAP
F80E
380F
1C0F
1C07
1C06
0E06
0E0E
0E0C
070C
0718
0398
03B0
03B0
01E0
01E0
01C0
ENDCHAR
STARTCHAR 03BE
ENCODING 958
SWIDTH 420 0
DWIDTH 14 0
BBX 13 30 1 -7
BITMAP
0FE0
1C78
3838
7000
7000
7000
3800
1E00
07F0
07F8
1C38
3000
7000
E000
E000
E000
E000
F000
7800
3E00
1FC0
07E0
01F0
0078
0038
0038
7038
7070
78E0
1F80
ENDCHAR
STARTCHAR 03BF
ENCODING 959
SWIDTH 540 0
DWIDTH 18 0
BBX 16 16 1 0
BITMAP
07E0
1C38
381C
700E
700E
E007
E007
E007
E007
E007
E007
600E
700E
381C
1C38
07E0
ENDCHAR
STARTCHAR 03C0
ENCODING 960
SWIDTH 660 0
DWIDTH 22 0
BBX 21 16 1 0
BITMAP
FFFFF0
1C0380
1C0380
1C0380
1C0380
1C0380
1C0380
1C0380
1C0380
1C0380
1C0380
1C0380
1C0380
1C0380
1C01C8
FF80F8
ENDCHAR
STARTCHAR 03C1
ENCODING 961
SWIDTH 570 0
DWIDTH 19 0
BBX 16 23 2 -7
BITMAP
07E0
1C38
381C
700E
700E
E007
E007
E007
E007
E007
E007
E00E
F00E
F81C
EC38
E7E0
E000
E000
E000
E000
E000
E000
E000
ENDCHAR
STARTCHAR 03C2
ENCODING 962
SWIDTH 480 0
DWIDTH 16 0
BBX 15 23 1 -7
BITMAP
07F0
1C3C
381E
700E
700E
E000
E000
E000
E000
F000
F800
7C00
3F00
0FE0
03F0
00F8
003C
001C
001C
6018
7038
7870
1FC0
ENDCHAR
STARTCHAR 03C3
ENCODING 963
SWIDTH 570 0
DWIDTH 19 0
BBX 18 16 1 0
BITMAP
07FFC0
1C3C00
381C00
700E00
700E00
E00700
E00700
E00700
E00700
E00700
E00700
600E00
700E00
381C00
1C3800
07E000
ENDCHAR
STARTCHAR 03C4
ENCODING 964
SWIDTH 390 0
DWIDTH 13 0
BBX 13 16 0 0
BITMAP
FFF0
0E00
0E00
0E00
0E00
0E00
0E00
0E00
0E00
0E00
0E00
0E00
0E00
0E08
0718
03E0
ENDCHAR
STARTCHAR 03C5
ENCODING 965
SWIDTH 600 0
DWIDTH 20 0
BBX 17 16 1 0
BITMAP
FC1F80
1C0380
1C0380
1C0380
1C0380
1C0380
1C0380
1C0380
1C0380
1C0380
1C0380
1C0380
0C0300
0E0700
070E00
01F800
ENDCHAR
STARTCHAR 03C6
ENCODING 966
SWIDTH 660 0
DWIDTH 22 0
BBX 21 23 0 -7
BITMAP
070F80
1C38E0
383070
707030
607038
E07038
E07038
E07038
E07038
E07038
E07038
607070
707070
3070E0
1C71C0
07FF00
007000
007000
007000
007000
007000
007000
007000
ENDCHAR
STARTCHAR 03C7
ENCODING 967
SWIDTH 600 0
DWIDTH 20 0
BBX 19 16 0 0
BITMAP
F80FE0
3C0380
1E0700
0E0600
070C00
03B800
01F000
00E000
00F000
01F000
033800
061C00
0C0E00
180700
300380
FC03E0
ENDCHAR
STARTCHAR 03C8
ENCODING 968
SWIDTH 750 0
DWIDTH 25 0
BBX 21 23 1 -7
BITMAP
F838F8
383838
383838
383838
383838
383838
383838
383838
383838
383838
383838
383838
183870
1C3870
0E38E0
03FF80
003800
003800
003800
003800
003800
003800
003800
ENDCHAR
STARTCHAR 03C9
ENCODING 969
SWIDTH 660 0
DWIDTH 22 0
BBX 21 16 0 0
BITMAP
078F00
1C01C0
3800E0
700070
700070
E00038
E00038
E07038
E07038
E07038
E07038
E07038
607070
70F070
38D8E0
0F8F80
ENDCHAR
STARTCHAR 03CA
ENCODING 970
SWIDTH 330 0
DWIDTH 11 0
BBX 10 23 0 0
BITMAP
6180
F3C0
F3C0
6180
0000
0000
0000
0E00
7E00
0E00
0E00
0E00
0E00
0E00
0E00
0E00
0E00
0E00
0E00
0E00
0E00
0E40
07C0
ENDCHAR
STARTCHAR 03CB
ENCODING 971
SWIDTH 600 0
DWIDTH 20 0
BBX 17 23 1 0
BITMAP
030C00
079E00
079E00
030C00
000000
000000
000000
FC1F80
1C0380
1C0380
1C0380
1C0380
1C0380
1C0380
1C0380
1C0380
1C0380
1C0380
1C0380
0C0300
0E0700
070E00
01F800
ENDCHAR
STARTCHAR 03CC
ENCODING 972
SWIDTH 540 0
DWIDTH 18 0
BBX 16 25 1 0
BITMAP
0380
0380
0380
0380
0100
0100
0000
0000
0000
07E0
1C38
381C
700E
700E
E007
E007
E007
E007
E007
E007
600E
700E
381C
1C38
07E0
ENDCHAR
STARTCHAR 03CD
ENCODING 973
SWIDTH 600 0
DWIDTH 20 0
BBX 17 25 1 0
BITMAP
007000
007000
007000
007000
002000
002000
000000
000000
000000
FC1F80
1C0380
1C0380
1C0380
1C0380
1C0380
1C0380
1C0380
1C0380
1C0380
1C0380
1C0380
0C0300
0E0700
070E00
01F800
ENDCHAR
STARTCHAR 03CE
ENCODING 974
SWIDTH 660 0
DWIDTH 22 0
BBX 21 25 0 0
BITMAP
007000
007000
007000
007000
002000
002000
000000
000000
000000
078F00
1C01C0
3800E0
700070
700070
E00038
E00038
E07038
E07038
E07038
E07038
E07038
607070
70F070
38D8E0
0F8F80
ENDCHAR
STARTCHAR 0401
ENCODING 1025
SWIDTH 690 0
DWIDTH 23 0
BBX 21 28 1 0
BITMAP
030C00
079E00
079E00
030C00
000000
000000
FFFFE0
1C01E0
1C0060
1C0070
1C0030
1C0038
1C0C18
1C0C00
1C0C00
1C1C00
1FFC00
1C1C00
1C0C00
1C0C00
1C0C10
1C0018
1C0018
1C0030
1C0070
1C00F0
1C01E0
FFFFE0
ENDCHAR
STARTCHAR 0402
ENCODING 1026
SWIDTH 720 0
DWIDTH 24 0
BBX 24 27 0 -4
BITMAP
200020
3FFFE0
7870F0
707070
607030
E07038
C07018
0071F0
00761C
00780C
00700E
00700E
007007
007007
007007
007007
007007
007007
007007
007007
007007
007006
03FE0E
00000C
00000C
000618
0003E0
ENDCHAR
STARTCHAR 0403
ENCODING 1027
SWIDTH 570 0
DWIDTH 19 0
BBX 17 28 2 0
BITMAP
001C00
007C00
00F800
018000
000000
000000
FFFE00
1C0E00
1C0700
1C0300
1C0300
1C0180
1C0180
1C0000
1C0000
1C0000
1C0000
1C0000
1C0000
1C0000
1C0000
1C0000
1C0000
1C0000
1C0000
1C0000
1C0000
FF8000
ENDCHAR
STARTCHAR 0404
ENCODING 1028
SWIDTH 720 0
DWIDTH 24 0
BBX 21 22 1 0
BITMAP
00FE40
0707C0
0E01E0
1C00E0
380060
700070
700030
700000
E00000
E00000
E00000
FFFC00
E00000
E00000
E00000
700010
700038
380070
1800E0
0E01C0
070700
01FC00
ENDCHAR
STARTCHAR 0405
ENCODING 1029
SWIDTH 660 0
DWIDTH 22 0
BBX 18 22 2 0
BITMAP
07F300
383F00
701F00
600F00
E00700
E00380
F00380
F80180
7E0000
3FE000
0FFC00
01FF00
003F80
000780
C003C0
E001C0
E001C0
7001C0
780180
7C0300
6E0E00
63F800
ENDCHAR
STARTCHAR 0406
ENCODING 1030
SWIDTH 330 0
DWIDTH 11 0
BBX 9 22 1 0
BITMAP
FF80
1C00
1C00
1C00
1C00
1C00
1C00
1C00
1C00
1C00
1C00
1C00
1C00
1C00
1C00
1C00
1C00
1C00
1C00
1C00
1C00
FF80
ENDCHAR
STARTCHAR 0407
ENCODING 1031
SWIDTH 330 0
DWIDTH 11 0
BBX 10 28 0 0
BITMAP
6180
F3C0
F3C0
6180
0000
0000
7FC0
0E00
0E00
0E00
0E00
0E00
0E00
0E00
0E00
0E00
0E00
0E00
0E00
0E00
0E00
0E00
0E00
0E00
0E00
0E00
0E00
7FC0
ENDCHAR
STARTCHAR 0408
ENCODING 1032
SWIDTH 600 0
DWIDTH 20 0
BBX 19 22 0 0
BITMAP
003FE0
000700
000700
000700
000700
000700
000700
000700
000700
000700
000700
000700
000700
600700
E00700
E00700
E00700
E00700
600E00
300C00
183800
07E000
ENDCHAR
STARTCHAR 0409
ENCODING 1033
SWIDTH 870 0
DWIDTH 29 0
BBX 29 22 0 0
BITMAP
07FFF000
01C38000
00C38000
01C38000
01838000
01838000
01838000
03038000
03038000
0303FF80
060381E0
06038070
06038070
0E038038
0C038038
0C038038
0C038038
18038038
18038070
18038070
380381C0
FE1FFF80
ENDCHAR
STARTCHAR 040A
ENCODING 1034
SWIDTH 960 0
DWIDTH 32 0
BBX 31 22 1 0
BITMAP
FF87FC00
1C00E000
1C00E000
1C00E000
1C00E000
1C00E000
1C00E000
1C00E000
1C00E000
1C00E000
1FFFFFE0
1C00E078
1C00E01C
1C00E01C
1C00E00E
1C00E00E
1C00E00E
1C00E00E
1C00E01C
1C00E01C
1C00E078
FF87FFE0
ENDCHAR
STARTCHAR 040B
ENCODING 1035
SWIDTH 780 0
DWIDTH 26 0
BBX 27 23 0 0
BITMAP
20002000
3FFFE000
7871F000
70707000
60703000
E0703800
C0701800
0071F800
007F0E00
007C0600
00700700
00700700
00700700
00700700
00700700
00700700
00700700
00700700
00700700
00700700
00700700
00700700
03FE3FE0
ENDCHAR
STARTCHAR 040C
ENCODING 1036
SWIDTH 720 0
DWIDTH 24 0
BBX 23 28 1 0
BITMAP
000E00
003E00
007C00
00C000
000000
000000
FF83FC
1C00F0
1C00C0
1C0080
1C0100
1C0200
1C0400
1C0800
1C1000
1C2000
1C7000
1CB800
1D1C00
1E0E00
1C0E00
1C0700
1C0380
1C01C0
1C01E0
1C00E0
1C00F0
FF83FE
ENDCHAR
STARTCHAR 040E
ENCODING 1038
SWIDTH 660 0
DWIDTH 22 0
BBX 22 29 0 0
BITMAP
0600C0
0701C0
0783C0
03C780
00FE00
000000
000000
FF01FC
3C0070
1C0060
1C0060
0E00C0
0700C0
070180
038180
01C300
01C300
00E600
007600
007C00
003C00
001C00
001800
001800
003000
003000
186000
1C4000
0F8000
ENDCHAR
STARTCHAR 040F
ENCODING 1039
SWIDTH 780 0
DWIDTH 26 0
BBX 24 27 1 -5
BITMAP
FF81FF
1C0038
1C0038
1C0038
1C0038
1C0038
1C0038
1C0038
1C0038
1C0038
1C0038
1C0038
1C0038
1C0038
1C0038
1C0038
1C0038
1C0038
1C0038
1C0038
1C0038
FFFFFF
003800
001000
001000
001000
001000
ENDCHAR
STARTCHAR 0410
ENCODING 1040
SWIDTH 660 0
DWIDTH 22 0
BBX 22 22 0 0
BITMAP
007800
007800
007800
00DC00
00DC00
00DC00
018E00
018E00
030F00
030700
030700
060380
060380
07FF80
0C01C0
0C01C0
1C01C0
1800E0
1800E0
3000E0
3800F0
FE03FC
ENDCHAR
STARTCHAR 0411
ENCODING 1041
SWIDTH 720 0
DWIDTH 24 0
BBX 21 22 1 0
BITMAP
FFFFC0
1C03C0
1C00E0
1C0060
1C0060
1C0070
1C0030
1C0000
1C0000
1C0000
1FFF00
1C01E0
1C0070
1C0070
1C0038
1C0038
1C0038
1C0038
1C0070
1C0070
1C01E0
FFFF00
ENDCHAR
STARTCHAR 0412
ENCODING 1042
SWIDTH 720 0
DWIDTH 24 0
BBX 21 22 1 0
BITMAP
FFFF00
1C01C0
1C00E0
1C0070
1C0070
1C0070
1C0070
1C00F0
1C00E0
1C03C0
1FFF00
1C01E0
1C0070
1C0070
1C0038
1C0038
1C0038
1C0038
1C0070
1C0070
1C01C0
FFFF00
ENDCHAR
STARTCHAR 0413
ENCODING 1043
SWIDTH 570 0
DWIDTH 19 0
BBX 17 22 2 0
BITMAP
FFFE00
1C0E00
1C0700
1C0300
1C0300
1C0180
1C0180
1C0000
1C0000
1C0000
1C0000
1C0000
1C0000
1C0000
1C0000
1C0000
1C0000
1C0000
1C0000
1C0000
1C0000
FF8000
ENDCHAR
STARTCHAR 0414
ENCODING 1044
SWIDTH 750 0
DWIDTH 25 0
BBX 28 27 -2 -5
BITMAP
00FFFFC0
00380E00
00180E00
00380E00
00300E00
00300E00
00300E00
00600E00
00600E00
00600E00
00C00E00
00C00E00
00C00E00
00C00E00
01800E00
01800E00
01800E00
03000E00
03000E00
03000E00
07000E00
3FFFFFC0
7C0003E0
700000E0
60000060
E0000070
C0000030
ENDCHAR
STARTCHAR 0415
ENCODING 1045
SWIDTH 690 0
DWIDTH 23 0
BBX 21 22 1 0
BITMAP
FFFFE0
1C01E0
1C0060
1C0070
1C0030
1C0038
1C0C18
1C0C00
1C0C00
1C1C00
1FFC00
1C1C00
1C0C00
1C0C00
1C0C10
1C0018
1C0018
1C0030
1C0070
1C00F0
1C01E0
FFFFE0
ENDCHAR
STARTCHAR 0416
ENCODING 1046
SWIDTH 1020 0
DWIDTH 34 0
BBX 33 22 0 0
BITMAP
7F8FF8FF00
1E03E03C00
0601C03000
0301C06000
0181C0C000
00C1C18000
00E1C38000
0061C30000
0031C60000
0019CC0000
003DDE0000
0077F70000
00F3E38000
00E1C38000
01C1C1C000
0381C0E000
0381C0E000
0701C07000
0E01C03800
1E01C03C00
3E01C01E00
FF8FF8FF80
ENDCHAR
STARTCHAR 0417
ENCODING 1047
SWIDTH 660 0
DWIDTH 22 0
BBX 19 22 2 0
BITMAP
23F800
3E0F00
780380
7001C0
6001C0
E001C0
C001C0
0001C0
000380
000F00
03FC00
000F80
0003C0
0001C0
0000E0
0000E0
8000E0
C000E0
E001C0
380380
1E0700
03F800
ENDCHAR
STARTCHAR 0418
ENCODING 1048
SWIDTH 780 0
DWIDTH 26 0
BBX 24 22 1 0
BITMAP
FF81FF
1C0078
1C0038
1C0038
1C0038
1C0078
1C00F8
1C01B8
1C0338
1C0638
1C0C38
1C1838
1C3038
1C6038
1CC038
1D8038
1F0038
1E0038
1C0038
1C0038
1C0038
FF81FF
ENDCHAR
STARTCHAR 0419
ENCODING 1049
SWIDTH 780 0
DWIDTH 26 0
BBX 24 29 1 0
BITMAP
060060
0700E0
0781E0
03C380
007E00
000000
000000
FF81FF
1C0078
1C0038
1C0038
1C0038
1C0078
1C00F8
1C01B8
1C0338
1C0638
1C0C38
1C1838
1C3038
1C6038
1CC038
1D8038
1F0038
1E0038
1C0038
1C0038
1C0038
FF81FF
ENDCHAR
STARTCHAR 041A
ENCODING 1050
SWIDTH 720 0
DWIDTH 24 0
BBX 23 22 1 0
BITMAP
FF83FC
1C00F0
1C00C0
1C0080
1C0100
1C0200
1C0400
1C0800
1C1000
1C2000
1C7000
1CB800
1D1C00
1E0E00
1C0E00
1C0700
1C0380
1C01C0
1C01E0
1C00E0
1C00F0
FF83FE
ENDCHAR
STARTCHAR 041B
ENCODING 1051
SWIDTH 660 0
DWIDTH 22 0
BBX 22 22 0 0
BITMAP
007800
007800
007800
00DC00
00DC00
00DC00
018E00
018E00
018F00
030700
030700
070380
060380
060380
0C01C0
0C01C0
0C01C0
1800E0
1800E0
1800F0
3800F0
FE03FC
ENDCHAR
STARTCHAR 041C
ENCODING 1052
SWIDTH 900 0
DWIDTH 30 0
BBX 27 22 1 0
BITMAP
FE000FE0
1F001F00
1F001F00
1F001F00
1B803700
1B803700
1B807700
19C06700
19C06700
18E0C700
18E0C700
18E0C700
18718700
18718700
18718700
183B0700
183B0700
183F0700
181E0700
181E0700
180C0700
FF0C3FE0
ENDCHAR
STARTCHAR 041D
ENCODING 1053
SWIDTH 780 0
DWIDTH 26 0
BBX 24 22 1 0
BITMAP
FF81FF
1C0038
1C0038
1C0038
1C0038
1C0038
1C0038
1C0038
1C0038
1C0038
1FFFF8
1C0038
1C0038
1C0038
1C0038
1C0038
1C0038
1C0038
1C0038
1C0038
1C0038
FF81FF
ENDCHAR
STARTCHAR 041E
ENCODING 1054
SWIDTH 780 0
DWIDTH 26 0
BBX 22 22 2 0
BITMAP
00FE00
070380
0E00C0
180060
380070
700038
700038
E0001C
E0001C
E0001C
E0001C
E0001C
E0001C
E0001C
E0003C
700038
700038
380070
1800E0
0C01C0
070380
01FE00
ENDCHAR
STARTCHAR 041F
ENCODING 1055
SWIDTH 780 0
DWIDTH 26 0
BBX 24 22 1 0
BITMAP
FFFFFF
1C0038
1C0038
1C0038
1C0038
1C0038
1C0038
1C0038
1C0038
1C0038
1C0038
1C0038
1C0038
1C0038
1C0038
1C0038
1C0038
1C0038
1C0038
1C0038
1C0038
FF81FF
ENDCHAR
STARTCHAR 0420
ENCODING 1056
SWIDTH 600 0
DWIDTH 20 0
BBX 19 22 1 0
BITMAP
FFFE00
1C0780
1C01C0
1C01C0
1C00E0
1C00E0
1C00E0
1C00E0
1C01C0
1C01C0
1C0780
1FFE00
1C0000
1C0000
1C0000
1C0000
1C0000
1C0000
1C0000
1C0000
1C0000
FF8000
ENDCHAR
STARTCHAR 0421
ENCODING 1057
SWIDTH 720 0
DWIDTH 24 0
BBX 22 22 2 0
BITMAP
00FE20
0383E0
0E01F0
1C0070
380070
700030
700038
600018
E00000
E00000
E00000
E00000
E00000
E00000
700000
700008
70000C
380018
1C0030
0E00E0
078380
00FE00
ENDCHAR
STARTCHAR 0422
ENCODING 1058
SWIDTH 600 0
DWIDTH 20 0
BBX 21 23 -1 0
BITMAP
200020
3FFFE0
7C71F0
707070
607030
607030
C07038
C07018
007000
007000
007000
007000
007000
007000
007000
007000
007000
007000
007000
007000
007000
007000
03FE00
ENDCHAR
STARTCHAR 0423
ENCODING 1059
SWIDTH 660 0
DWIDTH 22 0
BBX 22 22 0 0
BITMAP
FF01FC
3C0070
1C0060
1C0060
0E00C0
0700C0
070180
038180
01C300
01C300
00E600
007600
007C00
003C00
001C00
001800
001800
003000
003000
186000
1C4000
0F8000
ENDCHAR
STARTCHAR 0424
ENCODING 1060
SWIDTH 810 0
DWIDTH 27 0
BBX 25 22 1 0
BITMAP
00FF8000
001C0000
001C0000
001C0000
07FFE000
1E1C3C00
381C0E00
701C0700
E01C0380
E01C0380
E01C0380
E01C0380
E01C0380
E01C0380
701C0700
381C0E00
1E1C1C00
03FFF000
001C0000
001C0000
001C0000
00FF8000
ENDCHAR
STARTCHAR 0425
ENCODING 1061
SWIDTH 720 0
DWIDTH 24 0
BBX 23 22 0 0
BITMAP
7F80FE
1E0038
0E0070
070060
0380C0
038180
01C300
00E600
007E00
007C00
003800
003C00
006E00
00C700
018700
038380
0301C0
0600E0
0C00F0
180070
380078
FE01FE
ENDCHAR
STARTCHAR 0426
ENCODING 1062
SWIDTH 780 0
DWIDTH 26 0
BBX 26 28 1 -6
BITMAP
FF81FF00
1C003800
1C003800
1C003800
1C003800
1C003800
1C003800
1C003800
1C003800
1C003800
1C003800
1C003800
1C003800
1C003800
1C003800
1C003800
1C003800
1C003800
1C003800
1C003800
1C003800
FFFFFF00
00000F00
00000380
00000380
00000180
000001C0
000000C0
ENDCHAR
STARTCHAR 0427
ENCODING 1063
SWIDTH 690 0
DWIDTH 23 0
BBX 22 22 0 0
BITMAP
FF87FC
1C00E0
1C00E0
1C00E0
1C00E0
1C00E0
1C00E0
1C00E0
1C00E0
1C00E0
0E00E0
0700E0
01FFE0
0000E0
0000E0
0000E0
0000E0
0000E0
0000E0
0000E0
0000E0
0007FC
ENDCHAR
STARTCHAR 0428
ENCODING 1064
SWIDTH 1050 0
DWIDTH 35 0
BBX 33 22 1 0
BITMAP
FF8FF8FF80
1C01C01C00
1C01C01C00
1C01C01C00
1C01C01C00
1C01C01C00
1C01C01C00
1C01C01C00
1C01C01C00
1C01C01C00
1C01C01C00
1C01C01C00
1C01C01C00
1C01C01C00
1C01C01C00
1C01C01C00
1C01C01C00
1C01C01C00
1C01C01C00
1C01C01C00
1C01C01C00
FFFFFFFF80
ENDCHAR
STARTCHAR 0429
ENCODING 1065
SWIDTH 1050 0
DWIDTH 35 0
BBX 35 28 1 -6
BITMAP
FF8FF8FF80
1C01C01C00
1C01C01C00
1C01C01C00
1C01C01C00
1C01C01C00
1C01C01C00
1C01C01C00
1C01C01C00
1C01C01C00
1C01C01C00
1C01C01C00
1C01C01C00
1C01C01C00
1C01C01C00
1C01C01C00
1C01C01C00
1C01C01C00
1C01C01C00
1C01C01C00
1C01C01C00
FFFFFFFF80
0000000780
00000001C0
00000001C0
00000000C0
00000000E0
0000000060
ENDCHAR
STARTCHAR 042A
ENCODING 1066
SWIDTH 750 0
DWIDTH 25 0
BBX 25 23 0 0
BITMAP
20000000
3FFE0000
78700000
70700000
60700000
E0700000
C0700000
00700000
00700000
00700000
007FF800
00701E00
00700700
00700700
00700380
00700380
00700380
00700380
00700380
00700700
00700700
00701C00
03FFF800
ENDCHAR
STARTCHAR 042B
ENCODING 1067
SWIDTH 960 0
DWIDTH 32 0
BBX 29 22 1 0
BITMAP
FF800FF8
1C0001C0
1C0001C0
1C0001C0
1C0001C0
1C0001C0
1C0001C0
1C0001C0
1C0001C0
1FFE01C0
1C0781C0
1C01C1C0
1C01C1C0
1C00E1C0
1C00E1C0
1C00E1C0
1C00E1C0
1C00E1C0
1C01C1C0
1C01C1C0
1C0781C0
FFFE0FF8
ENDCHAR
STARTCHAR 042C
ENCODING 1068
SWIDTH 600 0
DWIDTH 20 0
BBX 19 22 1 0
BITMAP
FF8000
1C0000
1C0000
1C0000
1C0000
1C0000
1C0000
1C0000
1C0000
1FFE00
1C0780
1C01C0
1C01C0
1C00E0
1C00E0
1C00E0
1C00E0
1C00E0
1C01C0
1C01C0
1C0780
FFFE00
ENDCHAR
STARTCHAR 042D
ENCODING 1069
SWIDTH 720 0
DWIDTH 24 0
BBX 21 22 2 0
BITMAP
11FC00
1F0700
3C01C0
3800E0
3000E0
700070
600070
000038
000038
000038
000038
01FFF8
000038
000038
000030
400070
E00070
700060
3800C0
1C01C0
070700
01FC00
ENDCHAR
STARTCHAR 042E
ENCODING 1070
SWIDTH 1140 0
DWIDTH 38 0
BBX 35 22 1 0
BITMAP
FF8007F000
1C00381C00
1C00700600
1C00C00300
1C01C00380
1C038001C0
1C038001C0
1C070000E0
1C070000E0
1C070000E0
1FFF0000E0
1C070000E0
1C070000E0
1C070000E0
1C030000E0
1C038001C0
1C038001C0
1C01C00380
1C00C00700
1C00600E00
1C00381C00
FF800FF000
ENDCHAR
STARTCHAR 042F
ENCODING 1071
SWIDTH 720 0
DWIDTH 24 0
BBX 22 22 1 0
BITMAP
07FFFC
1C00E0
3800E0
7000E0
7000E0
7000E0
7000E0
7000E0
3800E0
1E00E0
03FFE0
0070E0
0070E0
00E0E0
01C0E0
0380E0
0700E0
0E00E0
0C00E0
1C00E0
3800E0
F007FC
ENDCHAR
STARTCHAR 0430
ENCODING 1072
SWIDTH 570 0
DWIDTH 19 0
BBX 19 16 1 0
BITMAP
07F000
1C3C00
381C00
700E00
700E00
700E00
000E00
00FE00
1F8E00
780E00
F00E00
E00E00
E00E00
E03E00
70EF00
3F87E0
ENDCHAR
STARTCHAR 0431
ENCODING 1073
SWIDTH 540 0
DWIDTH 18 0
BBX 16 23 1 0
BITMAP
0001
07FF
1FFE
3FFC
3800
6000
6000
47E0
CC38
D81C
F00E
F00E
E007
E007
E007
E007
E007
E007
600E
700E
381C
1C38
07E0
ENDCHAR
STARTCHAR 0432
ENCODING 1074
SWIDTH 600 0
DWIDTH 20 0
BBX 18 16 1 0
BITMAP
FFFC00
1C0700
1C0380
1C0380
1C0380
1C0700
1C0E00
1FFC00
1C0700
1C0380
1C01C0
1C01C0
1C01C0
1C0380
1C0700
FFFC00
ENDCHAR
STARTCHAR 0433
ENCODING 1075
SWIDTH 450 0
DWIDTH 15 0
BBX 15 16 1 0
BITMAP
FFF8
1C1C
1C0C
1C04
1C06
1C02
1C00
1C00
1C00
1C00
1C00
1C00
1C00
1C00
1C00
FF80
ENDCHAR
STARTCHAR 0434
ENCODING 1076
SWIDTH 600 0
DWIDTH 20 0
BBX 21 21 -1 -5
BITMAP
07FFF0
01C380
01C380
018380
018380
018380
018380
030380
030380
030380
070380
060380
060380
0E0380
0E0380
3FFFF0
7800F0
600030
400018
C00018
800008
ENDCHAR
STARTCHAR 0435
ENCODING 1077
SWIDTH 510 0
DWIDTH 17 0
BBX 15 16 1 0
BITMAP
07E0
1C38
381C
700C
600E
FFFE
E000
E000
E000
E000
E000
7002
7006
380C
1C38
07E0
ENDCHAR
STARTCHAR 0436
ENCODING 1078
SWIDTH 870 0
DWIDTH 29 0
BBX 29 16 0 0
BITMAP
7FBFEFF0
1E0703C0
06070300
03070600
01870C00
00C71800
00E73800
00FFF800
01DFDC00
038F8E00
07870F00
07070700
0E070380
1C0701C0
3C0701E0
FF3FE7F8
ENDCHAR
STARTCHAR 0437
ENCODING 1079
SWIDTH 480 0
DWIDTH 16 0
BBX 14 16 1 0
BITMAP
3FC0
7070
6038
C038
8038
0030
00E0
07C0
0078
003C
001C
801C
C01C
6038
1878
07E0
ENDCHAR
STARTCHAR 0438
ENCODING 1080
SWIDTH 630 0
DWIDTH 21 0
BBX 19 16 1 0
BITMAP
FFBFE0
1C0700
1C0700
1C0700
1C0F00
1C1700
1C2700
1C4700
1C4700
1C8700
1D0700
1E0700
1C0700
1C0700
1C0F00
FFBFE0
ENDCHAR
STARTCHAR 0439
ENCODING 1081
SWIDTH 630 0
DWIDTH 21 0
BBX 19 24 1 0
BITMAP
0C0600
0E0E00
0E0E00
071C00
01F000
000000
000000
000000
FFBFE0
1C0700
1C0700
1C0700
1C0F00
1C1700
1C2700
1C4700
1C4700
1C8700
1D0700
1E0700
1C0700
1C0700
1C0F00
FFBFE0
ENDCHAR
STARTCHAR 043A
ENCODING 1082
SWIDTH 600 0
DWIDTH 20 0
BBX 19 16 1 0
BITMAP
FFBFC0
1C0F00
1C0C00
1C1800
1C3000
1C6000
1CC000
1DE000
1FF000
1E7000
1C3800
1C1C00
1C0E00
1C0F00
3C0F80
FFBFE0
ENDCHAR
STARTCHAR 043B
ENCODING 1083
SWIDTH 510 0
DWIDTH 17 0
BBX 18 16 0 0
BITMAP
00E000
01E000
01E000
037000
037000
063800
063800
063800
0C1C00
0C1C00
180E00
180E00
380F00
300700
700780
FC1FC0
ENDCHAR
STARTCHAR 043C
ENCODING 1084
SWIDTH 750 0
DWIDTH 25 0
BBX 23 16 1 0
BITMAP
FE00FE
1F01F0
1F01F0
1B0370
1B8370
1B8370
198670
19C670
19C670
18EC70
18EC70
18EC70
187870
187870
183870
FF33FE
ENDCHAR
STARTCHAR 043D
ENCODING 1085
SWIDTH 630 0
DWIDTH 21 0
BBX 19 16 1 0
BITMAP
FFBFE0
1C0700
1C0700
1C0700
1C0700
1C0700
1C0700
1FFF00
1C0700
1C0700
1C0700
1C0700
1C0700
1C0700
1C0F00
FFBFE0
ENDCHAR
STARTCHAR 043E
ENCODING 1086
SWIDTH 540 0
DWIDTH 18 0
BBX 16 16 1 0
BITMAP
07E0
1C38
381C
700E
700E
E007
E007
E007
E007
E007
E007
600E
700E
381C
1C38
07E0
ENDCHAR
STARTCHAR 043F
ENCODING 1087
SWIDTH 630 0
DWIDTH 21 0
BBX 19 16 1 0
BITMAP
FFFFE0
1C0700
1C0700
1C0700
1C0700
1C0700
1C0700
1C0700
1C0700
1C0700
1C0700
1C0700
1C0700
1C0700
1C0700
FFBFE0
ENDCHAR
STARTCHAR 0440
ENCODING 1088
SWIDTH 600 0
DWIDTH 20 0
BBX 18 23 1 -7
BITMAP
1CFC00
FD0700
1E0300
1C0380
1C01C0
1C01C0
1C01C0
1C01C0
1C01C0
1C01C0
1C01C0
1C0380
1C0380
1E0700
1D0E00
1CFC00
1C0000
1C0000
1C0000
1C0000
1C0000
1C0000
FF8000
ENDCHAR
STARTCHAR 0441
ENCODING 1089
SWIDTH 510 0
DWIDTH 17 0
BBX 15 16 1 0
BITMAP
07F0
1C3C
381E
700E
700E
E000
E000
E000
E000
E000
E000
7002
7006
380C
1C30
07E0
ENDCHAR
STARTCHAR 0442
ENCODING 1090
SWIDTH 510 0
DWIDTH 17 0
BBX 19 17 -1 0
BITMAP
200080
7FFFC0
70E1C0
60E0C0
C0E060
80E020
00E000
00E000
00E000
00E000
00E000
00E000
00E000
00E000
00E000
00E000
07FC00
ENDCHAR
STARTCHAR 0443
ENCODING 1091
SWIDTH 540 0
DWIDTH 18 0
BBX 17 23 0 -7
BITMAP
FF0F80
3C0200
3C0200
1C0400
1C0400
0E0400
0E0800
070800
071000
071000
039000
03A000
01E000
01C000
00C000
00C000
008000
008000
010000
010000
C20000
E20000
7C0000
ENDCHAR
STARTCHAR 0444
ENCODING 1092
SWIDTH 840 0
DWIDTH 28 0
BBX 25 30 2 -7
BITMAP
001C0000
00FC0000
001C0000
001C0000
001C0000
001C0000
001C0000
0F1CF800
38DF0E00
703E0700
701C0700
E01C0380
E01C0380
E01C0380
E01C0380
E01C0380
E01C0380
E01C0380
601C0300
701C0700
303E0600
187F1C00
0F9CF800
001C0000
001C0000
001C0000
001C0000
001C0000
001C0000
00FF8000
ENDCHAR
STARTCHAR 0445
ENCODING 1093
SWIDTH 540 0
DWIDTH 18 0
BBX 18 16 0 0
BITMAP
7F1F80
3C0700
1C0E00
0E0C00
071800
03B000
03E000
01C000
01E000
037000
063800
0C1C00
0C1C00
180E00
380F00
FC3FC0
ENDCHAR
STARTCHAR 0446
ENCODING 1094
SWIDTH 660 0
DWIDTH 22 0
BBX 22 21 1 -5
BITMAP
FF9FF0
1C0380
1C0380
1C0380
1C0380
1C0380
1C0380
1C0380
1C0380
1C0380
1C0380
1C0380
1C0380
1C0380
1C0380
FFFFF0
000078
000018
000008
00000C
000004
ENDCHAR
STARTCHAR 0447
ENCODING 1095
SWIDTH 600 0
DWIDTH 20 0
BBX 18 16 1 0
BITMAP
FE7FC0
381E00
380E00
380E00
380E00
380E00
380E00
1C0E00
0FFE00
000E00
000E00
000E00
000E00
000E00
000E00
007FC0
ENDCHAR
STARTCHAR 0448
ENCODING 1096
SWIDTH 930 0
DWIDTH 31 0
BBX 29 16 1 0
BITMAP
FF1FC7F8
1C0701C0
1C0701C0
1C0701C0
1C0701C0
1C0701C0
1C0701C0
1C0701C0
1C0701C0
1C0701C0
1C0701C0
1C0701C0
1C0701C0
1C0701C0
1C0701C0
FFFFFFF8
ENDCHAR
STARTCHAR 0449
ENCODING 1097
SWIDTH 900 0
DWIDTH 30 0
BBX 31 21 1 -5
BITMAP
FF1FC7F8
1C0701C0
1C0701C0
1C0701C0
1C0701C0
1C0701C0
1C0701C0
1C0701C0
1C0701C0
1C0701C0
1C0701C0
1C0701C0
1C0701C0
1C0701C0
1C0701C0
FFFFFFF8
00000038
0000000C
00000004
00000006
00000002
ENDCHAR
STARTCHAR 044A
ENCODING 1098
SWIDTH 600 0
DWIDTH 20 0
BBX 20 17 -1 0
BITMAP
200000
7FF800
71C000
61C000
C1C000
81C000
01C000
01C000
01FF80
01C1E0
01C0F0
01C070
01C070
01C070
01C0E0
01C1E0
0FFF80
ENDCHAR
STARTCHAR 044B
ENCODING 1099
SWIDTH 810 0
DWIDTH 27 0
BBX 26 16 0 0
BITMAP
FF807FC0
1C000E00
1C000E00
1C000E00
1C000E00
1C000E00
1C000E00
1FF80E00
1C1E0E00
1C0F0E00
1C070E00
1C070E00
1C070E00
1C0E0E00
1C1E0E00
FFF07FC0
ENDCHAR
STARTCHAR 044C
ENCODING 1100
SWIDTH 510 0
DWIDTH 17 0
BBX 15 16 1 0
BITMAP
FF80
1C00
1C00
1C00
1C00
1C00
1C00
1FF0
1C1C
1C0E
1C0E
1C0E
1C0E
1C0C
1C1C
FFF0
ENDCHAR
STARTCHAR 044D
ENCODING 1101
SWIDTH 510 0
DWIDTH 17 0
BBX 15 16 1 0
BITMAP
3FC0
7070
6038
C01C
801C
000E
000E
07FE
000E
000E
000E
801C
C01C
6038
3870
0FC0
ENDCHAR
STARTCHAR 044E
ENCODING 1102
SWIDTH 840 0
DWIDTH 28 0
BBX 26 16 1 0
BITMAP
FF81F800
1C070E00
1C0E0700
1C1C0380
1C1C0380
1C3801C0
1C3801C0
1FF801C0
1C3801C0
1C3801C0
1C3801C0
1C180380
1C1C0380
1C0E0700
1C070E00
FF81F800
ENDCHAR
STARTCHAR 044F
ENCODING 1103
SWIDTH 570 0
DWIDTH 19 0
BBX 18 16 0 0
BITMAP
07FFC0
1E0E00
180E00
380E00
380E00
380E00
380E00
1E0E00
07FE00
038E00
070E00
070E00
0E0E00
1C0E00
3C0E00
FF7FC0
ENDCHAR
STARTCHAR 0451
ENCODING 1105
SWIDTH 510 0
DWIDTH 17 0
BBX 15 23 1 0
BITMAP
0C30
1E78
1E78
0C30
0000
0000
0000
07E0
1C38
381C
700C
600E
FFFE
E000
E000
E000
E000
E000
7002
7006
380C
1C38
07E0
ENDCHAR
STARTCHAR 0452
ENCODING 1106
SWIDTH 570 0
DWIDTH 19 0
BBX 17 27 1 -4
BITMAP
1C0000
FC0000
1C0000
1C0000
FFFC00
1C0000
1C0000
1CF800
1F0E00
1E0600
1C0700
1C0300
1C0380
1C0380
1C0380
1C0380
1C0380
1C0380
1C0380
1C0380
1C0380
1C0700
FF8700
000700
000E00
021C00
01F800
ENDCHAR
STARTCHAR 0453
ENCODING 1107
SWIDTH 450 0
DWIDTH 15 0
BBX 15 23 1 0
BITMAP
00E0
03E0
07C0
0C00
0000
0000
0000
FFF8
1C1C
1C0C
1C04
1C06
1C02
1C00
1C00
1C00
1C00
1C00
1C00
1C00
1C00
1C00
FF80
ENDCHAR
STARTCHAR 0454
ENCODING 1108
SWIDTH 510 0
DWIDTH 17 0
BBX 15 16 1 0
BITMAP
07F8
1C1C
380C
7006
7002
E000
E000
FFC0
E000
E000
E000
7002
7006
380C
1C38
07E0
ENDCHAR
STARTCHAR 0455
ENCODING 1109
SWIDTH 510 0
DWIDTH 17 0
BBX 14 16 2 0
BITMAP
1FB0
70F0
E030
E018
F008
FC00
7F80
1FE0
03F8
007C
803C
C01C
601C
7018
7830
27E0
ENDCHAR
STARTCHAR 0456
ENCODING 1110
SWIDTH 300 0
DWIDTH 10 0
BBX 9 23 1 0
BITMAP
1800
3C00
3C00
1800
0000
0000
0000
1C00
FC00
1C00
1C00
1C00
1C00
1C00
1C00
1C00
1C00
1C00
1C00
1C00
1C00
3C00
FF80
ENDCHAR
STARTCHAR 0457
ENCODING 1111
SWIDTH 300 0
DWIDTH 10 0
BBX 10 23 1 0
BITMAP
6180
F3C0
F3C0
6180
0000
0000
0000
1C00
FC00
1C00
1C00
1C00
1C00
1C00
1C00
1C00
1C00
1C00
1C00
1C00
1C00
3E00
FF80
ENDCHAR
STARTCHAR 0458
ENCODING 1112
SWIDTH 300 0
DWIDTH 10 0
BBX 10 30 -3 -7
BITMAP
0180
03C0
03C0
0180
0000
0000
0000
01C0
0FC0
01C0
01C0
01C0
01C0
01C0
01C0
01C0
01C0
01C0
01C0
01C0
01C0
01C0
01C0
01C0
01C0
01C0
01C0
E180
F300
7E00
ENDCHAR
STARTCHAR 0459
ENCODING 1113
SWIDTH 720 0
DWIDTH 24 0
BBX 23 16 0 0
BITMAP
3FFF80
0E1C00
061C00
0C1C00
0C1C00
0C1C00
0C1C00
1C1FF0
181C1C
181C0E
181C0E
181C0E
301C0E
301C1C
701C38
FCFFF0
ENDCHAR
STARTCHAR 045A
ENCODING 1114
SWIDTH 810 0
DWIDTH 27 0
BBX 25 16 1 0
BITMAP
FF9FF000
1C038000
1C038000
1C038000
1C038000
1C038000
1C038000
1FFFFE00
1C038700
1C038380
1C038380
1C038380
1C038380
1C038300
1C078700
FF9FFC00
ENDCHAR
STARTCHAR 045B
ENCODING 1115
SWIDTH 660 0
DWIDTH 22 0
BBX 21 23 1 0
BITMAP
1C0000
FC0000
1C0000
1C0000
FFFC00
1C0000
1C0000
1C7E00
1DC380
1F01C0
1C01C0
1C01C0
1C01C0
1C01C0
1C01C0
1C01C0
1C01C0
1C01C0
1C01C0
1C01C0
1C01C0
3E03E0
FF8FF8
ENDCHAR
STARTCHAR 045C
ENCODING 1116
SWIDTH 600 0
DWIDTH 20 0
BBX 19 23 1 0
BITMAP
007000
01F000
03E000
060000
000000
000000
000000
FFBFC0
1C0F00
1C0C00
1C1800
1C3000
1C6000
1CC000
1DE000
1FF000
1E7000
1C3800
1C1C00
1C0E00
1C0F00
3C0F80
FFBFE0
ENDCHAR
STARTCHAR 045E
ENCODING 1118
SWIDTH 540 0
DWIDTH 18 0
BBX 17 31 0 -7
BITMAP
180600
1C0E00
1C0E00
0E1C00
03F000
000000
000000
000000
FF1F80
3C0200
3C0200
1C0400
1C0400
0E0400
0E0800
070800
071000
071000
039000
03A000
01E000
01C000
00C000
008000
008000
008000
010000
010000
C20000
E40000
780000
ENDCHAR
STARTCHAR 045F
ENCODING 1119
SWIDTH 630 0
DWIDTH 21 0
BBX 19 20 1 -4
BITMAP
FFBFE0
1C0700
1C0700
1C0700
1C0700
1C0700
1C0700
1C0700
1C0700
1C0700
1C0700
1C0700
1C0700
1C0700
1C0700
FFFFE0
00E000
004000
004000
004000
ENDCHAR
STARTCHAR 0490
ENCODING 1168
SWIDTH 480 0
DWIDTH 16 0
BBX 14 28 2 0
BITMAP
000C
001C
0018
0018
0038
00F0
FFF0
1C00
1C00
1C00
1C00
1C00
1C00
1C00
1C00
1C00
1C00
1C00
1C00
1C00
1C00
1C00
1C00
1C00
1C00
1C00
1C00
FF80
ENDCHAR
STARTCHAR 0491
ENCODING 1169
SWIDTH 450 0
DWIDTH 15 0
BBX 15 21 1 0
BITMAP
0002
0006
0004
000C
003C
FFF8
1C00
1C00
1C00
1C00
1C00
1C00
1C00
1C00
1C00
1C00
1C00
1C00
1C00
1C00
FF80
ENDCHAR
STARTCHAR 1E80
ENCODING 7808
SWIDTH 960 0
DWIDTH 32 0
BBX 31 28 0 0
BITMAP
000E0000
000F8000
0007C000
00006000
00000000
00000000
FF9FF0FE
3C078038
3C078038
1C038030
1C038030
1E03C030
0E03C060
0E03C060
0E03C060
0706E0C0
0706E0C0
0706E0C0
038C7180
038C7180
038C7180
01D83B00
01D83B00
01D83B00
00F01E00
00F01E00
00F01E00
00600C00
ENDCHAR
STARTCHAR 1E81
ENCODING 7809
SWIDTH 780 0
DWIDTH 26 0
BBX 25 23 0 0
BITMAP
00700000
007C0000
003E0000
00030000
00000000
00000000
00000000
FE7F3F80
783C0600
381C0600
381C0400
1C0E0400
1C1E0800
1C1E0800
0E270800
0E271000
0E271000
0743A000
0743A000
0743A000
0381C000
0381C000
0381C000
ENDCHAR
STARTCHAR 1E82
ENCODING 7810
SWIDTH 960 0
DWIDTH 32 0
BBX 31 28 0 0
BITMAP
00007000
0001F000
0003E000
00060000
00000000
00000000
FF9FF0FE
3C078038
3C078038
1C038030
1C038030
1E03C030
0E03C060
0E03C060
0E03C060
0706E0C0
0706E0C0
0706E0C0
038C7180
038C7180
038C7180
01D83B00
01D83B00
01D83B00
00F01E00
00F01E00
00F01E00
00600C00
ENDCHAR
STARTCHAR 1E83
ENCODING 7811
SWIDTH 780 0
DWIDTH 26 0
BBX 25 23 0 0
BITMAP
00070000
001F0000
003E0000
00600000
00000000
00000000
00000000
FE7F3F80
783C0600
381C0600
381C0400
1C0E0400
1C1E0800
1C1E0800
0E270800
0E271000
0E271000
0743A000
0743A000
0743A000
0381C000
0381C000
0381C000
ENDCHAR
STARTCHAR 1E84
ENCODING 7812
SWIDTH 960 0
DWIDTH 32 0
BBX 31 28 0 0
BITMAP
00186000
003CF000
003CF000
00186000
00000000
00000000
FF9FF0FE
3C078038
3C078038
1C038030
1C038030
1E03C030
0E03C060
0E03C060
0E03C060
0706E0C0
0706E0C0
0706E0C0
038C7180
038C7180
038C7180
01D83B00
01D83B00
01D83B00
00F01E00
00F01E00
00F01E00
00600C00
ENDCHAR
STARTCHAR 1E85
ENCODING 7813
SWIDTH 780 0
DWIDTH 26 0
BBX 25 23 0 0
BITMAP
00C30000
01E78000
01E78000
00C30000
00000000
00000000
00000000
FE7F3F80
783C0600
381C0600
381C0400
1C0E0400
1C1E0800
1C1E0800
0E270800
0E271000
0E271000
0743A000
0743A000
0743A000
0381C000
0381C000
0381C000
ENDCHAR
STARTCHAR 1EF2
ENCODING 7922
SWIDTH 630 0
DWIDTH 21 0
BBX 21 28 0 0
BITMAP
01C000
01F000
00F800
000C00
000000
000000
FF03F8
3C00E0
1C00C0
1C00C0
0E0180
0E0380
070300
038600
038600
01CC00
01D800
00F800
007000
007000
007000
007000
007000
007000
007000
007000
007000
03FE00
ENDCHAR
STARTCHAR 1EF3
ENCODING 7923
SWIDTH 540 0
DWIDTH 18 0
BBX 17 30 0 -7
BITMAP
070000
07C000
03E000
003000
000000
000000
000000
FF0F80
3C0200
3C0200
1C0400
1C0400
0E0400
0E0800
070800
071000
071000
039000
03A000
01E000
01C000
00C000
00C000
008000
008000
010000
010000
C20000
E20000
7C0000
ENDCHAR
STARTCHAR 2013
ENCODING 8211
SWIDTH 510 0
DWIDTH 17 0
BBX 17 2 0 8
BITMAP
FFFF80
FFFF80
ENDCHAR
STARTCHAR 2014
ENCODING 8212
SWIDTH 990 0
DWIDTH 33 0
BBX 33 2 0 8
BITMAP
FFFFFFFF80
FFFFFFFF80
ENDCHAR
STARTCHAR 2015
ENCODING 8213
SWIDTH 750 0
DWIDTH 25 0
BBX 25 2 0 8
BITMAP
FFFFFF80
FFFFFF80
ENDCHAR
STARTCHAR 2017
ENCODING 8215
SWIDTH 510 0
DWIDTH 17 0
BBX 17 4 0 -7
BITMAP
FFFF80
000000
000000
FFFF80
ENDCHAR
STARTCHAR 2018
ENCODING 8216
SWIDTH 210 0
DWIDTH 7 0
BBX 5 10 3 13
BITMAP
08
18
30
60
C0
C0
F0
F8
F8
70
ENDCHAR
STARTCHAR 2019
ENCODING 8217
SWIDTH 210 0
DWIDTH 7 0
BBX 5 10 3 13
BITMAP
70
F8
F8
78
18
18
30
60
C0
80
ENDCHAR
STARTCHAR 201A
ENCODING 8218
SWIDTH 210 0
DWIDTH 7 0
BBX 5 10 3 -6
BITMAP
70
F8
F8
78
18
18
30
60
C0
80
ENDCHAR
STARTCHAR 201B
ENCODING 8219
SWIDTH 210 0
DWIDTH 7 0
BBX 5 10 1 13
BITMAP
70
F8
F8
F0
C0
C0
60
30
18
08
ENDCHAR
STARTCHAR 201C
ENCODING 8220
SWIDTH 390 0
DWIDTH 13 0
BBX 11 10 1 13
BITMAP
0820
1860
30C0
6180
C300
C300
F3C0
FBE0
FBE0
71C0
ENDCHAR
STARTCHAR 201D
ENCODING 8221
SWIDTH 390 0
DWIDTH 13 0
BBX 11 10 2 13
BITMAP
71C0
FBE0
FBE0
79E0
1860
1860
30C0
6180
C300
8200
ENDCHAR
STARTCHAR 201E
ENCODING 8222
SWIDTH 390 0
DWIDTH 13 0
BBX 11 10 2 -6
BITMAP
71C0
FBE0
FBE0
79E0
1860
1860
30C0
6180
C300
8200
ENDCHAR
STARTCHAR 2020
ENCODING 8224
SWIDTH 540 0
DWIDTH 18 0
BBX 11 27 3 -5
BITMAP
0E00
0E00
0E00
0E00
0400
0400
E5E0
FFE0
E4E0
0400
0E00
0E00
0E00
0E00
0400
0400
0400
0400
0400
0400
0400
0400
0400
0400
0400
0400
0400
ENDCHAR
STARTCHAR 2021
ENCODING 8225
SWIDTH 540 0
DWIDTH 18 0
BBX 11 26 3 -4
BITMAP
0E00
0E00
0E00
0E00
0400
0400
E5E0
FFE0
F5E0
0400
0400
0E00
0E00
0E00
0400
0400
F5E0
FFE0
F4E0
0400
0400
0E00
0E00
0E00
0E00
0E00
ENDCHAR
STARTCHAR 2022
ENCODING 8226
SWIDTH 450 0
DWIDTH 15 0
BBX 9 10 3 6
BITMAP
1C00
7F00
7F00
FF80
FF80
FF80
FF80
7F00
7F00
1C00
ENDCHAR
STARTCHAR 2026
ENCODING 8230
SWIDTH 990 0
DWIDTH 33 0
BBX 26 4 3 0
BITMAP
600C0180
F01E03C0
F01E03C0
600C0180
ENDCHAR
STARTCHAR 2030
ENCODING 8240
SWIDTH 1380 0
DWIDTH 46 0
BBX 44 22 1 0
BITMAP
1F8006000000
39C00E000000
70E00C000000
E07018000000
E07030000000
E07030000000
E07060000000
E070C0000000
E07180000000
70E180000000
31C30FC01F80
1F861CE039C0
000C387070E0
000C7038E070
00187038E070
00307038E070
00307038E070
00607038E070
00C07038E070
0180387070E0
01801CE039C0
03000FC01F80
ENDCHAR
STARTCHAR 2032
ENCODING 8242
SWIDTH 210 0
DWIDTH 7 0
BBX 4 9 2 13
BITMAP
30
70
70
60
60
40
C0
C0
80
ENDCHAR
STARTCHAR 2033
ENCODING 8243
SWIDTH 390 0
DWIDTH 13 0
BBX 10 9 2 13
BITMAP
30C0
71C0
71C0
6180
6180
4100
C300
C300
8200
ENDCHAR
STARTCHAR 2039
ENCODING 8249
SWIDTH 240 0
DWIDTH 8 0
BBX 4 12 2 2
BITMAP
10
30
20
60
60
C0
C0
60
60
20
30
10
ENDCHAR
STARTCHAR 203A
ENCODING 8250
SWIDTH 240 0
DWIDTH 8 0
BBX 4 12 2 2
BITMAP
80
C0
40
60
60
30
30
60
60
40
C0
80
ENDCHAR
STARTCHAR 203C
ENCODING 8252
SWIDTH 540 0
DWIDTH 18 0
BBX 12 22 3 0
BITMAP
6060
F0F0
F0F0
F0F0
F0F0
F0F0
E0E0
E0E0
E0E0
6060
6060
6060
6060
4040
4040
4040
0000
0000
6060
F0F0
F0F0
6060
ENDCHAR
STARTCHAR 203E
ENCODING 8254
SWIDTH 600 0
DWIDTH 20 0
BBX 22 1 -1 29
BITMAP
FFFFFC
ENDCHAR
STARTCHAR 2044
ENCODING 8260
SWIDTH 150 0
DWIDTH 5 0
BBX 17 22 -6 0
BITMAP
000180
000300
000300
000600
000C00
001C00
001800
003000
006000
006000
00C000
018000
030000
030000
060000
0C0000
1C0000
180000
300000
600000
600000
C00000
ENDCHAR
STARTCHAR 207F
ENCODING 8319
SWIDTH 420 0
DWIDTH 14 0
BBX 14 10 0 9
BITMAP
33E0
FC70
3030
3030
3030
3030
3030
3030
3030
FCFC
ENDCHAR
STARTCHAR 20A3
ENCODING 8355
SWIDTH 630 0
DWIDTH 21 0
BBX 20 22 1 0
BITMAP
FFFFC0
1C01C0
1C00E0
1C0060
1C0030
1C0030
1C0400
1C0400
1C0400
1C0C00
1FFC00
1C0C00
1C0400
1C0400
1C0400
1C0400
1C0000
FF8000
1C0000
1C0000
1C0000
FF8000
ENDCHAR
STARTCHAR 20A4
ENCODING 8356
SWIDTH 600 0
DWIDTH 20 0
BBX 20 22 0 0
BITMAP
007E00
01C180
038040
070040
070020
070020
070000
7FFE00
038000
03C000
7FFE00
00C000
00E000
00E000
3E6010
63E010
C0E030
C07030
C07C60
C0DFE0
618FC0
3E0780
ENDCHAR
STARTCHAR 20A7
ENCODING 8359
SWIDTH 1350 0
DWIDTH 45 0
BBX 42 22 1 0
BITMAP
FFFE00000000
1C0781000000
1C01C1000000
1C01E3000000
1C00E3000000
1C00E7000000
1C00FFFFFD00
1C00E7078F00
1C00C7070380
1C01C7070180
1C0187078180
1C070703E080
1FFC0703F800
1C000700FE00
1C0007003F80
1C0007000FC0
1C00070803C0
1C00070C01C0
1C00070601C0
1C0007070180
1C00038F8300
FF8001F2FE00
ENDCHAR
STARTCHAR 20AC
ENCODING 8364
SWIDTH 600 0
DWIDTH 20 0
BBX 19 22 0 0
BITMAP
007D80
018780
0701C0
0E01C0
0C00C0
1C00E0
1C0060
380000
380000
FFFE00
380000
380000
FFFE00
380000
3C0000
1C0000
1C0000
0E0020
0E0040
070080
03C300
00FC00
ENDCHAR
STARTCHAR 2105
ENCODING 8453
SWIDTH 840 0
DWIDTH 28 0
BBX 26 22 1 0
BITMAP
1F001800
71803000
70C06000
E0C06000
E000C000
E0018000
E0018000
70430000
71860000
1F060000
000C0000
00180000
00383E00
0030E380
0060C180
00E1C1C0
00C1C1C0
0181C1C0
0301C1C0
0300C380
0600E380
0C003E00
ENDCHAR
STARTCHAR 2113
ENCODING 8467
SWIDTH 450 0
DWIDTH 15 0
BBX 14 22 1 0
BITMAP
03C0
0E60
0C20
1C20
1C20
1C40
1C40
1C80
1D00
1E00
1C00
1C00
1C00
3C00
7C00
DC00
9C00
1C04
1C08
0C08
0E10
03E0
ENDCHAR
STARTCHAR 2116
ENCODING 8470
SWIDTH 1050 0
DWIDTH 35 0
BBX 33 22 1 0
BITMAP
FE03FC0000
1F00F00000
1F00600000
1B80600000
19C0600000
19C0600000
18E0600000
18F0607C00
187060C600
1838618300
183C630180
181C630180
180E630180
180E630180
1807630180
1803E30180
1803E18300
1801E0C600
1801E07C00
1800E00000
3C00600000
FF0063FF80
ENDCHAR
STARTCHAR 2122
ENCODING 8482
SWIDTH 960 0
DWIDTH 32 0
BBX 31 13 0 9
BITMAP
FFE7C03E
CE61E078
8E21E078
0E0160B8
0E0170B8
0E0170B8
0E013938
0E013938
0E011E38
0E011E38
0E010C38
0E010C38
3F87C4FE
ENDCHAR
STARTCHAR 2126
ENCODING 8486
SWIDTH 750 0
DWIDTH 25 0
BBX 22 22 1 0
BITMAP
01FE00
070380
1C00E0
380070
700038
700038
E0001C
E0001C
E0001C
E0001C
E0001C
E0001C
E00018
700038
700030
380060
9C00C4
860304
C2020C
FE03FC
FE03FC
FE03FC
ENDCHAR
STARTCHAR 212E
ENCODING 8494
SWIDTH 600 0
DWIDTH 20 0
BBX 18 18 1 -1
BITMAP
03F000
0C0C00
180600
300300
700380
700380
F003C0
F003C0
FFFFC0
F00000
F00000
F00000
700000
700080
300100
180200
0C0C00
03F000
ENDCHAR
STARTCHAR 215B
ENCODING 8539
SWIDTH 930 0
DWIDTH 31 0
BBX 25 23 4 0
BITMAP
18000000
F8003000
38006000
38006000
3800C000
38018000
38038000
38030000
38060000
380C0000
380C0000
FE183C00
0030E700
0060E700
0060E700
00C07E00
01803C00
03806F00
0301C780
0601C380
0C01C380
0C00E700
18007E00
ENDCHAR
STARTCHAR 215C
ENCODING 8540
SWIDTH 930 0
DWIDTH 31 0
BBX 27 23 2 0
BITMAP
1E000000
27800C00
43801800
03801800
03003000
0C006000
0380E000
01C0C000
C1C18000
C1C30000
63830000
3F060F00
000C39C0
001839C0
001839C0
00301F80
00600F00
00E01BC0
00C071E0
018070E0
030070E0
030039C0
06001F80
ENDCHAR
STARTCHAR 215D
ENCODING 8541
SWIDTH 930 0
DWIDTH 31 0
BBX 27 23 2 0
BITMAP
7FC00000
40000C00
40001800
40001800
7E003000
03806000
01C0E000
01C0C000
C1C18000
C1C30000
63830000
3E060F00
000C39C0
001839C0
001839C0
00301F80
00600F00
00E01BC0
00C071E0
018070E0
030070E0
030039C0
06001F80
ENDCHAR
STARTCHAR 215E
ENCODING 8542
SWIDTH 930 0
DWIDTH 31 0
BBX 27 23 2 0
BITMAP
7FE00000
40401800
80C03000
81803000
03006000
0700C000
0601C000
0E018000
0E030000
0C060000
1C060000
1C0C0F00
001839C0
003039C0
003039C0
00601F80
00C00F00
01C01BC0
018071E0
030070E0
060070E0
060039C0
0C001F80
ENDCHAR
STARTCHAR 2190
ENCODING 8592
SWIDTH 990 0
DWIDTH 33 0
BBX 30 12 1 3
BITMAP
03000000
06000000
0E000000
1C000000
38000000
FFFFFFFC
FFFFFFFC
38000000
1C000000
0E000000
06000000
03000000
ENDCHAR
STARTCHAR 2191
ENCODING 8593
SWIDTH 510 0
DWIDTH 17 0
BBX 12 30 3 -6
BITMAP
0600
0600
0F00
1F80
3FC0
76E0
E670
8610
0600
0600
0600
0600
0600
0600
0600
0600
0600
0600
0600
0600
0600
0600
0600
0600
0600
0600
0600
0600
0600
0600
ENDCHAR
STARTCHAR 2192
ENCODING 8594
SWIDTH 990 0
DWIDTH 33 0
BBX 30 12 1 3
BITMAP
00000300
00000180
000001C0
000000E0
00000070
FFFFFFFC
FFFFFFFC
00000070
000000E0
000001C0
00000180
00000300
ENDCHAR
STARTCHAR 2193
ENCODING 8595
SWIDTH 510 0
DWIDTH 17 0
BBX 12 30 3 -6
BITMAP
0600
0600
0600
0600
0600
0600
0600
0600
0600
0600
0600
0600
0600
0600
0600
0600
0600
0600
0600
0600
0600
0600
8610
E670
76E0
3FC0
1F80
0F00
0600
0600
ENDCHAR
STARTCHAR 2194
ENCODING 8596
SWIDTH 990 0
DWIDTH 33 0
BBX 30 12 1 3
BITMAP
03000300
06000180
0E0001C0
1C0000E0
38000070
FFFFFFFC
FFFFFFFC
38000070
1C0000E0
0E0001C0
06000180
03000300
ENDCHAR
STARTCHAR 2195
ENCODING 8597
SWIDTH 510 0
DWIDTH 17 0
BBX 12 30 3 -6
BITMAP
0600
0600
0F00
1F80
3FC0
76E0
E670
8610
0600
0600
0600
0600
0600
0600
0600
0600
0600
0600
0600
0600
0600
0600
8610
E670
76E0
3FC0
1F80
0F00
0600
0600
ENDCHAR
STARTCHAR 21A8
ENCODING 8616
SWIDTH 510 0
DWIDTH 17 0
BBX 12 34 3 -10
BITMAP
0600
0600
0F00
1F80
3FC0
76E0
E670
8610
0600
0600
0600
0600
0600
0600
0600
0600
0600
0600
0600
0600
0600
0600
8610
E670
76E0
3FC0
1F80
0F00
0600
0600
0000
0000
FFF0
FFF0
ENDCHAR
STARTCHAR 2202
ENCODING 8706
SWIDTH 480 0
DWIDTH 16 0
BBX 14 22 1 0
BITMAP
01E0
0630
0818
0808
1004
0004
0004
0004
03C4
0E34
180C
380C
7008
7008
E008
E008
E010
E010
E020
6040
7080
1F00
ENDCHAR
STARTCHAR 2206
ENCODING 8710
SWIDTH 600 0
DWIDTH 20 0
BBX 19 20 0 0
BITMAP
002000
007000
007000
00B800
00B800
013800
011C00
021C00
021E00
040E00
040E00
080700
080700
100700
100380
200380
2001C0
4001C0
4001C0
FFFFE0
ENDCHAR
STARTCHAR 220F
ENCODING 8719
SWIDTH 810 0
DWIDTH 27 0
BBX 25 29 1 -7
BITMAP
FFFFFF80
3C001E00
1C001C00
1C001C00
1C001C00
1C001C00
1C001C00
1C001C00
1C001C00
1C001C00
1C001C00
1C001C00
1C001C00
1C001C00
1C001C00
1C001C00
1C001C00
1C001C00
1C001C00
1C001C00
1C001C00
1C001C00
1C001C00
1C001C00
1C001C00
1C001C00
1C001C00
3E003E00
FF80FF80
ENDCHAR
STARTCHAR 2211
ENCODING 8721
SWIDTH 720 0
DWIDTH 24 0
BBX 22 29 1 -7
BITMAP
FFFFF8
700038
380018
380008
1C0008
0E0000
070000
070000
038000
01C000
00E000
00F000
007000
003800
001000
002000
004000
008000
008000
010000
020000
040000
040004
080004
10000C
20001C
7FFFF8
7FFFF8
FFFFF8
ENDCHAR
STARTCHAR 2212
ENCODING 8722
SWIDTH 600 0
DWIDTH 20 0
BBX 16 2 2 10
BITMAP
FFFF
FFFF
ENDCHAR
STARTCHAR 2215
ENCODING 8725
SWIDTH 150 0
DWIDTH 5 0
BBX 17 22 -6 0
BITMAP
000180
000300
000300
000600
000C00
001C00
001800
003000
006000
006000
00C000
018000
030000
030000
060000
0C0000
1C0000
180000
300000
600000
600000
C00000
ENDCHAR
STARTCHAR 2219
ENCODING 8729
SWIDTH 330 0
DWIDTH 11 0
BBX 4 4 3 9
BITMAP
60
F0
F0
60
ENDCHAR
STARTCHAR 221A
ENCODING 8730
SWIDTH 540 0
DWIDTH 18 0
BBX 16 30 2 1
BITMAP
0001
0001
0001
0002
0002
0002
0002
0002
0002
0002
0004
0004
0004
0804
3804
CC04
0C08
0608
0608
0708
0308
0388
0198
01D0
00D0
00D0
0070
0070
0030
0020
ENDCHAR
STARTCHAR 221E
ENCODING 8734
SWIDTH 720 0
DWIDTH 24 0
BBX 22 13 1 3
BITMAP
0007C0
1E1E30
611C18
40B808
807804
807004
807004
806004
80F004
40D008
238808
1F0430
0003C0
ENDCHAR
STARTCHAR 221F
ENCODING 8735
SWIDTH 960 0
DWIDTH 32 0
BBX 21 21 6 0
BITMAP
C00000
C00000
C00000
C00000
C00000
C00000
C00000
C00000
C00000
C00000
C00000
C00000
C00000
C00000
C00000
C00000
C00000
C00000
C00000
FFFFF8
FFFFF8
ENDCHAR
STARTCHAR 2229
ENCODING 8745
SWIDTH 720 0
DWIDTH 24 0
BBX 18 22 3 0
BITMAP
03F000
0C0C00
180600
300300
600180
600180
C000C0
C000C0
C000C0
C000C0
C000C0
C000C0
C000C0
C000C0
C000C0
C000C0
C000C0
C000C0
C000C0
C000C0
C000C0
C000C0
ENDCHAR
STARTCHAR 222B
ENCODING 8747
SWIDTH 270 0
DWIDTH 9 0
BBX 10 34 0 -1
BITMAP
0380
05C0
05C0
0CC0
0C00
0C00
0C00
1C00
1C00
1C00
1C00
1C00
1C00
1C00
1C00
1C00
1C00
1C00
1C00
1C00
1C00
1C00
1C00
1C00
1C00
1C00
0C00
0C00
0C00
0C00
0800
0800
E800
F000
ENDCHAR
STARTCHAR 2248
ENCODING 8776
SWIDTH 540 0
DWIDTH 18 0
BBX 15 12 1 5
BITMAP
0004
3F0E
61F8
C000
4000
0000
0000
0006
0006
3F0C
61F8
4000
ENDCHAR
STARTCHAR 2260
ENCODING 8800
SWIDTH 540 0
DWIDTH 18 0
BBX 16 19 1 2
BITMAP
0006
000C
000C
0018
0030
0030
FFFF
FFFF
00C0
0180
0300
FFFF
FFFF
0C00
0C00
1800
3000
3000
6000
ENDCHAR
STARTCHAR 2261
ENCODING 8801
SWIDTH 600 0
DWIDTH 20 0
BBX 16 10 2 6
BITMAP
FFFF
FFFF
0000
0000
FFFF
FFFF
0000
0000
FFFF
FFFF
ENDCHAR
STARTCHAR 2264
ENCODING 8804
SWIDTH 540 0
DWIDTH 18 0
BBX 14 18 2 1
BITMAP
0004
003C
00FC
07F8
1FC0
FF00
F800
E000
F800
FF00
1FC0
07F8
00FC
003C
0004
0000
FFFC
FFFC
ENDCHAR
STARTCHAR 2265
ENCODING 8805
SWIDTH 540 0
DWIDTH 18 0
BBX 14 18 2 1
BITMAP
8000
F000
FC00
7F80
0FE0
03FC
007C
001C
007C
03FC
0FE0
7F80
FC00
F000
8000
0000
FFFC
FFFC
ENDCHAR
STARTCHAR 2302
ENCODING 8962
SWIDTH 600 0
DWIDTH 20 0
BBX 15 18 2 0
BITMAP
0180
03C0
0660
0C30
1810
3008
200C
6006
C002
C002
C002
C002
C002
C002
C002
C002
C002
FFFE
ENDCHAR
STARTCHAR 2310
ENCODING 8976
SWIDTH 600 0
DWIDTH 20 0
BBX 16 12 2 0
BITMAP
FFFF
FFFF
C000
C000
C000
C000
C000
C000
C000
C000
C000
C000
ENDCHAR
STARTCHAR 2320
ENCODING 8992
SWIDTH 600 0
DWIDTH 20 0
BBX 7 36 9 -8
BITMAP
1C
7E
4C
C0
C0
C0
C0
C0
C0
C0
C0
C0
C0
C0
C0
C0
C0
C0
C0
C0
C0
C0
C0
C0
C0
C0
C0
C0
C0
C0
C0
C0
C0
C0
C0
C0
ENDCHAR
STARTCHAR 2321
ENCODING 8993
SWIDTH 600 0
DWIDTH 20 0
BBX 7 36 4 -8
BITMAP
06
06
06
06
06
06
06
06
06
06
06
06
06
06
06
06
06
06
06
06
06
06
06
06
06
06
06
06
06
06
06
06
06
64
FC
F8
ENDCHAR
STARTCHAR 2500
ENCODING 9472
SWIDTH 690 0
DWIDTH 23 0
BBX 24 2 0 9
BITMAP
FFFFFF
FFFFFF
ENDCHAR
STARTCHAR 2502
ENCODING 9474
SWIDTH 600 0
DWIDTH 20 0
BBX 3 40 7 -10
BITMAP
E0
E0
E0
E0
E0
E0
E0
E0
E0
E0
E0
E0
E0
E0
E0
E0
E0
E0
E0
E0
E0
E0
E0
E0
E0
E0
E0
E0
E0
E0
E0
E0
E0
E0
E0
E0
E0
E0
E0
E0
ENDCHAR
STARTCHAR 250C
ENCODING 9484
SWIDTH 690 0
DWIDTH 23 0
BBX 14 21 10 -10
BITMAP
FFFC
FFFC
E000
E000
E000
E000
E000
E000
E000
E000
E000
E000
E000
E000
E000
E000
E000
E000
E000
E000
E000
ENDCHAR
STARTCHAR 2510
ENCODING 9488
SWIDTH 690 0
DWIDTH 23 0
BBX 13 21 0 -10
BITMAP
FFF8
FFF8
0038
0038
0038
0038
0038
0038
0038
0038
0038
0038
0038
0038
0038
0038
0038
0038
0038
0038
0038
ENDCHAR
STARTCHAR 2514
ENCODING 9492
SWIDTH 690 0
DWIDTH 23 0
BBX 14 21 10 9
BITMAP
E000
E000
E000
E000
E000
E000
E000
E000
E000
E000
E000
E000
E000
E000
E000
E000
E000
E000
E000
FFFC
FFFC
ENDCHAR
STARTCHAR 2518
ENCODING 9496
SWIDTH 690 0
DWIDTH 23 0
BBX 13 21 0 9
BITMAP
0038
0038
0038
0038
0038
0038
0038
0038
0038
0038
0038
0038
0038
0038
0038
0038
0038
0038
0038
FFF8
FFF8
ENDCHAR
STARTCHAR 251C
ENCODING 9500
SWIDTH 690 0
DWIDTH 23 0
BBX 14 40 10 -10
BITMAP
E000
E000
E000
E000
E000
E000
E000
E000
E000
E000
E000
E000
E000
E000
E000
E000
E000
E000
E000
FFFC
FFFC
E000
E000
E000
E000
E000
E000
E000
E000
E000
E000
E000
E000
E000
E000
E000
E000
E000
E000
E000
ENDCHAR
STARTCHAR 2524
ENCODING 9508
SWIDTH 690 0
DWIDTH 23 0
BBX 13 40 0 -10
BITMAP
0038
0038
0038
0038
0038
0038
0038
0038
0038
0038
0038
0038
0038
0038
0038
0038
0038
0038
0038
FFF8
FFF8
0038
0038
0038
0038
0038
0038
0038
0038
0038
0038
0038
0038
0038
0038
0038
0038
0038
0038
0038
ENDCHAR
STARTCHAR 252C
ENCODING 9516
SWIDTH 690 0
DWIDTH 23 0
BBX 24 21 0 -10
BITMAP
FFFFFF
FFFFFF
003800
003800
003800
003800
003800
003800
003800
003800
003800
003800
003800
003800
003800
003800
003800
003800
003800
003800
003800
ENDCHAR
STARTCHAR 2534
ENCODING 9524
SWIDTH 690 0
DWIDTH 23 0
BBX 24 21 0 9
BITMAP
003800
003800
003800
003800
003800
003800
003800
003800
003800
003800
003800
003800
003800
003800
003800
003800
003800
003800
003800
FFFFFF
FFFFFF
ENDCHAR
STARTCHAR 253C
ENCODING 9532
SWIDTH 690 0
DWIDTH 23 0
BBX 24 40 0 -10
BITMAP
003800
003800
003800
003800
003800
003800
003800
003800
003800
003800
003800
003800
003800
003800
003800
003800
003800
003800
003800
FFFFFF
FFFFFF
003800
003800
003800
003800
003800
003800
003800
003800
003800
003800
003800
003800
003800
003800
003800
003800
003800
003800
003800
ENDCHAR
STARTCHAR 2550
ENCODING 9552
SWIDTH 690 0
DWIDTH 23 0
BBX 24 8 0 6
BITMAP
FFFFFF
FFFFFF
000000
000000
000000
000000
FFFFFF
FFFFFF
ENDCHAR
STARTCHAR 2551
ENCODING 9553
SWIDTH 690 0
DWIDTH 23 0
BBX 9 40 7 -10
BITMAP
E380
E380
E380
E380
E380
E380
E380
E380
E380
E380
E380
E380
E380
E380
E380
E380
E380
E380
E380
E380
E380
E380
E380
E380
E380
E380
E380
E380
E380
E380
E380
E380
E380
E380
E380
E380
E380
E380
E380
E380
ENDCHAR
STARTCHAR 2552
ENCODING 9554
SWIDTH 690 0
DWIDTH 23 0
BBX 14 24 10 -10
BITMAP
FFFC
FFFC
E000
E000
E000
E000
FFFC
FFFC
E000
E000
E000
E000
E000
E000
E000
E000
E000
E000
E000
E000
E000
E000
E000
E000
ENDCHAR
STARTCHAR 2553
ENCODING 9555
SWIDTH 690 0
DWIDTH 23 0
BBX 17 21 7 -10
BITMAP
FFFF80
FFFF80
FF8000
E38000
E38000
E38000
E38000
E38000
E38000
E38000
E38000
E38000
E38000
E38000
E38000
E38000
E38000
E38000
E38000
E38000
E38000
ENDCHAR
STARTCHAR 2554
ENCODING 9556
SWIDTH 690 0
DWIDTH 23 0
BBX 17 24 7 -10
BITMAP
FFFF80
FFFF80
E00000
E00000
E00000
E00000
E3FF80
E3FF80
E38000
E38000
E38000
E38000
E38000
E38000
E38000
E38000
E38000
E38000
E38000
E38000
E38000
E38000
E38000
E38000
ENDCHAR
STARTCHAR 2555
ENCODING 9557
SWIDTH 690 0
DWIDTH 23 0
BBX 13 24 0 -10
BITMAP
FFF8
FFF8
0038
0038
0038
0038
FFF8
FFF8
0038
0038
0038
0038
0038
0038
0038
0038
0038
0038
0038
0038
0038
0038
0038
0038
ENDCHAR
STARTCHAR 2556
ENCODING 9558
SWIDTH 690 0
DWIDTH 23 0
BBX 16 21 0 -10
BITMAP
FFFF
FFFF
01C7
01C7
01C7
01C7
01C7
01C7
01C7
01C7
01C7
01C7
01C7
01C7
01C7
01C7
01C7
01C7
01C7
01C7
01C7
ENDCHAR
STARTCHAR 2557
ENCODING 9559
SWIDTH 690 0
DWIDTH 23 0
BBX 16 24 0 -10
BITMAP
FFFF
FFFF
0007
0007
0007
0007
FFC7
FFC7
01C7
01C7
01C7
01C7
01C7
01C7
01C7
01C7
01C7
01C7
01C7
01C7
01C7
01C7
01C7
01C7
ENDCHAR
STARTCHAR 2558
ENCODING 9560
SWIDTH 690 0
DWIDTH 23 0
BBX 14 24 10 6
BITMAP
E000
E000
E000
E000
E000
E000
E000
E000
E000
E000
E000
E000
E000
E000
E000
E000
FFFC
FFFC
E000
E000
E000
E000
FFFC
FFFC
ENDCHAR
STARTCHAR 2559
ENCODING 9561
SWIDTH 690 0
DWIDTH 23 0
BBX 17 21 7 9
BITMAP
E38000
E38000
E38000
E38000
E38000
E38000
E38000
E38000
E38000
E38000
E38000
E38000
E38000
E38000
E38000
E38000
E38000
E38000
E38000
FFFF80
FFFF80
ENDCHAR
STARTCHAR 255A
ENCODING 9562
SWIDTH 690 0
DWIDTH 23 0
BBX 17 24 7 6
BITMAP
E38000
E38000
E38000
E38000
E38000
E38000
E38000
E38000
E38000
E38000
E38000
E38000
E38000
E38000
E38000
E38000
E3FF80
E3FF80
E00000
E00000
E00000
E00000
FFFF80
FFFF80
ENDCHAR
STARTCHAR 255B
ENCODING 9563
SWIDTH 690 0
DWIDTH 23 0
BBX 13 24 0 6
BITMAP
0038
0038
0038
0038
0038
0038
0038
0038
0038
0038
0038
0038
0038
0038
0038
0038
FFF8
FFF8
0038
0038
0038
0038
FFF8
FFF8
ENDCHAR
STARTCHAR 255C
ENCODING 9564
SWIDTH 690 0
DWIDTH 23 0
BBX 16 21 0 9
BITMAP
01C7
01C7
01C7
01C7
01C7
01C7
01C7
01C7
01C7
01C7
01C7
01C7
01C7
01C7
01C7
01C7
01C7
01C7
01C7
FFFF
FFFF
ENDCHAR
STARTCHAR 255D
ENCODING 9565
SWIDTH 690 0
DWIDTH 23 0
BBX 16 24 0 6
BITMAP
01C7
01C7
01C7
01C7
01C7
01C7
01C7
01C7
01C7
01C7
01C7
01C7
01C7
01C7
01C7
01C7
FFC7
FFC7
0007
0007
0007
0007
FFFF
FFFF
ENDCHAR
STARTCHAR 255E
ENCODING 9566
SWIDTH 690 0
DWIDTH 23 0
BBX 14 40 10 -10
BITMAP
E000
E000
E000
E000
E000
E000
E000
E000
E000
E000
E000
E000
E000
E000
E000
E000
FFFC
FFFC
E000
E000
E000
E000
FFFC
FFFC
E000
E000
E000
E000
E000
E000
E000
E000
E000
E000
E000
E000
E000
E000
E000
E000
ENDCHAR
STARTCHAR 255F
ENCODING 9567
SWIDTH 690 0
DWIDTH 23 0
BBX 17 40 7 -10
BITMAP
E38000
E38000
E38000
E38000
E38000
E38000
E38000
E38000
E38000
E38000
E38000
E38000
E38000
E38000
E38000
E38000
E38000
E38000
E38000
E3FF80
E3FF80
E38000
E38000
E38000
E38000
E38000
E38000
E38000
E38000
E38000
E38000
E38000
E38000
E38000
E38000
E38000
E38000
E38000
E38000
E38000
ENDCHAR
STARTCHAR 2560
ENCODING 9568
SWIDTH 690 0
DWIDTH 23 0
BBX 17 40 7 -10
BITMAP
E38000
E38000
E38000
E38000
E38000
E38000
E38000
E38000
E38000
E38000
E38000
E38000
E38000
E38000
E38000
E38000
E3FF80
E3FF80
E00000
E00000
E00000
E00000
E3FF80
E3FF80
E38000
E38000
E38000
E38000
E38000
E38000
E38000
E38000
E38000
E38000
E38000
E38000
E38000
E38000
E38000
E38000
ENDCHAR
STARTCHAR 2561
ENCODING 9569
SWIDTH 690 0
DWIDTH 23 0
BBX 13 40 0 -10
BITMAP
0038
0038
0038
0038
0038
0038
0038
0038
0038
0038
0038
0038
0038
0038
0038
0038
FFF8
FFF8
0038
0038
0038
0038
FFF8
FFF8
0038
0038
0038
0038
0038
0038
0038
0038
0038
0038
0038
0038
0038
0038
0038
0038
ENDCHAR
STARTCHAR 2562
ENCODING 9570
SWIDTH 690 0
DWIDTH 23 0
BBX 16 40 0 -10
BITMAP
01C7
01C7
01C7
01C7
01C7
01C7
01C7
01C7
01C7
01C7
01C7
01C7
01C7
01C7
01C7
01C7
01C7
01C7
01C7
FFC7
FFC7
01C7
01C7
01C7
01C7
01C7
01C7
01C7
01C7
01C7
01C7
01C7
01C7
01C7
01C7
01C7
01C7
01C7
01C7
01C7
ENDCHAR
STARTCHAR 2563
ENCODING 9571
SWIDTH 690 0
DWIDTH 23 0
BBX 16 40 0 -10
BITMAP
01C7
01C7
01C7
01C7
01C7
01C7
01C7
01C7
01C7
01C7
01C7
01C7
01C7
01C7
01C7
01C7
FFC7
FFC7
0007
0007
0007
0007
FFC7
FFC7
01C7
01C7
01C7
01C7
01C7
01C7
01C7
01C7
01C7
01C7
01C7
01C7
01C7
01C7
01C7
01C7
ENDCHAR
STARTCHAR 2564
ENCODING 9572
SWIDTH 690 0
DWIDTH 23 0
BBX 24 24 0 -10
BITMAP
FFFFFF
FFFFFF
000000
000000
000000
000000
FFFFFF
FFFFFF
003800
003800
003800
003800
003800
003800
003800
003800
003800
003800
003800
003800
003800
003800
003800
003800
ENDCHAR
STARTCHAR 2565
ENCODING 9573
SWIDTH 690 0
DWIDTH 23 0
BBX 24 21 0 -10
BITMAP
FFFFFF
FFFFFF
01FF00
01C700
01C700
01C700
01C700
01C700
01C700
01C700
01C700
01C700
01C700
01C700
01C700
01C700
01C700
01C700
01C700
01C700
01C700
ENDCHAR
STARTCHAR 2566
ENCODING 9574
SWIDTH 690 0
DWIDTH 23 0
BBX 24 24 0 -10
BITMAP
FFFFFF
FFFFFF
000000
000000
000000
000000
FFC7FF
FFC7FF
01C700
01C700
01C700
01C700
01C700
01C700
01C700
01C700
01C700
01C700
01C700
01C700
01C700
01C700
01C700
01C700
ENDCHAR
STARTCHAR 2567
ENCODING 9575
SWIDTH 690 0
DWIDTH 23 0
BBX 24 24 0 6
BITMAP
003800
003800
003800
003800
003800
003800
003800
003800
003800
003800
003800
003800
003800
003800
003800
003800
FFFFFF
FFFFFF
000000
000000
000000
000000
FFFFFF
FFFFFF
ENDCHAR
STARTCHAR 2568
ENCODING 9576
SWIDTH 690 0
DWIDTH 23 0
BBX 24 21 0 9
BITMAP
01C700
01C700
01C700
01C700
01C700
01C700
01C700
01C700
01C700
01C700
01C700
01C700
01C700
01C700
01C700
01C700
01C700
01C700
01C700
FFFFFF
FFFFFF
ENDCHAR
STARTCHAR 2569
ENCODING 9577
SWIDTH 690 0
DWIDTH 23 0
BBX 24 24 0 6
BITMAP
01C700
01C700
01C700
01C700
01C700
01C700
01C700
01C700
01C700
01C700
01C700
01C700
01C700
01C700
01C700
01C700
FFC7FF
FFC7FF
000000
000000
000000
000000
FFFFFF
FFFFFF
ENDCHAR
STARTCHAR 256A
ENCODING 9578
SWIDTH 690 0
DWIDTH 23 0
BBX 24 40 0 -10
BITMAP
003800
003800
003800
003800
003800
003800
003800
003800
003800
003800
003800
003800
003800
003800
003800
003800
FFFFFF
FFFFFF
003800
003800
003800
003800
FFFFFF
FFFFFF
003800
003800
003800
003800
003800
003800
003800
003800
003800
003800
003800
003800
003800
003800
003800
003800
ENDCHAR
STARTCHAR 256B
ENCODING 9579
SWIDTH 690 0
DWIDTH 23 0
BBX 24 40 0 -10
BITMAP
01C700
01C700
01C700
01C700
01C700
01C700
01C700
01C700
01C700
01C700
01C700
01C700
01C700
01C700
01C700
01C700
01C700
01C700
01C700
FFFFFF
FFFFFF
01C700
01C700
01C700
01C700
01C700
01C700
01C700
01C700
01C700
01C700
01C700
01C700
01C700
01C700
01C700
01C700
01C700
01C700
01C700
ENDCHAR
STARTCHAR 256C
ENCODING 9580
SWIDTH 690 0
DWIDTH 23 0
BBX 24 40 0 -10
BITMAP
01C700
01C700
01C700
01C700
01C700
01C700
01C700
01C700
01C700
01C700
01C700
01C700
01C700
01C700
01C700
01C700
FFC7FF
FFC7FF
000000
000000
000000
000000
FFC7FF
FFC7FF
01C700
01C700
01C700
01C700
01C700
01C700
01C700
01C700
01C700
01C700
01C700
01C700
01C700
01C700
01C700
01C700
ENDCHAR
STARTCHAR 2580
ENCODING 9600
SWIDTH 690 0
DWIDTH 23 0
BBX 24 20 0 10
BITMAP
FFFFFF
FFFFFF
FFFFFF
FFFFFF
FFFFFF
FFFFFF
FFFFFF
FFFFFF
FFFFFF
FFFFFF
FFFFFF
FFFFFF
FFFFFF
FFFFFF
FFFFFF
FFFFFF
FFFFFF
FFFFFF
FFFFFF
FFFFFF
ENDCHAR
STARTCHAR 2584
ENCODING 9604
SWIDTH 690 0
DWIDTH 23 0
BBX 24 20 0 -10
BITMAP
FFFFFF
FFFFFF
FFFFFF
FFFFFF
FFFFFF
FFFFFF
FFFFFF
FFFFFF
FFFFFF
FFFFFF
FFFFFF
FFFFFF
FFFFFF
FFFFFF
FFFFFF
FFFFFF
FFFFFF
FFFFFF
FFFFFF
FFFFFF
ENDCHAR
STARTCHAR 2588
ENCODING 9608
SWIDTH 690 0
DWIDTH 23 0
BBX 24 40 0 -10
BITMAP
FFFFFF
FFFFFF
FFFFFF
FFFFFF
FFFFFF
FFFFFF
FFFFFF
FFFFFF
FFFFFF
FFFFFF
FFFFFF
FFFFFF
FFFFFF
FFFFFF
FFFFFF
FFFFFF
FFFFFF
FFFFFF
FFFFFF
FFFFFF
FFFFFF
FFFFFF
FFFFFF
FFFFFF
FFFFFF
FFFFFF
FFFFFF
FFFFFF
FFFFFF
FFFFFF
FFFFFF
FFFFFF
FFFFFF
FFFFFF
FFFFFF
FFFFFF
FFFFFF
FFFFFF
FFFFFF
FFFFFF
ENDCHAR
STARTCHAR 258C
ENCODING 9612
SWIDTH 690 0
DWIDTH 23 0
BBX 12 40 0 -10
BITMAP
FFF0
FFF0
FFF0
FFF0
FFF0
FFF0
FFF0
FFF0
FFF0
FFF0
FFF0
FFF0
FFF0
FFF0
FFF0
FFF0
FFF0
FFF0
FFF0
FFF0
FFF0
FFF0
FFF0
FFF0
FFF0
FFF0
FFF0
FFF0
FFF0
FFF0
FFF0
FFF0
FFF0
FFF0
FFF0
FFF0
FFF0
FFF0
FFF0
FFF0
ENDCHAR
STARTCHAR 2590
ENCODING 9616
SWIDTH 690 0
DWIDTH 23 0
BBX 12 40 12 -10
BITMAP
FFF0
FFF0
FFF0
FFF0
FFF0
FFF0
FFF0
FFF0
FFF0
FFF0
FFF0
FFF0
FFF0
FFF0
FFF0
FFF0
FFF0
FFF0
FFF0
FFF0
FFF0
FFF0
FFF0
FFF0
FFF0
FFF0
FFF0
FFF0
FFF0
FFF0
FFF0
FFF0
FFF0
FFF0
FFF0
FFF0
FFF0
FFF0
FFF0
FFF0
ENDCHAR
STARTCHAR 2591
ENCODING 9617
SWIDTH 690 0
DWIDTH 23 0
BBX 22 38 2 -8
BITMAP
C0C0C0
C0C0C0
000000
000000
0C0C0C
0C0C0C
000000
000000
C0C0C0
C0C0C0
000000
000000
0C0C0C
0C0C0C
000000
000000
C0C0C0
C0C0C0
000000
000000
0C0C0C
0C0C0C
000000
000000
C0C0C0
C0C0C0
000000
000000
0C0C0C
0C0C0C
000000
000000
C0C0C0
C0C0C0
000000
000000
0C0C0C
0C0C0C
ENDCHAR
STARTCHAR 2592
ENCODING 9618
SWIDTH 690 0
DWIDTH 23 0
BBX 24 38 0 -8
BITMAP
333333
333333
000000
000000
CCCCCC
CCCCCC
000000
000000
333333
333333
000000
000000
CCCCCC
CCCCCC
000000
000000
333333
333333
000000
000000
CCCCCC
CCCCCC
000000
000000
333333
333333
000000
000000
CCCCCC
CCCCCC
000000
000000
333333
333333
000000
000000
CCCCCC
CCCCCC
ENDCHAR
STARTCHAR 2593
ENCODING 9619
SWIDTH 720 0
DWIDTH 24 0
BBX 24 40 0 -10
BITMAP
333333
333333
FFFFFF
FFFFFF
CCCCCC
CCCCCC
FFFFFF
FFFFFF
333333
333333
FFFFFF
FFFFFF
CCCCCC
CCCCCC
FFFFFF
FFFFFF
333333
333333
FFFFFF
FFFFFF
CCCCCC
CCCCCC
FFFFFF
FFFFFF
333333
333333
FFFFFF
FFFFFF
CCCCCC
CCCCCC
FFFFFF
FFFFFF
333333
333333
FFFFFF
FFFFFF
CCCCCC
CCCCCC
FFFFFF
FFFFFF
ENDCHAR
STARTCHAR 25A0
ENCODING 9632
SWIDTH 600 0
DWIDTH 20 0
BBX 16 15 2 0
BITMAP
FFFF
FFFF
FFFF
FFFF
FFFF
FFFF
FFFF
FFFF
FFFF
FFFF
FFFF
FFFF
FFFF
FFFF
FFFF
ENDCHAR
STARTCHAR 25A1
ENCODING 9633
SWIDTH 600 0
DWIDTH 20 0
BBX 16 15 2 0
BITMAP
FFFF
8001
8001
8001
8001
8001
8001
8001
8001
8001
8001
8001
8001
8001
FFFF
ENDCHAR
STARTCHAR 25AA
ENCODING 9642
SWIDTH 360 0
DWIDTH 12 0
BBX 8 7 2 7
BITMAP
FF
FF
FF
FF
FF
FF
FF
ENDCHAR
STARTCHAR 25AB
ENCODING 9643
SWIDTH 360 0
DWIDTH 12 0
BBX 8 8 2 7
BITMAP
FF
81
81
81
81
81
81
FF
ENDCHAR
STARTCHAR 25AC
ENCODING 9644
SWIDTH 990 0
DWIDTH 33 0
BBX 33 6 0 5
BITMAP
FFFFFFFF80
FFFFFFFF80
FFFFFFFF80
FFFFFFFF80
FFFFFFFF80
FFFFFFFF80
ENDCHAR
STARTCHAR 25B2
ENCODING 9650
SWIDTH 990 0
DWIDTH 33 0
BBX 23 23 5 0
BITMAP
001000
001000
003800
003800
007C00
007C00
00FE00
00FE00
01FF00
01FF00
03FF80
03FF80
07FFC0
07FFC0
0FFFE0
0FFFE0
1FFFF0
1FFFF0
3FFFF8
3FFFF8
7FFFFC
7FFFFC
FFFFFE
ENDCHAR
STARTCHAR 25BA
ENCODING 9658
SWIDTH 990 0
DWIDTH 33 0
BBX 22 22 5 0
BITMAP
C00000
F00000
FC0000
FF0000
FFC000
FFF000
FFFC00
FFFF00
FFFFC0
FFFFF0
FFFFFC
FFFFFC
FFFFF0
FFFFC0
FFFF00
FFFC00
FFF000
FFC000
FF0000
FC0000
F00000
C00000
ENDCHAR
STARTCHAR 25BC
ENCODING 9660
SWIDTH 990 0
DWIDTH 33 0
BBX 22 22 5 0
BITMAP
FFFFFC
7FFFFC
7FFFF8
3FFFF8
3FFFF0
1FFFF0
1FFFE0
0FFFE0
0FFFC0
07FFC0
07FF80
03FF80
03FF00
01FF00
01FE00
00FE00
00FC00
007C00
007800
003800
003000
001000
ENDCHAR
STARTCHAR 25C4
ENCODING 9668
SWIDTH 990 0
DWIDTH 33 0
BBX 23 23 5 0
BITMAP
000002
00000E
00003E
0000FE
0003FE
000FFE
003FFE
00FFFE
03FFFE
0FFFFE
3FFFFE
FFFFFE
7FFFFE
1FFFFE
07FFFE
01FFFE
007FFE
001FFE
0007FE
0001FE
00007E
00001E
000006
ENDCHAR
STARTCHAR 25CA
ENCODING 9674
SWIDTH 480 0
DWIDTH 16 0
BBX 15 22 1 0
BITMAP
0380
07C0
06C0
0C60
0C60
1830
1830
3018
700C
600C
C006
C006
600C
600C
3018
1830
1830
0C60
0C60
06C0
06C0
0380
ENDCHAR
STARTCHAR 25CB
ENCODING 9675
SWIDTH 600 0
DWIDTH 20 0
BBX 14 14 3 2
BITMAP
1FC0
3030
6018
4008
800C
8004
8004
8004
800C
C008
4018
3030
1FE0
0780
ENDCHAR
STARTCHAR 25CF
ENCODING 9679
SWIDTH 600 0
DWIDTH 20 0
BBX 14 14 3 2
BITMAP
0FC0
1FE0
3FF0
7FF8
FFFC
FFFC
FFFC
FFFC
FFFC
FFFC
7FF8
3FF0
1FE0
0FC0
ENDCHAR
STARTCHAR 25D8
ENCODING 9688
SWIDTH 600 0
DWIDTH 20 0
BBX 16 16 2 0
BITMAP
FFFF
FFFF
FFFF
FFFF
FFFF
FC3F
F81F
F81F
F81F
F81F
FC3F
FFFF
FFFF
FFFF
FFFF
FFFF
ENDCHAR
STARTCHAR 25D9
ENCODING 9689
SWIDTH 600 0
DWIDTH 20 0
BBX 18 19 1 0
BITMAP
FFFFC0
FFFFC0
FFFFC0
F80FC0
F3F3C0
E7F9C0
EFFDC0
DFFCC0
DFFEC0
DFFEC0
DFFEC0
DFFEC0
CFFDC0
EFF9C0
F3F3C0
F807C0
FE1FC0
FFFFC0
FFFFC0
ENDCHAR
STARTCHAR 25E6
ENCODING 9702
SWIDTH 360 0
DWIDTH 12 0
BBX 8 8 2 7
BITMAP
3C
42
81
81
81
81
42
3C
ENDCHAR
STARTCHAR 263A
ENCODING 9786
SWIDTH 1020 0
DWIDTH 34 0
BBX 20 21 7 -2
BITMAP
006000
07FC00
0E0700
380180
3000C0
600060
C00020
C60430
860E30
860610
800010
800010
800030
800430
C60420
639C60
61F0C0
300180
1C0300
07FE00
01F800
ENDCHAR
STARTCHAR 263B
ENCODING 9787
SWIDTH 1050 0
DWIDTH 35 0
BBX 21 21 7 -2
BITMAP
007000
03FE00
0FFF80
1FFFC0
3FFFE0
7FFFE0
7FFFF0
7DFDF0
F8F8F0
FDF9F8
FFFFF8
FFFFF8
FFFFF0
FDFFF0
7DF9F0
7E73E0
3F07E0
1FFFC0
0FFF80
07FF00
01F800
ENDCHAR
STARTCHAR 263C
ENCODING 9788
SWIDTH 900 0
DWIDTH 30 0
BBX 30 30 0 -4
BITMAP
00010000
00010000
00010000
08010020
0C010040
06078080
031FF100
01E01A00
00C00C00
01800600
01000300
03000100
02000100
02000180
FE0001FC
02000180
02000100
02000100
01000300
01000200
00800600
01C00E00
03303B00
020FE180
040100C0
08010060
00010000
00010000
00010000
00010000
ENDCHAR
STARTCHAR 2640
ENCODING 9792
SWIDTH 540 0
DWIDTH 18 0
BBX 16 27 1 -4
BITMAP
07E0
1818
3004
2002
4002
4002
8001
8001
8001
8001
4002
4002
2004
1008
0FF0
0100
0100
0100
0100
0100
0100
7FFE
0100
0100
0100
0100
0100
ENDCHAR
STARTCHAR 2642
ENCODING 9794
SWIDTH 660 0
DWIDTH 22 0
BBX 20 27 1 -5
BITMAP
000080
0003C0
0007C0
001FC0
00E1C0
000240
000260
000420
000420
000810
000800
001000
001000
07E000
181800
200C00
400600
400600
400300
800300
800300
400300
400700
200600
200E00
181C00
07F800
ENDCHAR
STARTCHAR 2660
ENCODING 9824
SWIDTH 510 0
DWIDTH 17 0
BBX 16 19 1 0
BITMAP
0100
0180
0380
03C0
07E0
0FF0
3FF8
7FFC
7FFE
FFFE
FFFF
FFFF
FF7E
7D7E
1100
0180
0380
07E0
7FFC
ENDCHAR
STARTCHAR 2663
ENCODING 9827
SWIDTH 660 0
DWIDTH 22 0
BBX 20 20 1 0
BITMAP
00F000
01F800
03FC00
07FC00
07FC00
03FC00
03FC00
3FFFC0
7FFFE0
FFFFF0
FFFFF0
FFFFF0
FFBFF0
7FDFE0
7F4FC0
086100
006000
00F000
03F800
1FFF80
ENDCHAR
STARTCHAR 2665
ENCODING 9829
SWIDTH 570 0
DWIDTH 19 0
BBX 18 20 1 0
BITMAP
3C0E00
7E3F00
FF7F80
FF7F80
FFFFC0
FFFF80
FFFF80
7FFF80
7FFF00
3FFE00
1FFE00
0FFC00
0FF800
07F000
03F000
03E000
01C000
00C000
008000
008000
ENDCHAR
STARTCHAR 2666
ENCODING 9830
SWIDTH 510 0
DWIDTH 17 0
BBX 15 20 1 0
BITMAP
0100
0100
0380
0780
07C0
0FE0
1FF0
3FF0
7FF8
7FFC
FFFE
7FFC
3FF8
1FF0
1FE0
0FE0
07C0
0380
0380
0100
ENDCHAR
STARTCHAR 266A
ENCODING 9834
SWIDTH 750 0
DWIDTH 25 0
BBX 25 33 0 -8
BITMAP
00010000
0001C000
0001E000
0001F000
0001F800
00013C00
00011E00
00010F00
00010700
00010380
00010180
00010000
00010000
00010000
00010000
00010000
00010000
00010000
00010000
00010000
00010000
07F90000
1FFF0000
3FFF0000
7FFF0000
7FFF0000
FFFF0000
FFFF0000
7FFF0000
7FFE0000
3FFC0000
1FF00000
01000000
ENDCHAR
STARTCHAR 266B
ENCODING 9835
SWIDTH 990 0
DWIDTH 33 0
BBX 23 31 5 -7
BITMAP
000002
00001E
0000FE
000FFE
007FFE
00FFFE
00FFC2
00FE02
00F002
00C002
00C002
00C002
00C002
00C002
00C002
00C002
00C002
00C002
00C022
00C1FE
00C3FE
00C7FE
0CC7FE
3FC7FE
7FC7FE
FFC3FC
FFC1F8
FFC000
FFC000
7F8000
3F0000
ENDCHAR
STARTCHAR F000
ENCODING 61440
SWIDTH 780 0
DWIDTH 26 0
BBX 1 1 0 0
BITMAP
00
ENDCHAR
STARTCHAR F001
ENCODING 61441
SWIDTH 600 0
DWIDTH 20 0
BBX 19 23 1 0
BITMAP
01F800
071C00
0C0E00
1C0E00
1C0000
1C0000
1C0100
FFFF00
1C0700
1C0700
1C0700
1C0700
1C0700
1C0700
1C0700
1C0700
1C0700
1C0700
1C0700
1C0700
1C0700
3E0F80
FFBFE0
ENDCHAR
STARTCHAR F002
ENCODING 61442
SWIDTH 600 0
DWIDTH 20 0
BBX 19 23 1 0
BITMAP
03FF00
063F00
0C1F00
1C0700
1C0700
1C0700
1C0700
FFFF00
1C0700
1C0700
1C0700
1C0700
1C0700
1C0700
1C0700
1C0700
1C0700
1C0700
1C0700
1C0700
1C0700
3E0F80
FFBFE0
ENDCHAR
STARTCHAR F003
ENCODING 61443
SWIDTH 360 0
DWIDTH 12 0
BBX 11 12 1 11
BITMAP
0380
0780
0B80
1380
3380
4380
8380
FFE0
0380
0380
0380
0380
ENDCHAR
STARTCHAR F004
ENCODING 61444
SWIDTH 330 0
DWIDTH 11 0
BBX 4 8 3 -10
BITMAP
E0
F0
F0
10
10
30
60
C0
ENDCHAR
STARTCHAR F005
ENCODING 61445
SWIDTH 330 0
DWIDTH 11 0
BBX 6 5 2 -6
BITMAP
F8
0C
8C
CC
78
ENDCHAR
STARTCHAR F006
ENCODING 61446
SWIDTH 540 0
DWIDTH 18 0
BBX 16 15 1 0
BITMAP
3FFF
4630
8630
0630
0630
0630
0630
0C30
0C30
0C30
0C31
1C39
3C3E
381E
381C
ENDCHAR
STARTCHAR F007
ENCODING 61447
SWIDTH 360 0
DWIDTH 12 0
BBX 10 12 1 11
BITMAP
7FC0
4000
4000
4000
7E00
0380
01C0
01C0
C1C0
C1C0
6380
3E00
ENDCHAR
STARTCHAR F008
ENCODING 61448
SWIDTH 360 0
DWIDTH 12 0
BBX 11 12 1 11
BITMAP
7FE0
4040
80C0
8180
0300
0700
0600
0E00
0E00
0C00
1C00
1C00
ENDCHAR
STARTCHAR F009
ENCODING 61449
SWIDTH 360 0
DWIDTH 12 0
BBX 10 12 1 11
BITMAP
1E00
7380
7380
7380
3F00
1E00
3780
E3C0
E1C0
E1C0
7380
3F00
ENDCHAR
STARTCHAR F100
ENCODING 61696
SWIDTH 630 0
DWIDTH 21 0
BBX 19 22 1 0
BITMAP
FFFFE0
3C00E0
1C0060
1C0020
1C0020
1C0000
1C0000
1C0000
1C0000
1C0000
1C0000
1C0000
1C0000
1C0000
1C0000
1C0000
1C0000
1C0000
1C0000
1C0000
3E0000
FF8000
ENDCHAR
STARTCHAR F101
ENCODING 61697
SWIDTH 780 0
DWIDTH 26 0
BBX 22 22 2 0
BITMAP
00FC00
070380
0C00C0
180060
380070
700038
720138
620118
E3031C
E3FF1C
E3FF1C
E3FF1C
E3031C
E2011C
620118
700038
700038
380070
180060
0C00C0
070380
00FC00
ENDCHAR
STARTCHAR F102
ENCODING 61698
SWIDTH 780 0
DWIDTH 26 0
BBX 22 22 2 0
BITMAP
03FE00
00F800
007000
03FF00
0E71C0
387060
707030
707038
E0701C
E0701C
E0701C
E0701C
E0701C
E0701C
707038
707038
387070
1C71C0
03FF00
007000
00F800
03FE00
ENDCHAR
STARTCHAR F103
ENCODING 61699
SWIDTH 540 0
DWIDTH 18 0
BBX 16 16 2 0
BITMAP
0F1C
399C
709C
705C
E058
E038
E038
E038
E038
E030
E070
E070
6070
70F1
39CB
1F0E
ENDCHAR
STARTCHAR F104
ENCODING 61700
SWIDTH 480 0
DWIDTH 16 0
BBX 14 22 1 0
BITMAP
0FC0
30F0
2078
2038
1000
1800
0600
0380
01C0
0EE0
3870
7038
603C
E01C
E01C
E01C
E01C
E018
7038
7030
3860
0F80
ENDCHAR
STARTCHAR F105
ENCODING 61701
SWIDTH 450 0
DWIDTH 15 0
BBX 13 16 1 0
BITMAP
0FC0
38F0
7070
7030
7000
7000
3800
0FC0
3000
6000
E000
E038
E038
7078
38F0
0FC0
ENDCHAR
STARTCHAR F106
ENCODING 61702
SWIDTH 570 0
DWIDTH 19 0
BBX 17 16 1 0
BITMAP
07FF80
1FFF80
3C2000
703000
701800
E01C00
E00C00
E00E00
E00E00
E00E00
600E00
700E00
301C00
381C00
1C3000
07E000
ENDCHAR
STARTCHAR F107
ENCODING 61703
SWIDTH 420 0
DWIDTH 14 0
BBX 12 16 1 0
BITMAP
3FF0
7FF0
4700
8600
0600
0600
0600
0600
0600
0600
0600
0610
0730
07E0
03E0
01C0
ENDCHAR
STARTCHAR F108
ENCODING 61704
SWIDTH 540 0
DWIDTH 18 0
BBX 16 23 1 -7
BITMAP
0C70
389C
718E
718E
E187
E187
E187
E187
E187
E187
E187
6186
718E
318C
19B8
07E0
0180
0180
0180
0180
0180
0180
0180
ENDCHAR
STARTCHAR FB01
ENCODING 64257
SWIDTH 600 0
DWIDTH 20 0
BBX 19 23 1 0
BITMAP
01F800
071C00
0C0E00
1C0E00
1C0000
1C0000
1C0100
FFFF00
1C0700
1C0700
1C0700
1C0700
1C0700
1C0700
1C0700
1C0700
1C0700
1C0700
1C0700
1C0700
1C0700
3E0F80
FFBFE0
ENDCHAR
STARTCHAR FB02
ENCODING 64258
SWIDTH 600 0
DWIDTH 20 0
BBX 19 23 1 0
BITMAP
03FF00
063F00
0C1F00
1C0700
1C0700
1C0700
1C0700
FFFF00
1C0700
1C0700
1C0700
1C0700
1C0700
1C0700
1C0700
1C0700
1C0700
1C0700
1C0700
1C0700
1C0700
3E0F80
FFBFE0
ENDCHAR
ENDFONT
